STARTFONT 2.3
FONT -FontForge-Monofett-Book-R-Normal--28-280-72-72-P-153-ISO10646-1
SIZE 28 72 72  4
FONTBOUNDINGBOX 19 33 -1 -5
COMMENT "Generated by fontforge, http://fontforge.sourceforge.net"
COMMENT "Copyright (c) 2011 by vernon adams. All rights reserved."
STARTPROPERTIES 41
FOUNDRY "FontForge"
FAMILY_NAME "Monofett"
WEIGHT_NAME "Book"
SLANT "R"
SETWIDTH_NAME "Normal"
ADD_STYLE_NAME ""
PIXEL_SIZE 28
POINT_SIZE 280
RESOLUTION_X 72
RESOLUTION_Y 72
SPACING "P"
AVERAGE_WIDTH 153
CHARSET_REGISTRY "ISO10646"
CHARSET_ENCODING "1"
FONTNAME_REGISTRY ""
CHARSET_COLLECTIONS "ISO8859-2 ISO8859-9 ISO8859-4 ISO10646-1"
BITS_PER_PIXEL 4
FONT_NAME "Monofett"
FACE_NAME "Monofett"
COPYRIGHT "Copyright (c) 2011 by vernon adams. All rights reserved."
FONT_VERSION "1.000"
FONT_ASCENT 22
FONT_DESCENT 6
UNDERLINE_POSITION -4
UNDERLINE_THICKNESS 1
X_HEIGHT 18
CAP_HEIGHT 18
RAW_ASCENT 799
RAW_DESCENT 200
NORM_SPACE 4
RELATIVE_WEIGHT 40
RELATIVE_SETWIDTH 50
SUPERSCRIPT_X 0
SUPERSCRIPT_Y 13
SUPERSCRIPT_SIZE 18
SUBSCRIPT_X 0
SUBSCRIPT_Y 3
SUBSCRIPT_SIZE 18
FIGURE_WIDTH 16
AVG_LOWERCASE_WIDTH 160
AVG_UPPERCASE_WIDTH 160
ENDPROPERTIES
CHARS 409
STARTCHAR uni000D
ENCODING 13
SWIDTH 144 0
DWIDTH 4 0
BBX 1 1 0 0
BITMAP
00
ENDCHAR
STARTCHAR space
ENCODING 32
SWIDTH 144 0
DWIDTH 4 0
BBX 1 1 0 0
BITMAP
00
ENDCHAR
STARTCHAR exclam
ENCODING 33
SWIDTH 424 0
DWIDTH 12 0
BBX 13 19 -1 0
BITMAP
000049AA830000
002CFF88FFB200
02EFFF21FFFD10
09FFFF32FFFF70
0EFFFF43FFFFC0
1FFFFF54FFFFE0
1FFFFF65FFFFE0
1FFFFF76FFFFE0
1FFFFF87FFFFE0
1FFFFF98FFFFE0
1FFFFFDCFFFFE0
1FFFFFA9FFFFE0
1FFFFF51FFFFE0
1FFFFFFFFFFFE0
0FFFFFFFFFFFD0
0BFFFFFFFFFF90
04FFFFFFFFFE20
006FFFFFFFE400
00029DFEC81000
ENDCHAR
STARTCHAR quotedbl
ENCODING 34
SWIDTH 424 0
DWIDTH 12 0
BBX 13 19 -1 0
BITMAP
000049AA830000
002CFB9B9FB200
02EFF7372FFD10
09FFF7372FFF70
0EFFF7372FFFC0
1FFFFFFFFFFFE0
1FFFFFFFFFFFE0
1FFFFFFFFFFFE0
1FFFFFFFFFFFE0
1FFFFFFFFFFFE0
1FFFFFFFFFFFE0
1FFFFFFFFFFFE0
1FFFFFFFFFFFE0
1FFFFFFFFFFFE0
0FFFFFFFFFFFD0
0BFFFFFFFFFF90
04FFFFFFFFFE20
006FFFFFFFE400
00029DFEC81000
ENDCHAR
STARTCHAR numbersign
ENCODING 35
SWIDTH 482 0
DWIDTH 14 0
BBX 15 19 -1 0
BITMAP
000049ABBA720000
002CFFFFFFFF8000
02EFFFDDFCEFF800
09FFFF35D0AFFF20
0EFFFA14707FFF70
1FFFF100000FFF80
1FFFFD0A80FFFF90
1FFFFC0C72FFFF90
1FFFFA0D53FFFF90
1FFFA000007FFF90
1FFFC31813BFFF90
1FFFF53F18FFFF90
1FFFFCCFBEFFFF90
1FFFFFFFFFFFFF90
0FFFFFFFFFFFFF80
0BFFFFFFFFFFFF40
03FFFFFFFFFFFB00
005FFFFFFFFFC100
00029DEFFEB60000
ENDCHAR
STARTCHAR dollar
ENCODING 36
SWIDTH 578 0
DWIDTH 16 0
BBX 18 19 -1 0
BITMAP
000049ABBBBB950000
002CFFFFD9FFFFE400
02EFFFDA719BEFFF30
09FFFB0000004FFFC0
0EFFF52DA2E70DFFF2
1FFFF54FB2FECFFFF4
1FFFF52EB2FFFFFFF4
1FFFFA0000029FFFF4
1FFFFFB961831FFFF4
1FFFFFFFB2F90EFFF4
1FFFF75FB2F90EFFF4
1FFFF70541521FFFF4
1FFFFE632034CFFFF4
1FFFFFFFB2FFFFFFF4
0FFFFFFFD9FFFFFFF3
0BFFFFFFFFFFFFFFE0
03FFFFFFFFFFFFFF60
005FFFFFFFFFFFF800
00029DEFFFFFDA3000
ENDCHAR
STARTCHAR percent
ENCODING 37
SWIDTH 578 0
DWIDTH 16 0
BBX 18 19 -1 0
BITMAP
000049ABBBBB950000
002CFFFFFFFFFFE400
02EF844BFD5DFFFF30
09F90521F80EFFFFC0
0EF71F90F43FFFFFF2
1FF80521E08FFFFFF4
1FFF634CA0CFFFFFF4
1FFFFFFF52FDBCFFF4
1FFFFFFF16C1005FF4
1FFFFFFC0B81D70EF4
1FFFFFF71F80C70EF4
1FFFFFF35FD1005FF4
1FFFFFFEEFFECCFFF4
1FFFFFFFFFFFFFFFF4
0FFFFFFFFFFFFFFFF3
0BFFFFFFFFFFFFFFE0
03FFFFFFFFFFFFFF60
005FFFFFFFFFFFF800
00029DEFFFFFDA3000
ENDCHAR
STARTCHAR ampersand
ENCODING 38
SWIDTH 578 0
DWIDTH 16 0
BBX 18 19 -1 0
BITMAP
000049ABBBBB950000
002CFFFA8889EFE400
02EFFF600110EFFF30
09FFFF16FFFFFFFFC0
0EFFFF18FFFFFFFFF2
1FFFFF17FFFE09FFF4
1FFFFFA1455403CFF4
1FFFFFB2333305FFF4
1FFFFF27FFFE09FFF4
1FFFFF18FFFE09FFF4
1FFFFF17FFFE09FFF4
1FFFFF3155530CFFF4
1FFFFFD533349FFFF4
1FFFFFFFFFFFFFFFF4
0FFFFFFFFFFFFFFFF3
0BFFFFFFFFFFFFFFE0
03FFFFFFFFFFFFFF60
005FFFFFFFFFFFF800
00029DEFFFFFDA3000
ENDCHAR
STARTCHAR quotesingle
ENCODING 39
SWIDTH 424 0
DWIDTH 12 0
BBX 13 19 -1 0
BITMAP
000049AA830000
002CFFAAFFB200
02EFFF54FFFD10
09FFFF54FFFF70
0EFFFF54FFFFC0
1FFFFFFFFFFFE0
1FFFFFFFFFFFE0
1FFFFFFFFFFFE0
1FFFFFFFFFFFE0
1FFFFFFFFFFFE0
1FFFFFFFFFFFE0
1FFFFFFFFFFFE0
1FFFFFFFFFFFE0
1FFFFFFFFFFFE0
0FFFFFFFFFFFD0
0BFFFFFFFFFF90
04FFFFFFFFFE20
006FFFFFFFE400
00029DFEC81000
ENDCHAR
STARTCHAR parenleft
ENCODING 40
SWIDTH 483 0
DWIDTH 14 0
BBX 15 19 -1 0
BITMAP
000049ABBA720000
002CFFC87AFF8000
02EFFC0016FFF800
09FFF90EFFFFFF20
0EFFF80FFFFFFF70
1FFFF80FFFFFFF90
1FFFF80FFFFFFF90
1FFFF80FFFFFFF90
1FFFF80FFFFFFF90
1FFFF80FFFFFFF90
1FFFF80FFFFFFF90
1FFFF80FFFFFFF90
1FFFF90EFFFFFF90
1FFFFC0126FFFF90
0FFFFFB779FFFF80
0BFFFFFFFFFFFF40
03FFFFFFFFFFFB00
005FFFFFFFFFC100
00029DEFFEB60000
ENDCHAR
STARTCHAR parenright
ENCODING 41
SWIDTH 483 0
DWIDTH 14 0
BBX 15 19 -1 0
BITMAP
000049ABBA720000
002CFE779EFF8000
02EFFE1104FFF800
09FFFFFF70FFFF20
0EFFFFFF90FFFF70
1FFFFFFF90FFFF90
1FFFFFFF90FFFF90
1FFFFFFF90FFFF90
1FFFFFFF90FFFF90
1FFFFFFF90FFFF90
1FFFFFFF90FFFF90
1FFFFFFF90FFFF90
1FFFFFFF80FFFF90
1FFFFE2204FFFF90
0FFFFE778EFFFF80
0BFFFFFFFFFFFF40
03FFFFFFFFFFFB00
005FFFFFFFFFC100
00029DEFFEB60000
ENDCHAR
STARTCHAR asterisk
ENCODING 42
SWIDTH 428 0
DWIDTH 12 0
BBX 14 19 -1 0
BITMAP
000049AA940000
002CFEBFCEC200
02EFF61C15FE20
09FFFD110DFF90
0EFF3000001FE0
1FFF9810078FF0
1FFFFA0608FFF1
1FFFF94F68FFF1
1FFFFFFFFFFFF1
1FFFFFFFFFFFF1
1FFFFFFFFFFFF1
1FFFFFFFFFFFF1
1FFFFFFFFFFFF1
1FFFFFFFFFFFF1
0FFFFFFFFFFFF0
0BFFFFFFFFFFB0
03FFFFFFFFFF30
005FFFFFFFE500
00029DEED92000
ENDCHAR
STARTCHAR plus
ENCODING 43
SWIDTH 428 0
DWIDTH 12 0
BBX 14 19 -1 0
BITMAP
000049AA940000
002CFFA9FFC200
02EFFF63FFFE20
09FFFF63FFFF90
0EFC3310339FE0
1FFC662166BFF0
1FFFFF63FFFFF1
1FFFFF63FFFFF1
1FFFFFCCFFFFF1
1FFFFFFFFFFFF1
1FFFFFFFFFFFF1
1FFFFFFFFFFFF1
1FFFFFFFFFFFF1
1FFFFFFFFFFFF1
0FFFFFFFFFFFF0
0BFFFFFFFFFFB0
03FFFFFFFFFF30
005FFFFFFFE500
00029DEED92000
ENDCHAR
STARTCHAR comma
ENCODING 44
SWIDTH 428 0
DWIDTH 12 0
BBX 14 19 -1 0
BITMAP
000049AA940000
002CFFFFFFC200
02EFFFFFFFFE20
09FFFFFFFFFF90
0EFFFFFFFFFFE0
1FFFFFFFFFFFF0
1FFFFFFFFFFFF1
1FFFFFFFFFFFF1
1FFFFFFFFFFFF1
1FFFFFFFFFFFF1
1FFFFFFFFFFFF1
1FFFFF21DFFFF1
1FFFFF40DFFFF1
1FFFFFB3FFFFF1
0FFFFFDBFFFFF0
0BFFFFFFFFFFB0
03FFFFFFFFFF30
005FFFFFFFE500
00029DEED92000
ENDCHAR
STARTCHAR hyphen
ENCODING 45
SWIDTH 428 0
DWIDTH 12 0
BBX 14 19 -1 0
BITMAP
000049AA940000
002CFFFFFFC200
02EFFFFFFFFE20
09FFFFFFFFFF90
0EFFFFFFFFFFE0
1FFF600006FFF0
1FFFB8888BFFF1
1FFFFFFFFFFFF1
1FFFFFFFFFFFF1
1FFFFFFFFFFFF1
1FFFFFFFFFFFF1
1FFFFFFFFFFFF1
1FFFFFFFFFFFF1
1FFFFFFFFFFFF1
0FFFFFFFFFFFF0
0BFFFFFFFFFFB0
03FFFFFFFFFF30
005FFFFFFFE500
00029DEED92000
ENDCHAR
STARTCHAR period
ENCODING 46
SWIDTH 428 0
DWIDTH 12 0
BBX 14 19 -1 0
BITMAP
000049AA940000
002CFFFFFFC200
02EFFFFFFFFE20
09FFFFFFFFFF90
0EFFFFFFFFFFE0
1FFFFFFFFFFFF0
1FFFFFFFFFFFF1
1FFFFFFFFFFFF1
1FFFFFFFFFFFF1
1FFFFFFFFFFFF1
1FFFFFFFFFFFF1
1FFFFF22FFFFF1
1FFFFF44FFFFF1
1FFFFFFFFFFFF1
0FFFFFFFFFFFF0
0BFFFFFFFFFFB0
03FFFFFFFFFF30
005FFFFFFFE500
00029DEED92000
ENDCHAR
STARTCHAR slash
ENCODING 47
SWIDTH 428 0
DWIDTH 12 0
BBX 14 19 -1 0
BITMAP
000049AA940000
002CFFFEEFC200
02EFFFF16FFE20
09FFFFE09FFF90
0EFFFFB0BFFFE0
1FFFFF90EFFFF0
1FFFFF61FFFFF1
1FFFFF44FFFFF1
1FFFFF16FFFFF1
1FFFFE09FFFFF1
1FFFFB0BFFFFF1
1FFFF90EFFFFF1
1FFFF61FFFFFF1
1FFFFDDFFFFFF1
0FFFFFFFFFFFF0
0BFFFFFFFFFFB0
03FFFFFFFFFF30
005FFFFFFFE500
00029DEED92000
ENDCHAR
STARTCHAR zero
ENCODING 48
SWIDTH 578 0
DWIDTH 16 0
BBX 18 19 -1 0
BITMAP
000049ABBBBB950000
002CFFB88888AFE400
02EFFA00111006FF30
09FFF62FFFFF62FFC0
0EFFF63FFFFF71FFF2
1FFFF63FFFFF71FFF4
1FFFF63FFFFF71FFF4
1FFFF63FFFFF71FFF4
1FFFF63FFFFF71FFF4
1FFFF63FFFFF71FFF4
1FFFF62FFFFF71FFF4
1FFFF804555513FFF4
1FFFFF6333335DFFF4
1FFFFFFFFFFFFFFFF4
0FFFFFFFFFFFFFFFF3
0BFFFFFFFFFFFFFFE0
03FFFFFFFFFFFFFF60
005FFFFFFFFFFFF800
00029DEFFFFFDA3000
ENDCHAR
STARTCHAR one
ENCODING 49
SWIDTH 578 0
DWIDTH 16 0
BBX 18 19 -1 0
BITMAP
000049ABBBBB950000
002CFFFEA7DFFFE400
02EFFFF100CFFFFF30
09FFFFF8A0CFFFFFC0
0EFFFFFFB0CFFFFFF2
1FFFFFFFB0CFFFFFF4
1FFFFFFFB0CFFFFFF4
1FFFFFFFB0CFFFFFF4
1FFFFFFFB0CFFFFFF4
1FFFFFFFB0CFFFFFF4
1FFFFFFFB0CFFFFFF4
1FFFFFFFB0CFFFFFF4
1FFFFFFFC3CFFFFFF4
1FFFFFFFFFFFFFFFF4
0FFFFFFFFFFFFFFFF3
0BFFFFFFFFFFFFFFE0
03FFFFFFFFFFFFFF60
005FFFFFFFFFFFF800
00029DEFFFFFDA3000
ENDCHAR
STARTCHAR two
ENCODING 50
SWIDTH 578 0
DWIDTH 16 0
BBX 18 19 -1 0
BITMAP
000049ABBBBB950000
002CFFB88888BFE400
02EFFA0011100BFF30
09FFF61FFFFF17FFC0
0EFFFFDFFFFF26FFF2
1FFFFFFFFFFF26FFF4
1FFFFFFBAAA808FFF4
1FFFFC1000016EFFF4
1FFFF71DFFFFFFFFF4
1FFFF63FFFFFFFFFF4
1FFFF63FFFFFFFFFF4
1FFFF61666666EFFF4
1FFFFD3333333EFFF4
1FFFFFFFFFFFFFFFF4
0FFFFFFFFFFFFFFFF3
0BFFFFFFFFFFFFFFE0
03FFFFFFFFFFFFFF60
005FFFFFFFFFFFF800
00029DEFFFFFDA3000
ENDCHAR
STARTCHAR three
ENCODING 51
SWIDTH 578 0
DWIDTH 16 0
BBX 18 19 -1 0
BITMAP
000049ABBBBB950000
002CFEA88889DFE400
02EFF40000001DFF30
09FFE08FFFFD09FFC0
0EFFFDEFFFFF08FFF2
1FFFFFFFFFFF08FFF4
1FFFFFF877750BFFF4
1FFFFFF533320CFFF4
1FFFFFFFFFFE09FFF4
1FFFFFFFFFFF08FFF4
1FFFE4AFFFFF08FFF4
1FFFF12666640BFFF4
1FFFFB4333337FFFF4
1FFFFFFFFFFFFFFFF4
0FFFFFFFFFFFFFFFF3
0BFFFFFFFFFFFFFFE0
03FFFFFFFFFFFFFF60
005FFFFFFFFFFFF800
00029DEFFFFFDA3000
ENDCHAR
STARTCHAR four
ENCODING 52
SWIDTH 578 0
DWIDTH 16 0
BBX 18 19 -1 0
BITMAP
000049ABBBBB950000
002CFF8CFFD8EFE400
02EFFE09FFB0CFFF30
09FFFE09FFB0CFFFC0
0EFFFE09FFB0CFFFF2
1FFFFE09FFB0CFFFF4
1FFFFE09FFB0CFFFF4
1FFFFE09FFB0CFFFF4
1FFFFF05BB809AEFF4
1FFFFF80000000BFF4
1FFFFFFEDD90ADEFF4
1FFFFFFFFFB0CFFFF4
1FFFFFFFFFC3DFFFF4
1FFFFFFFFFFFFFFFF4
0FFFFFFFFFFFFFFFF3
0BFFFFFFFFFFFFFFE0
03FFFFFFFFFFFFFF60
005FFFFFFFFFFFF800
00029DEFFFFFDA3000
ENDCHAR
STARTCHAR five
ENCODING 53
SWIDTH 578 0
DWIDTH 16 0
BBX 18 19 -1 0
BITMAP
000049ABBBBB950000
002CFF9888888DE400
02EFF90111111CFF30
09FFF80FFFFFFFFFC0
0EFFF80FFFFFFFFFF2
1FFFF80FEEEEFFFFF4
1FFFF80000001CFFF4
1FFFFC79AAA925FFF4
1FFFFFFFFFFF53FFF4
1FFFFFFFFFFF53FFF4
1FFFFD9FFFFF53FFF4
1FFFFA04666515FFF4
1FFFFF8433335EFFF4
1FFFFFFFFFFFFFFFF4
0FFFFFFFFFFFFFFFF3
0BFFFFFFFFFFFFFFE0
03FFFFFFFFFFFFFF60
005FFFFFFFFFFFF800
00029DEFFFFFDA3000
ENDCHAR
STARTCHAR six
ENCODING 54
SWIDTH 578 0
DWIDTH 16 0
BBX 18 19 -1 0
BITMAP
000049ABBBBB950000
002CFFC98888AEE400
02EFFD1000000DFF30
09FFF90DEEEDCFFFC0
0EFFF80FFFFFFFFFF2
1FFFF80EDDDDFFFFF4
1FFFF800000007FFF4
1FFFF808AAAA50EFF4
1FFFF80FFFFFA0DFF4
1FFFF80FFFFFA0DFF4
1FFFF80EFFFF90DFF4
1FFFFB04666621FFF4
1FFFFF8433334BFFF4
1FFFFFFFFFFFFFFFF4
0FFFFFFFFFFFFFFFF3
0BFFFFFFFFFFFFFFE0
03FFFFFFFFFFFFFF60
005FFFFFFFFFFFF800
00029DEFFFFFDA3000
ENDCHAR
STARTCHAR seven
ENCODING 55
SWIDTH 578 0
DWIDTH 16 0
BBX 18 19 -1 0
BITMAP
000049ABBBBB950000
002CFFD88888AFE400
02EFFFB111105FFF30
09FFFFFFFFC0AFFFC0
0EFFFFFFFF71EFFFF2
1FFFFFFFFF15FFFFF4
1FFFFFFFFB0AFFFFF4
1FFFFFFFF51FFFFFF4
1FFFFFFFE06FFFFFF4
1FFFFFFF90BFFFFFF4
1FFFFFFF42FFFFFFF4
1FFFFFFD07FFFFFFF4
1FFFFFFA3CFFFFFFF4
1FFFFFFFFFFFFFFFF4
0FFFFFFFFFFFFFFFF3
0BFFFFFFFFFFFFFFE0
03FFFFFFFFFFFFFF60
005FFFFFFFFFFFF800
00029DEFFFFFDA3000
ENDCHAR
STARTCHAR eight
ENCODING 56
SWIDTH 578 0
DWIDTH 16 0
BBX 18 19 -1 0
BITMAP
000049ABBBBB950000
002CFFB88888AFE400
02EFF900111007FF30
09FFF53FFFFF52FFC0
0EFFF44FFFFF72FFF2
1FFFF43FFFFF62FFF4
1FFFF704555415FFF4
1FFFF803333305FFF4
1FFFF53FFFFF62FFF4
1FFFF44FFFFF72FFF4
1FFFF43FFFFF62FFF4
1FFFF705555514FFF4
1FFFFE6333335EFFF4
1FFFFFFFFFFFFFFFF4
0FFFFFFFFFFFFFFFF3
0BFFFFFFFFFFFFFFE0
03FFFFFFFFFFFFFF60
005FFFFFFFFFFFF800
00029DEFFFFFDA3000
ENDCHAR
STARTCHAR nine
ENCODING 57
SWIDTH 578 0
DWIDTH 16 0
BBX 18 19 -1 0
BITMAP
000049ABBBBB950000
002CFFA88888AFE400
02EFF701111009FF30
09FFF25FFFFF25FFC0
0EFFF26FFFFF44FFF2
1FFFF26FFFFF44FFF4
1FFFF25EFFFE24FFF4
1FFFF700000004FFF4
1FFFFFB9888934FFF4
1FFFFFFFFFFF44FFF4
1FFFFFFFFFFF34FFF4
1FFFFF33333307FFF4
1FFFFF6333336EFFF4
1FFFFFFFFFFFFFFFF4
0FFFFFFFFFFFFFFFF3
0BFFFFFFFFFFFFFFE0
03FFFFFFFFFFFFFF60
005FFFFFFFFFFFF800
00029DEFFFFFDA3000
ENDCHAR
STARTCHAR colon
ENCODING 58
SWIDTH 428 0
DWIDTH 12 0
BBX 14 19 -1 0
BITMAP
000049AA940000
002CFFFFFFC200
02EFFFFFFFFE20
09FFFFFFFFFF90
0EFFFFFFFFFFE0
1FFFFFFFFFFFF0
1FFFFFFFFFFFF1
1FFFFF33FFFFF1
1FFFFF33FFFFF1
1FFFFFFFFFFFF1
1FFFFFFFFFFFF1
1FFFFF22FFFFF1
1FFFFF44FFFFF1
1FFFFFFFFFFFF1
0FFFFFFFFFFFF0
0BFFFFFFFFFFB0
03FFFFFFFFFF30
005FFFFFFFE500
00029DEED92000
ENDCHAR
STARTCHAR semicolon
ENCODING 59
SWIDTH 428 0
DWIDTH 12 0
BBX 14 19 -1 0
BITMAP
000049AA940000
002CFFFFFFC200
02EFFFFFFFFE20
09FFFFFFFFFF90
0EFFFFFFFFFFE0
1FFFFFFFFFFFF0
1FFFFFFFFFFFF1
1FFFFF62EFFFF1
1FFFFF62EFFFF1
1FFFFFFFFFFFF1
1FFFFFFFFFFFF1
1FFFFF21DFFFF1
1FFFFF40DFFFF1
1FFFFFB3FFFFF1
0FFFFFDBFFFFF0
0BFFFFFFFFFFB0
03FFFFFFFFFF30
005FFFFFFFE500
00029DEED92000
ENDCHAR
STARTCHAR less
ENCODING 60
SWIDTH 482 0
DWIDTH 14 0
BBX 15 21 -1 1
BITMAP
0000014543000000
0004CFFFFFE81000
007FFFFFFFFFD100
04FFFFFFFFFFFB00
0BFFFFFFFFFFFF40
0FFFFFFFFEFFFF70
1FFFFFFF87FFFF90
1FFFFFFA3EFFFF90
1FFFFFB2EFFFFF90
1FFFFD2DFFFFFF90
1FFFE2BFFFFFFF90
1FFFD2DFFFFFFF90
1FFFFB3EFFFFFF90
1FFFFF94FFFFFF90
1FFFFFF75FFFFF90
0FFFFFFF58FFFF80
0DFFFFFFFDFFFF60
07FFFFFFFFFFFE10
00BFFFFFFFFFF500
0019FFFFFFFD4000
0000269A98400000
ENDCHAR
STARTCHAR equal
ENCODING 61
SWIDTH 482 0
DWIDTH 14 0
BBX 15 21 -1 1
BITMAP
0000014543000000
0004BFFFFFE81000
007FFFFFFFFFD200
04FFFFFFFFFFFC00
0BFFFFFFFFFFFF40
0FFFFFFFFFFFFF70
1FFFFFFFFFFFFF90
1FFFFFFFFFFFFF90
1FFFFDCCCCDFFF90
1FFFF844448FFF90
1FFFFFFFFFFFFF90
1FFFFA8888AFFF90
1FFFFB9999BFFF90
1FFFFFFFFFFFFF90
1FFFFFFFFFFFFF90
0FFFFFFFFFFFFF80
0DFFFFFFFFFFFF60
07FFFFFFFFFFFE10
00CFFFFFFFFFF500
0019FFFFFFFD4000
0000279AA8500000
ENDCHAR
STARTCHAR greater
ENCODING 62
SWIDTH 482 0
DWIDTH 14 0
BBX 15 21 -1 1
BITMAP
0000014543000000
0004BFFFFFE81000
007FFFFFFFFFD200
04FFFFFFFFFFFC00
0BFFFFFFFFFFFF40
0FFFFFEFFFFFFF70
1FFFFE2DFFFFFF90
1FFFFFA3EFFFFF90
1FFFFFF84FFFFF90
1FFFFFFF66FFFF90
1FFFFFFFF48FFF90
1FFFFFFFF76FFF90
1FFFFFFF94FFFF90
1FFFFFFB3EFFFF90
1FFFFFC2DFFFFF90
0FFFFE2CFFFFFF80
0DFFFFCFFFFFFF60
07FFFFFFFFFFFE10
00CFFFFFFFFFF500
0019FFFFFFFD4000
0000279AA8500000
ENDCHAR
STARTCHAR question
ENCODING 63
SWIDTH 578 0
DWIDTH 16 0
BBX 18 19 -1 0
BITMAP
000049ABBBBB950000
002CFFFCAAAADFE400
02EFFF9012221BFF30
09FFFF49FFFF66FFC0
0EFFFFFFFFFF75FFF2
1FFFFFFFFFFF75FFF4
1FFFFFFFFFFF56FFF4
1FFFFFFFF4001CFFF4
1FFFFFFFE0ACEFFFF4
1FFFFFFFE0DFFFFFF4
1FFFFFFFF8EFFFFFF4
1FFFFFFFD4CFFFFFF4
1FFFFFFFD5CFFFFFF4
1FFFFFFFFFFFFFFFF4
0FFFFFFFFFFFFFFFF3
0BFFFFFFFFFFFFFFE0
03FFFFFFFFFFFFFF60
005FFFFFFFFFFFF800
00029DEFFFFFDA3000
ENDCHAR
STARTCHAR at
ENCODING 64
SWIDTH 578 0
DWIDTH 16 0
BBX 18 19 -1 0
BITMAP
000049ABBBBB950000
002CFFB86557BFE400
02EFC203677504EF30
09FE15EFFFFFD36FC0
0EFA1FF52139FC1FF2
1FF84FFBCDA0CF1CF4
1FF75FFFFFF1AF2BF4
1FF75FF844509F2AF4
1FF85F8289819F2AF4
1FF84F55FFF19F2AF4
1FF93FC112119F1BF4
1FFC1EFECBE9241EF4
1FFF35DFFFFFCCDFF4
1FFFD30122FFFFFFF4
0FFFFFDCBAFFFFFFF3
0BFFFFFFFFFFFFFFE0
03FFFFFFFFFFFFFF60
005FFFFFFFFFFFF800
00029DEFFFFFDA3000
ENDCHAR
STARTCHAR A
ENCODING 65
SWIDTH 578 0
DWIDTH 16 0
BBX 18 19 -1 0
BITMAP
000049ABBBBB950000
002CFFFA888AEFE400
02EFFF5001004FFF30
09FFFF16FFF70FFFC0
0EFFFE09FFFA0DFFF2
1FFFFD0AFFFB0BFFF4
1FFFFB0CFFFD0AFFF4
1FFFF904555508FFF4
1FFFF805555507FFF4
1FFFF61FFFFF25FFF4
1FFFF43FFFFF43FFF4
1FFFF34FFFFF52FFF4
1FFFF47FFFFF83FFF4
1FFFFFFFFFFFFFFFF4
0FFFFFFFFFFFFFFFF3
0BFFFFFFFFFFFFFFE0
03FFFFFFFFFFFFFF60
005FFFFFFFFFFFF800
00029DEFFFFFDA3000
ENDCHAR
STARTCHAR B
ENCODING 66
SWIDTH 578 0
DWIDTH 16 0
BBX 18 19 -1 0
BITMAP
000049ABBBBB950000
002CF9888889DFE400
02EFF30111101DFF30
09FFF35FFFFB0AFFC0
0EFFF35FFFFD09FFF2
1FFFF35FFFFD09FFF4
1FFFF32555523DFFF4
1FFFF31444423DFFF4
1FFFF35FFFFE09FFF4
1FFFF35FFFFE09FFF4
1FFFF35FFFFE09FFF4
1FFFF32555530CFFF4
1FFFF53333349FFFF4
1FFFFFFFFFFFFFFFF4
0FFFFFFFFFFFFFFFF3
0BFFFFFFFFFFFFFFE0
03FFFFFFFFFFFFFF60
005FFFFFFFFFFFF800
00029DEFFFFFDA3000
ENDCHAR
STARTCHAR C
ENCODING 67
SWIDTH 578 0
DWIDTH 16 0
BBX 18 19 -1 0
BITMAP
000049ABBBBB950000
002CFFA88888CFE400
02EFF90011108FFF30
09FFF43FFFFFEFFFC0
0EFFF44FFFFFFFFFF2
1FFFF44FFFFFFFFFF4
1FFFF44FFFFFFFFFF4
1FFFF44FFFFFFFFFF4
1FFFF44FFFFFFFFFF4
1FFFF44FFFFFFFFFF4
1FFFF44FFFFFFFFFF4
1FFFF6055554AFFFF4
1FFFFE633334AFFFF4
1FFFFFFFFFFFFFFFF4
0FFFFFFFFFFFFFFFF3
0BFFFFFFFFFFFFFFE0
03FFFFFFFFFFFFFF60
005FFFFFFFFFFFF800
00029DEFFFFFDA3000
ENDCHAR
STARTCHAR D
ENCODING 68
SWIDTH 578 0
DWIDTH 16 0
BBX 18 19 -1 0
BITMAP
000049ABBBBB950000
002CFB8888889EE400
02EFF701111004FF30
09FFF71FFFFF70FFC0
0EFFF71FFFFF90EFF2
1FFFF71FFFFF90EFF4
1FFFF71FFFFF90EFF4
1FFFF71FFFFF90EFF4
1FFFF71FFFFF90EFF4
1FFFF71FFFFF90EFF4
1FFFF71FFFFF80EFF4
1FFFF705555522FFF4
1FFFF93333334CFFF4
1FFFFFFFFFFFFFFFF4
0FFFFFFFFFFFFFFFF3
0BFFFFFFFFFFFFFFE0
03FFFFFFFFFFFFFF60
005FFFFFFFFFFFF800
00029DEFFFFFDA3000
ENDCHAR
STARTCHAR E
ENCODING 69
SWIDTH 578 0
DWIDTH 16 0
BBX 18 19 -1 0
BITMAP
000049ABBBBB950000
002CFFB888888EE400
02EFFF8011111CFF30
09FFFF81FFFFFFFFC0
0EFFFF81FFFFFFFFF2
1FFFFF81FFFFFFFFF4
1FFFFF817777BFFFF4
1FFFFF8022229FFFF4
1FFFFF81FFFFFFFFF4
1FFFFF81FFFFFFFFF4
1FFFFF81FFFFFFFFF4
1FFFFF8055555BFFF4
1FFFFF9333333AFFF4
1FFFFFFFFFFFFFFFF4
0FFFFFFFFFFFFFFFF3
0BFFFFFFFFFFFFFFE0
03FFFFFFFFFFFFFF60
005FFFFFFFFFFFF800
00029DEFFFFFDA3000
ENDCHAR
STARTCHAR F
ENCODING 70
SWIDTH 578 0
DWIDTH 16 0
BBX 18 19 -1 0
BITMAP
000049ABBBBB950000
002CFFB888888DE400
02EFFF6011111CFF30
09FFFF62FFFFFFFFC0
0EFFFF62FFFFFFFFF2
1FFFFF62FFFFFFFFF4
1FFFFF603333AFFFF4
1FFFFF615555BFFFF4
1FFFFF62FFFFFFFFF4
1FFFFF62FFFFFFFFF4
1FFFFF62FFFFFFFFF4
1FFFFF62FFFFFFFFF4
1FFFFF84FFFFFFFFF4
1FFFFFFFFFFFFFFFF4
0FFFFFFFFFFFFFFFF3
0BFFFFFFFFFFFFFFE0
03FFFFFFFFFFFFFF60
005FFFFFFFFFFFF800
00029DEFFFFFDA3000
ENDCHAR
STARTCHAR G
ENCODING 71
SWIDTH 578 0
DWIDTH 16 0
BBX 18 19 -1 0
BITMAP
000049ABBBBB950000
002CFFD988889DE400
02EFFE2011110BFF30
09FFFB0BFFFFEFFFC0
0EFFFA0DFFFFFFFFF2
1FFFFA0DFFFFFFFFF4
1FFFFA0DFFFFFFFFF4
1FFFFA0DFF1000FFF4
1FFFFA0DFF8840FFF4
1FFFFA0DFFFF80FFF4
1FFFFA0CFFFF80FFF4
1FFFFD03555512FFF4
1FFFFFA433335CFFF4
1FFFFFFFFFFFFFFFF4
0FFFFFFFFFFFFFFFF3
0BFFFFFFFFFFFFFFE0
03FFFFFFFFFFFFFF60
005FFFFFFFFFFFF800
00029DEFFFFFDA3000
ENDCHAR
STARTCHAR H
ENCODING 72
SWIDTH 578 0
DWIDTH 16 0
BBX 18 19 -1 0
BITMAP
000049ABBBBB950000
002CFB8FFFFFC8D400
02EFF71FFFFF90EF30
09FFF71FFFFF90EFC0
0EFFF71FFFFF90EFF2
1FFFF71FFFFF90EFF4
1FFFF704444430EFF4
1FFFF704444430EFF4
1FFFF71FFFFF90EFF4
1FFFF71FFFFF90EFF4
1FFFF71FFFFF90EFF4
1FFFF71FFFFF90EFF4
1FFFF94FFFFFA3EFF4
1FFFFFFFFFFFFFFFF4
0FFFFFFFFFFFFFFFF3
0BFFFFFFFFFFFFFFE0
03FFFFFFFFFFFFFF60
005FFFFFFFFFFFF800
00029DEFFFFFDA3000
ENDCHAR
STARTCHAR I
ENCODING 73
SWIDTH 578 0
DWIDTH 16 0
BBX 18 19 -1 0
BITMAP
000049ABBBBB950000
002CFE88888889E400
02EFFD11100114FF30
09FFFFFFF26FFFFFC0
0EFFFFFFF26FFFFFF2
1FFFFFFFF26FFFFFF4
1FFFFFFFF26FFFFFF4
1FFFFFFFF26FFFFFF4
1FFFFFFFF26FFFFFF4
1FFFFFFFF26FFFFFF4
1FFFFFFFF26FFFFFF4
1FFFFE55512557FFF4
1FFFFE33333335FFF4
1FFFFFFFFFFFFFFFF4
0FFFFFFFFFFFFFFFF3
0BFFFFFFFFFFFFFFE0
03FFFFFFFFFFFFFF60
005FFFFFFFFFFFF800
00029DEFFFFFDA3000
ENDCHAR
STARTCHAR J
ENCODING 74
SWIDTH 578 0
DWIDTH 16 0
BBX 18 19 -1 0
BITMAP
000049ABBBBB950000
002CFFFFFFA9FFE400
02EFFFFFFF54FFFF30
09FFFFFFFF54FFFFC0
0EFFFFFFFF54FFFFF2
1FFFFFFFFF54FFFFF4
1FFFFFFFFF54FFFFF4
1FFFFFFFFF54FFFFF4
1FFFFFFFFF54FFFFF4
1FFFFFFFFF54FFFFF4
1FFFFFFFFF44FFFFF4
1FFFFFF75504FFFFF4
1FFFFFF5336EFFFFF4
1FFFFFFFFFFFFFFFF4
0FFFFFFFFFFFFFFFF3
0BFFFFFFFFFFFFFFE0
03FFFFFFFFFFFFFF60
005FFFFFFFFFFFF800
00029DEFFFFFDA3000
ENDCHAR
STARTCHAR K
ENCODING 75
SWIDTH 578 0
DWIDTH 16 0
BBX 18 19 -1 0
BITMAP
000049ABBBBB950000
002CFFC8FFFFF6C400
02EFFF90FFFF40AF30
09FFFF90FFF409FFC0
0EFFFF90FE409FFFF2
1FFFFF90E409FFFFF4
1FFFFF9040AFFFFFF4
1FFFFF90008FFFFFF4
1FFFFF90C60AFFFFF4
1FFFFF90FF40BFFFF4
1FFFFF90FFE21DFFF4
1FFFFF90FFFD12DFF4
1FFFFFA3FFFFC3DFF4
1FFFFFFFFFFFFFFFF4
0FFFFFFFFFFFFFFFF3
0BFFFFFFFFFFFFFFE0
03FFFFFFFFFFFFFF60
005FFFFFFFFFFFF800
00029DEFFFFFDA3000
ENDCHAR
STARTCHAR L
ENCODING 76
SWIDTH 578 0
DWIDTH 16 0
BBX 18 19 -1 0
BITMAP
000049ABBBBB950000
002CFFF9BFFFFFE400
02EFFFF26FFFFFFF30
09FFFFF26FFFFFFFC0
0EFFFFF26FFFFFFFF2
1FFFFFF26FFFFFFFF4
1FFFFFF26FFFFFFFF4
1FFFFFF26FFFFFFFF4
1FFFFFF26FFFFFFFF4
1FFFFFF26FFFFFFFF4
1FFFFFF26FFFFFFFF4
1FFFFFF225557FFFF4
1FFFFFF533335FFFF4
1FFFFFFFFFFFFFFFF4
0FFFFFFFFFFFFFFFF3
0BFFFFFFFFFFFFFFE0
03FFFFFFFFFFFFFF60
005FFFFFFFFFFFF800
00029DEFFFFFDA3000
ENDCHAR
STARTCHAR M
ENCODING 77
SWIDTH 578 0
DWIDTH 16 0
BBX 18 19 -1 0
BITMAP
000049ABBBBB950000
002CFB889E988BE400
02EFA001030100AF30
09FF80FFC0BFF17FC0
0EFF80FFC0BFF17FF2
1FFF80FFC0BFF17FF4
1FFF80FFC0BFF17FF4
1FFF80FFC0BFF17FF4
1FFF80FFC2CFF17FF4
1FFF80FFFFFFF17FF4
1FFF80FFFFFFF17FF4
1FFF80FFFFFFF17FF4
1FFF93FFFFFFF49FF4
1FFFFFFFFFFFFFFFF4
0FFFFFFFFFFFFFFFF3
0BFFFFFFFFFFFFFFE0
03FFFFFFFFFFFFFF60
005FFFFFFFFFFFF800
00029DEFFFFFDA3000
ENDCHAR
STARTCHAR N
ENCODING 78
SWIDTH 578 0
DWIDTH 16 0
BBX 18 19 -1 0
BITMAP
000049ABBBBB950000
002CFDA88888AFE400
02EFF600111009FF30
09FFF62FFFFF34FFC0
0EFFF62FFFFF44FFF2
1FFFF62FFFFF44FFF4
1FFFF62FFFFF44FFF4
1FFFF62FFFFF44FFF4
1FFFF62FFFFF44FFF4
1FFFF62FFFFF44FFF4
1FFFF62FFFFF44FFF4
1FFFF62FFFFF44FFF4
1FFFF85FFFFF66FFF4
1FFFFFFFFFFFFFFFF4
0FFFFFFFFFFFFFFFF3
0BFFFFFFFFFFFFFFE0
03FFFFFFFFFFFFFF60
005FFFFFFFFFFFF800
00029DEFFFFFDA3000
ENDCHAR
STARTCHAR O
ENCODING 79
SWIDTH 578 0
DWIDTH 16 0
BBX 18 19 -1 0
BITMAP
000049ABBBBB950000
002CFFC888889EE400
02EFFB00111005FF30
09FFF71FFFFF70FFC0
0EFFF72FFFFF80FFF2
1FFFF72FFFFF80FFF4
1FFFF72FFFFF80FFF4
1FFFF72FFFFF80FFF4
1FFFF72FFFFF80FFF4
1FFFF72FFFFF80FFF4
1FFFF71FFFFF80FFF4
1FFFF904555512FFF4
1FFFFF7433335CFFF4
1FFFFFFFFFFFFFFFF4
0FFFFFFFFFFFFFFFF3
0BFFFFFFFFFFFFFFE0
03FFFFFFFFFFFFFF60
005FFFFFFFFFFFF800
00029DEFFFFFDA3000
ENDCHAR
STARTCHAR P
ENCODING 80
SWIDTH 578 0
DWIDTH 16 0
BBX 18 19 -1 0
BITMAP
000049ABBBBB950000
002CFF988888BFE400
02EFFF20111009FF30
09FFFF26FFFF35FFC0
0EFFFF26FFFF44FFF2
1FFFFF26FFFF44FFF4
1FFFFF26FFFF34FFF4
1FFFFF22555407FFF4
1FFFFF2144446EFFF4
1FFFFF26FFFFFFFFF4
1FFFFF26FFFFFFFFF4
1FFFFF26FFFFFFFFF4
1FFFFF58FFFFFFFFF4
1FFFFFFFFFFFFFFFF4
0FFFFFFFFFFFFFFFF3
0BFFFFFFFFFFFFFFE0
03FFFFFFFFFFFFFF60
005FFFFFFFFFFFF800
00029DEFFFFFDA3000
ENDCHAR
STARTCHAR Q
ENCODING 81
SWIDTH 578 0
DWIDTH 16 0
BBX 18 19 -1 0
BITMAP
000049ABBBBB950000
002CFFC888889EE400
02EFFC00111004FF30
09FFF81EFFFF70FFC0
0EFFF71FFFFF90EFF2
1FFFF71FFFFF90EFF4
1FFFF71FFFFF90EFF4
1FFFF71FFFFF90EFF4
1FFFF71FFFFF90EFF4
1FFFF71FFFEF90EFF4
1FFFF71FF63F80EFF4
1FFFFA04530422FFF4
1FFFFF7433105CFFF4
1FFFFFFFFFB0AFFFF4
0FFFFFFFFFF5AFFFF3
0BFFFFFFFFFFFFFFE0
03FFFFFFFFFFFFFF60
005FFFFFFFFFFFF800
00029DEFFFFFDA3000
ENDCHAR
STARTCHAR R
ENCODING 82
SWIDTH 578 0
DWIDTH 16 0
BBX 18 19 -1 0
BITMAP
000049ABBBBB950000
002CFD888889EFE400
02EFFB0111103FFF30
09FFFB0CFFF80DFFC0
0EFFFB0CFFFC0CFFF2
1FFFFB0CFFFB0CFFF4
1FFFFB0ACCC53FFFF4
1FFFFB000003DFFFF4
1FFFFB09BBB50EFFF4
1FFFFB0CFFFD0AFFF4
1FFFFB0CFFFD0AFFF4
1FFFFB0CFFFD0AFFF4
1FFFFB3DFFFE3BFFF4
1FFFFFFFFFFFFFFFF4
0FFFFFFFFFFFFFFFF3
0BFFFFFFFFFFFFFFE0
03FFFFFFFFFFFFFF60
005FFFFFFFFFFFF800
00029DEFFFFFDA3000
ENDCHAR
STARTCHAR S
ENCODING 83
SWIDTH 578 0
DWIDTH 16 0
BBX 18 19 -1 0
BITMAP
000049ABBBBB950000
002CFFD988889DE400
02EFFE2011110CFF30
09FFFC0AFFFFEFFFC0
0EFFFC0CFFFFFFFFF2
1FFFFC0BFFFFFFFFF4
1FFFFE0255568FFFF4
1FFFFFB5333307FFF4
1FFFFFFFFFFF44FFF4
1FFFFFFFFFFF54FFF4
1FFFFFFFFFFF44FFF4
1FFFFF85555506FFF4
1FFFFF7333336EFFF4
1FFFFFFFFFFFFFFFF4
0FFFFFFFFFFFFFFFF3
0BFFFFFFFFFFFFFFE0
03FFFFFFFFFFFFFF60
005FFFFFFFFFFFF800
00029DEFFFFFDA3000
ENDCHAR
STARTCHAR T
ENCODING 84
SWIDTH 578 0
DWIDTH 16 0
BBX 18 19 -1 0
BITMAP
000049ABBBBB950000
002CFE88888889E400
02EFFD11100114FF30
09FFFFFFF26FFFFFC0
0EFFFFFFF26FFFFFF2
1FFFFFFFF26FFFFFF4
1FFFFFFFF26FFFFFF4
1FFFFFFFF26FFFFFF4
1FFFFFFFF26FFFFFF4
1FFFFFFFF26FFFFFF4
1FFFFFFFF26FFFFFF4
1FFFFFFFF26FFFFFF4
1FFFFFFFF48FFFFFF4
1FFFFFFFFFFFFFFFF4
0FFFFFFFFFFFFFFFF3
0BFFFFFFFFFFFFFFE0
03FFFFFFFFFFFFFF60
005FFFFFFFFFFFF800
00029DEFFFFFDA3000
ENDCHAR
STARTCHAR U
ENCODING 85
SWIDTH 578 0
DWIDTH 16 0
BBX 18 19 -1 0
BITMAP
000049ABBBBB950000
002CFA9FFFFFB8E400
02EFF63FFFFF71FF30
09FFF63FFFFF71FFC0
0EFFF63FFFFF71FFF2
1FFFF63FFFFF71FFF4
1FFFF63FFFFF71FFF4
1FFFF63FFFFF71FFF4
1FFFF63FFFFF71FFF4
1FFFF63FFFFF71FFF4
1FFFF62FFFFF71FFF4
1FFFF804555513FFF4
1FFFFF6333335DFFF4
1FFFFFFFFFFFFFFFF4
0FFFFFFFFFFFFFFFF3
0BFFFFFFFFFFFFFFE0
03FFFFFFFFFFFFFF60
005FFFFFFFFFFFF800
00029DEFFFFFDA3000
ENDCHAR
STARTCHAR V
ENCODING 86
SWIDTH 578 0
DWIDTH 16 0
BBX 18 19 -1 0
BITMAP
000049ABBBBB950000
002CFC9FFFFFBAE400
02EFF60EFFFF33FF30
09FFFA0AFFFE07FFC0
0EFFFE06FFFA0BFFF2
1FFFFF33FFF60EFFF4
1FFFFF70EFF24FFFF4
1FFFFFB0AFE08FFFF4
1FFFFFF16FA0CFFFF4
1FFFFFF43F61FFFFF4
1FFFFFF80E25FFFFF4
1FFFFFFD0409FFFFF4
1FFFFFFF937FFFFFF4
1FFFFFFFFFFFFFFFF4
0FFFFFFFFFFFFFFFF3
0BFFFFFFFFFFFFFFE0
03FFFFFFFFFFFFFF60
005FFFFFFFFFFFF800
00029DEFFFFFDA3000
ENDCHAR
STARTCHAR W
ENCODING 87
SWIDTH 578 0
DWIDTH 16 0
BBX 18 19 -1 0
BITMAP
000049ABBBBB950000
002CABFFFEFFFA9400
02EF15FFA0CFF42F30
09FF34FF809FF24FC0
0EFF42FF506FF16FF2
1FFF61FF304FF07FF4
1FFF80EF031FD09FF4
1FFF90DC080DC0BFF4
1FFFB0CA0C0BA0CFF4
1FFFD0A71F0890EFF4
1FFFE0954F2680FFF4
1FFFF1316F5122FFF4
1FFFFB35EFE44CFFF4
1FFFFFFFFFFFFFFFF4
0FFFFFFFFFFFFFFFF3
0BFFFFFFFFFFFFFFE0
03FFFFFFFFFFFFFF60
005FFFFFFFFFFFF800
00029DEFFFFFDA3000
ENDCHAR
STARTCHAR X
ENCODING 88
SWIDTH 578 0
DWIDTH 16 0
BBX 18 19 -1 0
BITMAP
000049ABBBBB950000
002CFEAFFFFFDBD400
02EFFB09FFFF32FF30
09FFFF51EFF90BFFC0
0EFFFFE16FD15FFFF2
1FFFFFF90C51EFFFF4
1FFFFFFF3109FFFFF4
1FFFFFFF600CFFFFF4
1FFFFFFC0723FFFFF4
1FFFFFF32FA09FFFF4
1FFFFF90CFF51DFFF4
1FFFFD16FFFE15FFF4
1FFFFC5EFFFFA6FFF4
1FFFFFFFFFFFFFFFF4
0FFFFFFFFFFFFFFFF3
0BFFFFFFFFFFFFFFE0
03FFFFFFFFFFFFFF60
005FFFFFFFFFFFF800
00029DEFFFFFDA3000
ENDCHAR
STARTCHAR Y
ENCODING 89
SWIDTH 578 0
DWIDTH 16 0
BBX 18 19 -1 0
BITMAP
000049ABBBBB950000
002CFD8CFFFF89E400
02EFFE15FFFC08FF30
09FFFF60EFF60EFFC0
0EFFFFC08FE16FFFF2
1FFFFFF42F90CFFFF4
1FFFFFFA0B23FFFFF4
1FFFFFFF220AFFFFF4
1FFFFFFF801FFFFFF4
1FFFFFFFE07FFFFFF4
1FFFFFFFF08FFFFFF4
1FFFFFFFF08FFFFFF4
1FFFFFFFF3AFFFFFF4
1FFFFFFFFFFFFFFFF4
0FFFFFFFFFFFFFFFF3
0BFFFFFFFFFFFFFFE0
03FFFFFFFFFFFFFF60
005FFFFFFFFFFFF800
00029DEFFFFFDA3000
ENDCHAR
STARTCHAR Z
ENCODING 90
SWIDTH 578 0
DWIDTH 16 0
BBX 18 19 -1 0
BITMAP
000049ABBBBB950000
002CFFA88888DFE400
02EFFF6111105FFF30
09FFFFFFFFA0AFFFC0
0EFFFFFFFF23FFFFF2
1FFFFFFFF90CFFFFF4
1FFFFFFFE15FFFFFF4
1FFFFFFF70DFFFFFF4
1FFFFFFD07FFFFFFF4
1FFFFFF51EFFFFFFF4
1FFFFFC08FFFFFFFF4
1FFFFF4056666EFFF4
1FFFFF8333333EFFF4
1FFFFFFFFFFFFFFFF4
0FFFFFFFFFFFFFFFF3
0BFFFFFFFFFFFFFFE0
03FFFFFFFFFFFFFF60
005FFFFFFFFFFFF800
00029DEFFFFFDA3000
ENDCHAR
STARTCHAR bracketleft
ENCODING 91
SWIDTH 484 0
DWIDTH 14 0
BBX 15 19 -1 0
BITMAP
000049ABBA720000
002CFFC22EFF8000
02EFFFB05EFFF900
09FFFFB0CFFFFF30
0EFFFFB0CFFFFF80
1FFFFFB0CFFFFF90
1FFFFFB0CFFFFF90
1FFFFFB0CFFFFF90
1FFFFFB0CFFFFF90
1FFFFFB0CFFFFF90
1FFFFFB0CFFFFF90
1FFFFFB0CFFFFF90
1FFFFFB09FFFFF90
1FFFFFB00EFFFF90
0FFFFFEDDFFFFF80
0BFFFFFFFFFFFF40
03FFFFFFFFFFFC00
005FFFFFFFFFC100
00029DEFFEB60000
ENDCHAR
STARTCHAR backslash
ENCODING 92
SWIDTH 516 0
DWIDTH 14 0
BBX 16 19 -1 0
BITMAP
000049ABBBA71000
002CFFE8DFFFF700
02EFFFE08FFFFF70
09FFFFF26FFFFFF1
0EFFFFF43FFFFFF6
1FFFFFF71FFFFFF7
1FFFFFF90DFFFFF8
1FFFFFFC0BFFFFF8
1FFFFFFE08FFFFF8
1FFFFFFF26FFFFF8
1FFFFFFF43FFFFF8
1FFFFFFF71FFFFF8
1FFFFFFFA3EFFFF8
1FFFFFFFFFFFFFF7
0FFFFFFFFFFFFFF6
0BFFFFFFFFFFFFF3
03FFFFFFFFFFFFA0
005FFFFFFFFFFB10
00029DEFFFEB5000
ENDCHAR
STARTCHAR bracketright
ENCODING 93
SWIDTH 484 0
DWIDTH 14 0
BBX 15 19 -1 0
BITMAP
000049ABBA720000
002CFF924FFF8000
02EFFFB22FFFF900
09FFFFF62FFFFF30
0EFFFFF62FFFFF80
1FFFFFF62FFFFF90
1FFFFFF62FFFFF90
1FFFFFF62FFFFF90
1FFFFFF62FFFFF90
1FFFFFF62FFFFF90
1FFFFFF62FFFFF90
1FFFFFF62FFFFF90
1FFFFFD42FFFFF90
1FFFFF802FFFFF90
0FFFFFEDDFFFFF80
0BFFFFFFFFFFFF40
03FFFFFFFFFFFC00
005FFFFFFFFFC100
00029DEFFEB60000
ENDCHAR
STARTCHAR asciicircum
ENCODING 94
SWIDTH 355 0
DWIDTH 10 0
BBX 10 11 0 6
BITMAP
0006A96000
00AFFFF900
03FFFFFF30
0AFF55FF90
1FFD44DFE1
7FF7CB7FF6
CFF6FF5FFC
FFCCFFCDFF
EFFFFFFFFD
4EFFDDFFE4
0154004410
ENDCHAR
STARTCHAR underscore
ENCODING 95
SWIDTH 428 0
DWIDTH 12 0
BBX 14 19 -1 0
BITMAP
000049AA940000
002CFFFFFFC200
02EFFFFFFFFE20
09FFFFFFFFFF90
0EFFFFFFFFFFE0
1FFFFFFFFFFFF0
1FFFFFFFFFFFF1
1FFFFFFFFFFFF1
1FFFFFFFFFFFF1
1FFFFFFFFFFFF1
1FFFFFFFFFFFF1
1FFFFFFFFFFFF1
1FFFCCCCCCFFF1
1FFD000000DFF1
0FFEBBBBBBEFF0
0BFFFFFFFFFFB0
03FFFFFFFFFF30
005FFFFFFFE500
00029DEED92000
ENDCHAR
STARTCHAR grave
ENCODING 96
SWIDTH 308 0
DWIDTH 9 0
BBX 9 10 0 0
BITMAP
0035630000
2CFFFFB000
DFFFFFF600
FFF34FFA00
CFFA0EFE00
4FFF2AFF40
0AFF85FF80
02FFE8FFA0
008FFFFF50
001AAAA600
ENDCHAR
STARTCHAR a
ENCODING 97
SWIDTH 578 0
DWIDTH 16 0
BBX 18 19 -1 0
BITMAP
000049ABBBBB950000
002CFF988889EFE400
02EFFF1111104FFF30
09FFFFEFFFF72FFFC0
0EFFFFFFFFF82FFFF2
1FFFFFFFFFF82FFFF4
1FFFFFFDDDD82FFFF4
1FFFF90000002FFFF4
1FFFF24AAAA52FFFF4
1FFFF07FFFF82FFFF4
1FFFF17FFFF82FFFF4
1FFFF31555522FFFF4
1FFFFD5333355FFFF4
1FFFFFFFFFFFFFFFF4
0FFFFFFFFFFFFFFFF3
0BFFFFFFFFFFFFFFE0
03FFFFFFFFFFFFFF60
005FFFFFFFFFFFF800
00029DEFFFFFDA3000
ENDCHAR
STARTCHAR b
ENCODING 98
SWIDTH 578 0
DWIDTH 16 0
BBX 18 19 -1 0
BITMAP
000049ABBBBB950000
002CF9888889DFE400
02EFF30111101DFF30
09FFF35FFFFB0AFFC0
0EFFF35FFFFD09FFF2
1FFFF35FFFFD09FFF4
1FFFF32555523DFFF4
1FFFF31444423DFFF4
1FFFF35FFFFE09FFF4
1FFFF35FFFFE09FFF4
1FFFF35FFFFE09FFF4
1FFFF32555530CFFF4
1FFFF53333349FFFF4
1FFFFFFFFFFFFFFFF4
0FFFFFFFFFFFFFFFF3
0BFFFFFFFFFFFFFFE0
03FFFFFFFFFFFFFF60
005FFFFFFFFFFFF800
00029DEFFFFFDA3000
ENDCHAR
STARTCHAR c
ENCODING 99
SWIDTH 578 0
DWIDTH 16 0
BBX 18 19 -1 0
BITMAP
000049ABBBBB950000
002CFFA88888CFE400
02EFF90011108FFF30
09FFF43FFFFFEFFFC0
0EFFF44FFFFFFFFFF2
1FFFF44FFFFFFFFFF4
1FFFF44FFFFFFFFFF4
1FFFF44FFFFFFFFFF4
1FFFF44FFFFFFFFFF4
1FFFF44FFFFFFFFFF4
1FFFF44FFFFFFFFFF4
1FFFF6055554AFFFF4
1FFFFE633334AFFFF4
1FFFFFFFFFFFFFFFF4
0FFFFFFFFFFFFFFFF3
0BFFFFFFFFFFFFFFE0
03FFFFFFFFFFFFFF60
005FFFFFFFFFFFF800
00029DEFFFFFDA3000
ENDCHAR
STARTCHAR d
ENCODING 100
SWIDTH 578 0
DWIDTH 16 0
BBX 18 19 -1 0
BITMAP
000049ABBBBB950000
002CFB8888889EE400
02EFF701111004FF30
09FFF71FFFFF70FFC0
0EFFF71FFFFF90EFF2
1FFFF71FFFFF90EFF4
1FFFF71FFFFF90EFF4
1FFFF71FFFFF90EFF4
1FFFF71FFFFF90EFF4
1FFFF71FFFFF90EFF4
1FFFF71FFFFF80EFF4
1FFFF705555522FFF4
1FFFF93333334CFFF4
1FFFFFFFFFFFFFFFF4
0FFFFFFFFFFFFFFFF3
0BFFFFFFFFFFFFFFE0
03FFFFFFFFFFFFFF60
005FFFFFFFFFFFF800
00029DEFFFFFDA3000
ENDCHAR
STARTCHAR e
ENCODING 101
SWIDTH 578 0
DWIDTH 16 0
BBX 18 19 -1 0
BITMAP
000049ABBBBB950000
002CFFA88889FFE400
02EFF70111105FFF30
09FFF35FFFF71FFFC0
0EFFF26FFFF80FFFF2
1FFFF24BBBB60FFFF4
1FFFF20000000FFFF4
1FFFF25DDDDDDFFFF4
1FFFF26FFFFFFFFFF4
1FFFF26FFFFFFFFFF4
1FFFF33DEEECEFFFF4
1FFFF80000008FFFF4
1FFFFFCA999ADFFFF4
1FFFFFFFFFFFFFFFF4
0FFFFFFFFFFFFFFFF3
0BFFFFFFFFFFFFFFE0
03FFFFFFFFFFFFFF60
005FFFFFFFFFFFF800
00029DEFFFFFDA3000
ENDCHAR
STARTCHAR f
ENCODING 102
SWIDTH 578 0
DWIDTH 16 0
BBX 18 19 -1 0
BITMAP
000049ABBBBB950000
002CFFB888888DE400
02EFFF6011111CFF30
09FFFF62FFFFFFFFC0
0EFFFF62FFFFFFFFF2
1FFFFF62FFFFFFFFF4
1FFFFF603333AFFFF4
1FFFFF615555BFFFF4
1FFFFF62FFFFFFFFF4
1FFFFF62FFFFFFFFF4
1FFFFF62FFFFFFFFF4
1FFFFF62FFFFFFFFF4
1FFFFF84FFFFFFFFF4
1FFFFFFFFFFFFFFFF4
0FFFFFFFFFFFFFFFF3
0BFFFFFFFFFFFFFFE0
03FFFFFFFFFFFFFF60
005FFFFFFFFFFFF800
00029DEFFFFFDA3000
ENDCHAR
STARTCHAR g
ENCODING 103
SWIDTH 578 0
DWIDTH 16 0
BBX 18 19 -1 0
BITMAP
000049ABBBBB950000
002CFFD988889DE400
02EFFE2011110BFF30
09FFFB0BFFFFEFFFC0
0EFFFA0DFFFFFFFFF2
1FFFFA0DFFFFFFFFF4
1FFFFA0DFFFFFFFFF4
1FFFFA0DFF1000FFF4
1FFFFA0DFF8840FFF4
1FFFFA0DFFFF80FFF4
1FFFFA0CFFFF80FFF4
1FFFFD03555512FFF4
1FFFFFA433335CFFF4
1FFFFFFFFFFFFFFFF4
0FFFFFFFFFFFFFFFF3
0BFFFFFFFFFFFFFFE0
03FFFFFFFFFFFFFF60
005FFFFFFFFFFFF800
00029DEFFFFFDA3000
ENDCHAR
STARTCHAR h
ENCODING 104
SWIDTH 578 0
DWIDTH 16 0
BBX 18 19 -1 0
BITMAP
000049ABBBBB950000
002CFB8FFFFFC8D400
02EFF71FFFFF90EF30
09FFF71FFFFF90EFC0
0EFFF71FFFFF90EFF2
1FFFF71FFFFF90EFF4
1FFFF704444430EFF4
1FFFF704444430EFF4
1FFFF71FFFFF90EFF4
1FFFF71FFFFF90EFF4
1FFFF71FFFFF90EFF4
1FFFF71FFFFF90EFF4
1FFFF94FFFFFA3EFF4
1FFFFFFFFFFFFFFFF4
0FFFFFFFFFFFFFFFF3
0BFFFFFFFFFFFFFFE0
03FFFFFFFFFFFFFF60
005FFFFFFFFFFFF800
00029DEFFFFFDA3000
ENDCHAR
STARTCHAR i
ENCODING 105
SWIDTH 578 0
DWIDTH 16 0
BBX 18 19 -1 0
BITMAP
000049ABBBBB950000
002CFE88888889E400
02EFFD11100114FF30
09FFFFFFF26FFFFFC0
0EFFFFFFF26FFFFFF2
1FFFFFFFF26FFFFFF4
1FFFFFFFF26FFFFFF4
1FFFFFFFF26FFFFFF4
1FFFFFFFF26FFFFFF4
1FFFFFFFF26FFFFFF4
1FFFFFFFF26FFFFFF4
1FFFFE55512557FFF4
1FFFFE33333335FFF4
1FFFFFFFFFFFFFFFF4
0FFFFFFFFFFFFFFFF3
0BFFFFFFFFFFFFFFE0
03FFFFFFFFFFFFFF60
005FFFFFFFFFFFF800
00029DEFFFFFDA3000
ENDCHAR
STARTCHAR j
ENCODING 106
SWIDTH 578 0
DWIDTH 16 0
BBX 18 19 -1 0
BITMAP
000049ABBBBB950000
002CFFFFFFA9FFE400
02EFFFFFFF54FFFF30
09FFFFFFFF54FFFFC0
0EFFFFFFFF54FFFFF2
1FFFFFFFFF54FFFFF4
1FFFFFFFFF54FFFFF4
1FFFFFFFFF54FFFFF4
1FFFFFFFFF54FFFFF4
1FFFFFFFFF54FFFFF4
1FFFFFFFFF44FFFFF4
1FFFFFF75504FFFFF4
1FFFFFF5336EFFFFF4
1FFFFFFFFFFFFFFFF4
0FFFFFFFFFFFFFFFF3
0BFFFFFFFFFFFFFFE0
03FFFFFFFFFFFFFF60
005FFFFFFFFFFFF800
00029DEFFFFFDA3000
ENDCHAR
STARTCHAR k
ENCODING 107
SWIDTH 578 0
DWIDTH 16 0
BBX 18 19 -1 0
BITMAP
000049ABBBBB950000
002CFFC8FFFFF6C400
02EFFF90FFFF40AF30
09FFFF90FFF409FFC0
0EFFFF90FE409FFFF2
1FFFFF90E409FFFFF4
1FFFFF9040AFFFFFF4
1FFFFF90008FFFFFF4
1FFFFF90C60AFFFFF4
1FFFFF90FF40BFFFF4
1FFFFF90FFE21DFFF4
1FFFFF90FFFD12DFF4
1FFFFFA3FFFFC3DFF4
1FFFFFFFFFFFFFFFF4
0FFFFFFFFFFFFFFFF3
0BFFFFFFFFFFFFFFE0
03FFFFFFFFFFFFFF60
005FFFFFFFFFFFF800
00029DEFFFFFDA3000
ENDCHAR
STARTCHAR l
ENCODING 108
SWIDTH 578 0
DWIDTH 16 0
BBX 18 19 -1 0
BITMAP
000049ABBBBB950000
002CFFF9BFFFFFE400
02EFFFF26FFFFFFF30
09FFFFF26FFFFFFFC0
0EFFFFF26FFFFFFFF2
1FFFFFF26FFFFFFFF4
1FFFFFF26FFFFFFFF4
1FFFFFF26FFFFFFFF4
1FFFFFF26FFFFFFFF4
1FFFFFF26FFFFFFFF4
1FFFFFF26FFFFFFFF4
1FFFFFF225557FFFF4
1FFFFFF533335FFFF4
1FFFFFFFFFFFFFFFF4
0FFFFFFFFFFFFFFFF3
0BFFFFFFFFFFFFFFE0
03FFFFFFFFFFFFFF60
005FFFFFFFFFFFF800
00029DEFFFFFDA3000
ENDCHAR
STARTCHAR m
ENCODING 109
SWIDTH 578 0
DWIDTH 16 0
BBX 18 19 -1 0
BITMAP
000049ABBBBB950000
002CFB889E988BE400
02EFA001030100AF30
09FF80FFC0BFF17FC0
0EFF80FFC0BFF17FF2
1FFF80FFC0BFF17FF4
1FFF80FFC0BFF17FF4
1FFF80FFC0BFF17FF4
1FFF80FFC2CFF17FF4
1FFF80FFFFFFF17FF4
1FFF80FFFFFFF17FF4
1FFF80FFFFFFF17FF4
1FFF93FFFFFFF49FF4
1FFFFFFFFFFFFFFFF4
0FFFFFFFFFFFFFFFF3
0BFFFFFFFFFFFFFFE0
03FFFFFFFFFFFFFF60
005FFFFFFFFFFFF800
00029DEFFFFFDA3000
ENDCHAR
STARTCHAR n
ENCODING 110
SWIDTH 578 0
DWIDTH 16 0
BBX 18 19 -1 0
BITMAP
000049ABBBBB950000
002CFDA88888AFE400
02EFF600111009FF30
09FFF62FFFFF34FFC0
0EFFF62FFFFF44FFF2
1FFFF62FFFFF44FFF4
1FFFF62FFFFF44FFF4
1FFFF62FFFFF44FFF4
1FFFF62FFFFF44FFF4
1FFFF62FFFFF44FFF4
1FFFF62FFFFF44FFF4
1FFFF62FFFFF44FFF4
1FFFF85FFFFF66FFF4
1FFFFFFFFFFFFFFFF4
0FFFFFFFFFFFFFFFF3
0BFFFFFFFFFFFFFFE0
03FFFFFFFFFFFFFF60
005FFFFFFFFFFFF800
00029DEFFFFFDA3000
ENDCHAR
STARTCHAR o
ENCODING 111
SWIDTH 578 0
DWIDTH 16 0
BBX 18 19 -1 0
BITMAP
000049ABBBBB950000
002CFFC888889EE400
02EFFB00111005FF30
09FFF71FFFFF70FFC0
0EFFF72FFFFF80FFF2
1FFFF72FFFFF80FFF4
1FFFF72FFFFF80FFF4
1FFFF72FFFFF80FFF4
1FFFF72FFFFF80FFF4
1FFFF72FFFFF80FFF4
1FFFF71FFFFF80FFF4
1FFFF904555512FFF4
1FFFFF7433335CFFF4
1FFFFFFFFFFFFFFFF4
0FFFFFFFFFFFFFFFF3
0BFFFFFFFFFFFFFFE0
03FFFFFFFFFFFFFF60
005FFFFFFFFFFFF800
00029DEFFFFFDA3000
ENDCHAR
STARTCHAR p
ENCODING 112
SWIDTH 578 0
DWIDTH 16 0
BBX 18 19 -1 0
BITMAP
000049ABBBBB950000
002CFF988888BFE400
02EFFF20111009FF30
09FFFF26FFFF35FFC0
0EFFFF26FFFF44FFF2
1FFFFF26FFFF44FFF4
1FFFFF26FFFF34FFF4
1FFFFF22555407FFF4
1FFFFF2144446EFFF4
1FFFFF26FFFFFFFFF4
1FFFFF26FFFFFFFFF4
1FFFFF26FFFFFFFFF4
1FFFFF58FFFFFFFFF4
1FFFFFFFFFFFFFFFF4
0FFFFFFFFFFFFFFFF3
0BFFFFFFFFFFFFFFE0
03FFFFFFFFFFFFFF60
005FFFFFFFFFFFF800
00029DEFFFFFDA3000
ENDCHAR
STARTCHAR q
ENCODING 113
SWIDTH 578 0
DWIDTH 16 0
BBX 18 19 -1 0
BITMAP
000049ABBBBB950000
002CFFC888889EE400
02EFFC00111004FF30
09FFF81EFFFF70FFC0
0EFFF71FFFFF90EFF2
1FFFF71FFFFF90EFF4
1FFFF71FFFFF90EFF4
1FFFF71FFFFF90EFF4
1FFFF71FFFFF90EFF4
1FFFF71FFFEF90EFF4
1FFFF71FF63F80EFF4
1FFFFA04530422FFF4
1FFFFF7433105CFFF4
1FFFFFFFFFB0AFFFF4
0FFFFFFFFFF5AFFFF3
0BFFFFFFFFFFFFFFE0
03FFFFFFFFFFFFFF60
005FFFFFFFFFFFF800
00029DEFFFFFDA3000
ENDCHAR
STARTCHAR r
ENCODING 114
SWIDTH 578 0
DWIDTH 16 0
BBX 18 19 -1 0
BITMAP
000049ABBBBB950000
002CFD888889EFE400
02EFFB0111103FFF30
09FFFB0CFFF80DFFC0
0EFFFB0CFFFC0CFFF2
1FFFFB0CFFFB0CFFF4
1FFFFB0ACCC53FFFF4
1FFFFB000003DFFFF4
1FFFFB09BBB50EFFF4
1FFFFB0CFFFD0AFFF4
1FFFFB0CFFFD0AFFF4
1FFFFB0CFFFD0AFFF4
1FFFFB3DFFFE3BFFF4
1FFFFFFFFFFFFFFFF4
0FFFFFFFFFFFFFFFF3
0BFFFFFFFFFFFFFFE0
03FFFFFFFFFFFFFF60
005FFFFFFFFFFFF800
00029DEFFFFFDA3000
ENDCHAR
STARTCHAR s
ENCODING 115
SWIDTH 578 0
DWIDTH 16 0
BBX 18 19 -1 0
BITMAP
000049ABBBBB950000
002CFFD988889DE400
02EFFE2011110CFF30
09FFFC0AFFFFEFFFC0
0EFFFC0CFFFFFFFFF2
1FFFFC0BFFFFFFFFF4
1FFFFE0255568FFFF4
1FFFFFB5333307FFF4
1FFFFFFFFFFF44FFF4
1FFFFFFFFFFF54FFF4
1FFFFFFFFFFF44FFF4
1FFFFF85555506FFF4
1FFFFF7333336EFFF4
1FFFFFFFFFFFFFFFF4
0FFFFFFFFFFFFFFFF3
0BFFFFFFFFFFFFFFE0
03FFFFFFFFFFFFFF60
005FFFFFFFFFFFF800
00029DEFFFFFDA3000
ENDCHAR
STARTCHAR t
ENCODING 116
SWIDTH 578 0
DWIDTH 16 0
BBX 18 19 -1 0
BITMAP
000049ABBBBB950000
002CFE88888889E400
02EFFD11100114FF30
09FFFFFFF26FFFFFC0
0EFFFFFFF26FFFFFF2
1FFFFFFFF26FFFFFF4
1FFFFFFFF26FFFFFF4
1FFFFFFFF26FFFFFF4
1FFFFFFFF26FFFFFF4
1FFFFFFFF26FFFFFF4
1FFFFFFFF26FFFFFF4
1FFFFFFFF26FFFFFF4
1FFFFFFFF48FFFFFF4
1FFFFFFFFFFFFFFFF4
0FFFFFFFFFFFFFFFF3
0BFFFFFFFFFFFFFFE0
03FFFFFFFFFFFFFF60
005FFFFFFFFFFFF800
00029DEFFFFFDA3000
ENDCHAR
STARTCHAR u
ENCODING 117
SWIDTH 578 0
DWIDTH 16 0
BBX 18 19 -1 0
BITMAP
000049ABBBBB950000
002CFA9FFFFFB8E400
02EFF63FFFFF71FF30
09FFF63FFFFF71FFC0
0EFFF63FFFFF71FFF2
1FFFF63FFFFF71FFF4
1FFFF63FFFFF71FFF4
1FFFF63FFFFF71FFF4
1FFFF63FFFFF71FFF4
1FFFF63FFFFF71FFF4
1FFFF62FFFFF71FFF4
1FFFF804555513FFF4
1FFFFF6333335DFFF4
1FFFFFFFFFFFFFFFF4
0FFFFFFFFFFFFFFFF3
0BFFFFFFFFFFFFFFE0
03FFFFFFFFFFFFFF60
005FFFFFFFFFFFF800
00029DEFFFFFDA3000
ENDCHAR
STARTCHAR v
ENCODING 118
SWIDTH 578 0
DWIDTH 16 0
BBX 18 19 -1 0
BITMAP
000049ABBBBB950000
002CFC9FFFFFBAE400
02EFF60EFFFF33FF30
09FFFA0AFFFE07FFC0
0EFFFE06FFFA0BFFF2
1FFFFF33FFF60EFFF4
1FFFFF70EFF24FFFF4
1FFFFFB0AFE08FFFF4
1FFFFFF16FA0CFFFF4
1FFFFFF43F61FFFFF4
1FFFFFF80E25FFFFF4
1FFFFFFD0409FFFFF4
1FFFFFFF937FFFFFF4
1FFFFFFFFFFFFFFFF4
0FFFFFFFFFFFFFFFF3
0BFFFFFFFFFFFFFFE0
03FFFFFFFFFFFFFF60
005FFFFFFFFFFFF800
00029DEFFFFFDA3000
ENDCHAR
STARTCHAR w
ENCODING 119
SWIDTH 578 0
DWIDTH 16 0
BBX 18 19 -1 0
BITMAP
000049ABBBBB950000
002CABFFFEFFFA9400
02EF15FFA0CFF42F30
09FF34FF809FF24FC0
0EFF42FF506FF16FF2
1FFF61FF304FF07FF4
1FFF80EF031FD09FF4
1FFF90DC080DC0BFF4
1FFFB0CA0C0BA0CFF4
1FFFD0A71F0890EFF4
1FFFE0954F2680FFF4
1FFFF1316F5122FFF4
1FFFFB35EFE44CFFF4
1FFFFFFFFFFFFFFFF4
0FFFFFFFFFFFFFFFF3
0BFFFFFFFFFFFFFFE0
03FFFFFFFFFFFFFF60
005FFFFFFFFFFFF800
00029DEFFFFFDA3000
ENDCHAR
STARTCHAR x
ENCODING 120
SWIDTH 578 0
DWIDTH 16 0
BBX 18 19 -1 0
BITMAP
000049ABBBBB950000
002CFEAFFFFFDBD400
02EFFB09FFFF32FF30
09FFFF51EFF90BFFC0
0EFFFFE16FD15FFFF2
1FFFFFF90C51EFFFF4
1FFFFFFF3109FFFFF4
1FFFFFFF600CFFFFF4
1FFFFFFC0723FFFFF4
1FFFFFF32FA09FFFF4
1FFFFF90CFF51DFFF4
1FFFFD16FFFE15FFF4
1FFFFC5EFFFFA6FFF4
1FFFFFFFFFFFFFFFF4
0FFFFFFFFFFFFFFFF3
0BFFFFFFFFFFFFFFE0
03FFFFFFFFFFFFFF60
005FFFFFFFFFFFF800
00029DEFFFFFDA3000
ENDCHAR
STARTCHAR y
ENCODING 121
SWIDTH 578 0
DWIDTH 16 0
BBX 18 19 -1 0
BITMAP
000049ABBBBB950000
002CFD8CFFFF89E400
02EFFE15FFFC08FF30
09FFFF60EFF60EFFC0
0EFFFFC08FE16FFFF2
1FFFFFF42F90CFFFF4
1FFFFFFA0B23FFFFF4
1FFFFFFF220AFFFFF4
1FFFFFFF801FFFFFF4
1FFFFFFFE07FFFFFF4
1FFFFFFFF08FFFFFF4
1FFFFFFFF08FFFFFF4
1FFFFFFFF3AFFFFFF4
1FFFFFFFFFFFFFFFF4
0FFFFFFFFFFFFFFFF3
0BFFFFFFFFFFFFFFE0
03FFFFFFFFFFFFFF60
005FFFFFFFFFFFF800
00029DEFFFFFDA3000
ENDCHAR
STARTCHAR z
ENCODING 122
SWIDTH 578 0
DWIDTH 16 0
BBX 18 19 -1 0
BITMAP
000049ABBBBB950000
002CFFA88888DFE400
02EFFF6111105FFF30
09FFFFFFFFA0AFFFC0
0EFFFFFFFF23FFFFF2
1FFFFFFFF90CFFFFF4
1FFFFFFFE15FFFFFF4
1FFFFFFF70DFFFFFF4
1FFFFFFD07FFFFFFF4
1FFFFFF51EFFFFFFF4
1FFFFFC08FFFFFFFF4
1FFFFF4056666EFFF4
1FFFFF8333333EFFF4
1FFFFFFFFFFFFFFFF4
0FFFFFFFFFFFFFFFF3
0BFFFFFFFFFFFFFFE0
03FFFFFFFFFFFFFF60
005FFFFFFFFFFFF800
00029DEFFFFFDA3000
ENDCHAR
STARTCHAR braceleft
ENCODING 123
SWIDTH 484 0
DWIDTH 14 0
BBX 15 19 -1 0
BITMAP
000049ABBA720000
002CFFC433EF8000
02EFFF2255EFF900
09FFFF09FFFFFF30
0EFFFF0AFFFFFF80
1FFFFF0AFFFFFF90
1FFFEB0AFFFFFF90
1FF4000DFFFFFF90
1FFA960BFFFFFF90
1FFFFE09FFFFFF90
1FFFFE09FFFFFF90
1FFFFE09FFFFFF90
1FFFFF05BBFFFF90
1FFFFF7000EFFF90
0FFFFFFDCCFFFF80
0BFFFFFFFFFFFF40
03FFFFFFFFFFFC00
005FFFFFFFFFC100
00029DEFFEB60000
ENDCHAR
STARTCHAR bar
ENCODING 124
SWIDTH 484 0
DWIDTH 14 0
BBX 15 19 -1 0
BITMAP
000049A27A720000
002CFFF39FFF8000
02EFFFF39FFFF900
09FFFFF39FFFFF30
0EFFFFF39FFFFF80
1FFFFFF39FFFFF90
1FFFFFF39FFFFF90
1FFFFFF39FFFFF90
1FFFFFF39FFFFF90
1FFFFFF39FFFFF90
1FFFFFF39FFFFF90
1FFFFFF39FFFFF90
1FFFFFF39FFFFF90
1FFFFFF5AFFFFF90
0FFFFFFFFFFFFF80
0BFFFFFFFFFFFF40
03FFFFFFFFFFFC00
005FFFFFFFFFC100
00029DEFFEB60000
ENDCHAR
STARTCHAR braceright
ENCODING 125
SWIDTH 484 0
DWIDTH 14 0
BBX 15 19 -1 0
BITMAP
000049ABBA720000
002CF9337FFF8000
02EFFA5408FFF900
09FFFFFF36FFFF30
0EFFFFFF36FFFF80
1FFFFFFF36FFFF90
1FFFFFFF43EEFF90
1FFFFFFF7000AF90
1FFFFFFF5189DF90
1FFFFFFF35FFFF90
1FFFFFFF35FFFF90
1FFFFFFF35FFFF90
1FFFFDBA17FFFF90
1FFFF8001CFFFF90
0FFFFDCCEFFFFF80
0BFFFFFFFFFFFF40
03FFFFFFFFFFFC00
005FFFFFFFFFC100
00029DEFFEB60000
ENDCHAR
STARTCHAR asciitilde
ENCODING 126
SWIDTH 578 0
DWIDTH 16 0
BBX 18 19 -1 0
BITMAP
000049ABBBBB950000
002CFFFFFFFFFFE400
02EFFFFFFFFFFFFF30
09FFFFFFFFFFFFFFC0
0EFFFFCCEFFE7DFFF2
1FFFF80003890DFFF4
1FFFF53EA5103FFFF4
1FFFFDDFFFFDFFFFF4
1FFFFFFFFFFFFFFFF4
1FFFFFFFFFFFFFFFF4
1FFFFFFFFFFFFFFFF4
1FFFFFFFFFFFFFFFF4
1FFFFFFFFFFFFFFFF4
1FFFFFFFFFFFFFFFF4
0FFFFFFFFFFFFFFFF3
0BFFFFFFFFFFFFFFE0
03FFFFFFFFFFFFFF60
005FFFFFFFFFFFF800
00029DEFFFFFDA3000
ENDCHAR
STARTCHAR uni00A0
ENCODING 160
SWIDTH 151 0
DWIDTH 4 0
BBX 1 1 0 0
BITMAP
00
ENDCHAR
STARTCHAR exclamdown
ENCODING 161
SWIDTH 424 0
DWIDTH 12 0
BBX 13 19 -1 0
BITMAP
000049AA830000
002CFFA9FFB200
02EFFF54FFFD10
09FFFFFFFFFF70
0EFFFFA5FFFFC0
1FFFFFA4FFFFE0
1FFFFFA4FFFFE0
1FFFFFA4FFFFE0
1FFFFFA4FFFFE0
1FFFFFA4FFFFE0
1FFFFFA4FFFFE0
1FFFFFA4FFFFE0
1FFFFFA4FFFFE0
1FFFFFFFFFFFE0
0FFFFFFFFFFFD0
0BFFFFFFFFFF90
04FFFFFFFFFE20
006FFFFFFFE400
00029DFEC81000
ENDCHAR
STARTCHAR cent
ENCODING 162
SWIDTH 578 0
DWIDTH 16 0
BBX 18 19 -1 0
BITMAP
000049ABBABB950000
002CFFFFE0FFFFE400
02EFFFFFC0DEFFFF30
09FFFF800000BFFFC0
0EFFFF14A0A9EFFFF2
1FFFFF09E0FFFFFFF4
1FFFFF09E0FFFFFFF4
1FFFFF09E0FFFFFFF4
1FFFFF09E0FFFFFFF4
1FFFFF09E0FFFFFFF4
1FFFFF16C0CBFFFFF4
1FFFFF600000CFFFF4
1FFFFFFCA0ACEFFFF4
1FFFFFFFE0FFFFFFF4
0FFFFFFFFCFFFFFFF3
0BFFFFFFFFFFFFFFE0
03FFFFFFFFFFFFFF60
005FFFFFFFFFFFF800
00029DEFFFFFDA3000
ENDCHAR
STARTCHAR sterling
ENCODING 163
SWIDTH 578 0
DWIDTH 16 0
BBX 18 19 -1 0
BITMAP
000049ABBBBB950000
002CFFFE988BFFE400
02EFFFE20100AFFF30
09FFFFD0AFF17FFFC0
0EFFFFD0AFF58FFFF2
1FFFFFD0AFFFFFFFF4
1FFFFFB09DDEFFFFF4
1FFFFD101114FFFFF4
1FFFFFD0AFFFFFFFF4
1FFFFFD0AFFFFFFFF4
1FFFFFD0AFFFFFFFF4
1FFFFFD04555AFFFF4
1FFFFFD333339FFFF4
1FFFFFFFFFFFFFFFF4
0FFFFFFFFFFFFFFFF3
0BFFFFFFFFFFFFFFE0
03FFFFFFFFFFFFFF60
005FFFFFFFFFFFF800
00029DEFFFFFDA3000
ENDCHAR
STARTCHAR currency
ENCODING 164
SWIDTH 578 0
DWIDTH 16 0
BBX 18 19 -1 0
BITMAP
000049ABBBBB950000
002CFFDFFFFFEEE400
02EFFA19888936FF30
09FFFF4144412EFFC0
0EFFFF57FFFA1FFFF2
1FFFFF57FFFA1FFFF4
1FFFFF57FFFA1FFFF4
1FFFFF57FFFA1FFFF4
1FFFFF6299943FFFF4
1FFFFC13222309FFF4
1FFFFD6FFFFF9AFFF4
1FFFFFFFFFFFFFFFF4
1FFFFFFFFFFFFFFFF4
1FFFFFFFFFFFFFFFF4
0FFFFFFFFFFFFFFFF3
0BFFFFFFFFFFFFFFE0
03FFFFFFFFFFFFFF60
005FFFFFFFFFFFF800
00029DEFFFFFDA3000
ENDCHAR
STARTCHAR yen
ENCODING 165
SWIDTH 578 0
DWIDTH 16 0
BBX 18 19 -1 0
BITMAP
000049ABBBBB950000
002CF99FFFFC8DE400
02EFF80CFFF51EFF30
09FFFE06FFD06FFFC0
0EFFFF51EF80DFFFF2
1FFFFFB09F24FFFFF4
1FFFFFF33A0BFFFFF4
1FFFFFF9022FFFFFF4
1FFFFFB60037FFFFF4
1FFFFFA53056FFFFF4
1FFFFF800000FFFFF4
1FFFFFEE71EEFFFFF4
1FFFFFFF94FFFFFFF4
1FFFFFFFFFFFFFFFF4
0FFFFFFFFFFFFFFFF3
0BFFFFFFFFFFFFFFE0
03FFFFFFFFFFFFFF60
005FFFFFFFFFFFF800
00029DEFFFFFDA3000
ENDCHAR
STARTCHAR brokenbar
ENCODING 166
SWIDTH 484 0
DWIDTH 14 0
BBX 15 19 -1 0
BITMAP
000049ABBA720000
002CFFF8BFFF8000
02EFFFF17FFFF900
09FFFFF17FFFFF30
0EFFFFF17FFFFF80
1FFFFFF17FFFFF90
1FFFFFFCDFFFFF90
1FFFFFFCDFFFFF90
1FFFFFF17FFFFF90
1FFFFFF17FFFFF90
1FFFFFF17FFFFF90
1FFFFFF17FFFFF90
1FFFFFF48FFFFF90
1FFFFFFFFFFFFF90
0FFFFFFFFFFFFF80
0BFFFFFFFFFFFF40
03FFFFFFFFFFFC00
005FFFFFFFFFC100
00029DEFFEB60000
ENDCHAR
STARTCHAR section
ENCODING 167
SWIDTH 578 0
DWIDTH 16 0
BBX 18 19 -1 0
BITMAP
000049ABBBBB950000
002CFFFBAAAABFE400
02EFFF4133331EFF30
09FFFE0DFFFFFFFFC0
0EFFFE0DFFFFFFFFF2
1FFFFF23667DFFFFF4
1FFFFFD06734FFFFF4
1FFFFFD0EFB1FFFFF4
1FFFFFE09D83FFFFF4
1FFFFFF810009FFFF4
1FFFFFFFFFF82FFFF4
1FFFFFFFFFFB2FFFF4
1FFFFEDEEEE83FFFF4
1FFFFB000000AFFFF4
0FFFFFEDDDDFFFFFF3
0BFFFFFFFFFFFFFFE0
03FFFFFFFFFFFFFF60
005FFFFFFFFFFFF800
00029DEFFFFFDA3000
ENDCHAR
STARTCHAR dieresis
ENCODING 168
SWIDTH 388 0
DWIDTH 11 0
BBX 11 9 0 0
BITMAP
000001000000
017CFFFC6000
1CFFFFFFFB10
AFFFFFFFFF80
FFC6BF86FFD0
FFA08F30FFD0
CFECEFDCFF90
4FFFFFFFFE20
037777777200
ENDCHAR
STARTCHAR copyright
ENCODING 169
SWIDTH 578 0
DWIDTH 16 0
BBX 18 19 -1 0
BITMAP
000049ABBBBB950000
002CFFFC878CFFE400
02EFFC3489834DFF30
09FFA2BFDDDEA2CFC0
0EFD2DF22222FB2FF2
1FF78FD2FFFFFF69F4
1FF2EFC2FFFFFFB4F4
1FF1FFC2FFFFFFE2F4
1FF1FFC2FFFFFFE2F4
1FF3DFC2FFFFFFB5F4
1FF86FD1BCBBFF4AF4
1FFE2BF74335F93FF4
1FFFC29FFFFE72DFF4
1FFFFD5256516EFFF4
0FFFFFFEBABEFFFFF3
0BFFFFFFFFFFFFFFE0
03FFFFFFFFFFFFFF60
005FFFFFFFFFFFF800
00029DEFFFFFDA3000
ENDCHAR
STARTCHAR ordfeminine
ENCODING 170
SWIDTH 578 0
DWIDTH 16 0
BBX 18 19 -1 0
BITMAP
000049ABBBBB950000
002CFFF98889EFE400
02EFFFF111105FFF30
09FFFFFEFFF70FFFC0
0EFFFFFFFFF80FFFF2
1FFFFFFCAAA70FFFF4
1FFFFF7000000FFFF4
1FFFFF25DDD70FFFF4
1FFFFF17FFF80FFFF4
1FFFFF3166622FFFF4
1FFFFFD43224CFFFF4
1FFFFFFFFFFFFFFFF4
1FFFFFFFFFFFFFFFF4
1FFFFFFFFFFFFFFFF4
0FFFFFFFFFFFFFFFF3
0BFFFFFFFFFFFFFFE0
03FFFFFFFFFFFFFF60
005FFFFFFFFFFFF800
00029DEFFFFFDA3000
ENDCHAR
STARTCHAR guillemotleft
ENCODING 171
SWIDTH 578 0
DWIDTH 16 0
BBX 18 19 -1 0
BITMAP
000049ABBBBB950000
002CFFFFFFFFFFE400
02EFFFFFEFFFEFFF30
09FFFFFF3DF78FFFC0
0EFFFFF77FB3FFFFF2
1FFFFFB3FD2DFFFFF4
1FFFFE2CF3AFFFFFF4
1FFFF58F76FFFFFFF4
1FFFF4AF58FFFFFFF4
1FFFFD2DE2CFFFFFF4
1FFFFF94FC2EFFFFF4
1FFFFFF59F95FFFFF4
1FFFFFFE2DF59FFFF4
1FFFFFFFDFFEDFFFF4
0FFFFFFFFFFFFFFFF3
0BFFFFFFFFFFFFFFE0
03FFFFFFFFFFFFFF60
005FFFFFFFFFFFF800
00029DEFFFFFDA3000
ENDCHAR
STARTCHAR uni00AD
ENCODING 173
SWIDTH 428 0
DWIDTH 12 0
BBX 14 19 -1 0
BITMAP
000049AA940000
002CFFFFFFC200
02EFFFFFFFFE20
09FFFFFFFFFF90
0EFFFFFFFFFFE0
1FFF600006FFF0
1FFFB8888BFFF1
1FFFFFFFFFFFF1
1FFFFFFFFFFFF1
1FFFFFFFFFFFF1
1FFFFFFFFFFFF1
1FFFFFFFFFFFF1
1FFFFFFFFFFFF1
1FFFFFFFFFFFF1
0FFFFFFFFFFFF0
0BFFFFFFFFFFB0
03FFFFFFFFFF30
005FFFFFFFE500
00029DEED92000
ENDCHAR
STARTCHAR registered
ENCODING 174
SWIDTH 578 0
DWIDTH 16 0
BBX 18 19 -1 0
BITMAP
000049ABBBBB950000
002CFFFC878CFFE400
02EFFC3489834DFF30
09FFA2BCCCDEA2CFC0
0EFD2DE03322FB2FF2
1FF78FE1FFF2CF69F4
1FF2EFE1FFF3CFB4F4
1FF1FFE08875FFE2F4
1FF1FFE07764EFE2F4
1FF3DFE1FFF4BFB5F4
1FF86FE1FFF4BF4AF4
1FFE2BE4FFF7C93FF4
1FFFC29FFFFE72DFF4
1FFFFD5256516EFFF4
0FFFFFFEBABEFFFFF3
0BFFFFFFFFFFFFFFE0
03FFFFFFFFFFFFFF60
005FFFFFFFFFFFF800
00029DEFFFFFDA3000
ENDCHAR
STARTCHAR macron
ENCODING 175
SWIDTH 428 0
DWIDTH 12 0
BBX 12 9 0 0
BITMAP
000012210000
006CFFFFC600
1CFFFFFFFFB1
9FFFFFFFFFF9
EFFBAAAADFFE
FFF400009FFF
CFFDDDDDEFFC
5FFFFFFFFFF4
06EFFFFFFE50
ENDCHAR
STARTCHAR degree
ENCODING 176
SWIDTH 428 0
DWIDTH 12 0
BBX 14 19 -1 0
BITMAP
000049AA940000
002CFEBBEFC200
02EFC1111CFE20
09FF83FF38FF90
0EFF83FF38FFE0
1FFFC1110CFFF0
1FFFFDAADFFFF1
1FFFFFFFFFFFF1
1FFFFFFFFFFFF1
1FFFFFFFFFFFF1
1FFFFFFFFFFFF1
1FFFFFFFFFFFF1
1FFFFFFFFFFFF1
1FFFFFFFFFFFF1
0FFFFFFFFFFFF0
0BFFFFFFFFFFB0
03FFFFFFFFFF30
005FFFFFFFE500
00029DEED92000
ENDCHAR
STARTCHAR plusminus
ENCODING 177
SWIDTH 428 0
DWIDTH 12 0
BBX 14 19 -1 0
BITMAP
000049AA940000
002CFFA9FFC200
02EFFF63FFFE20
09FFFF63FFFF90
0EFC3310339FE0
1FFC662166BFF0
1FFFFF63FFFFF1
1FFFFF63FFFFF1
1FFFFFCCFFFFF1
1FFF955559FFF1
1FFF822228FFF1
1FFFFFFFFFFFF1
1FFFFFFFFFFFF1
1FFFFFFFFFFFF1
0FFFFFFFFFFFF0
0BFFFFFFFFFFB0
03FFFFFFFFFF30
005FFFFFFFE500
00029DEED92000
ENDCHAR
STARTCHAR uni00B2
ENCODING 178
SWIDTH 578 0
DWIDTH 16 0
BBX 18 19 -1 0
BITMAP
000049ABBBBB950000
002CFFFB889DFFE400
02EFFFA00102EFFF30
09FFFF84FFB0CFFFC0
0EFFFFFE9740DFFFF2
1FFFFFB00149FFFFF4
1FFFFF62EFFFFFFFF4
1FFFFF617779FFFFF4
1FFFFFC22226FFFFF4
1FFFFFFFFFFFFFFFF4
1FFFFFFFFFFFFFFFF4
1FFFFFFFFFFFFFFFF4
1FFFFFFFFFFFFFFFF4
1FFFFFFFFFFFFFFFF4
0FFFFFFFFFFFFFFFF3
0BFFFFFFFFFFFFFFE0
03FFFFFFFFFFFFFF60
005FFFFFFFFFFFF800
00029DEFFFFFDA3000
ENDCHAR
STARTCHAR uni00B3
ENCODING 179
SWIDTH 578 0
DWIDTH 16 0
BBX 18 19 -1 0
BITMAP
000049ABBBBB950000
002CFFFD9889EFE400
02EFFFD101103FFF30
09FFFFC6DFF90DFFC0
0EFFFFFFE7731FFFF2
1FFFFFFFD5521FFFF4
1FFFFFD9EFFA0DFFF4
1FFFFFB046620FFFF4
1FFFFFF83223AFFFF4
1FFFFFFFFFFFFFFFF4
1FFFFFFFFFFFFFFFF4
1FFFFFFFFFFFFFFFF4
1FFFFFFFFFFFFFFFF4
1FFFFFFFFFFFFFFFF4
0FFFFFFFFFFFFFFFF3
0BFFFFFFFFFFFFFFE0
03FFFFFFFFFFFFFF60
005FFFFFFFFFFFF800
00029DEFFFFFDA3000
ENDCHAR
STARTCHAR acute
ENCODING 180
SWIDTH 308 0
DWIDTH 9 0
BBX 9 10 0 0
BITMAP
0014641000
03EFFFF900
0BFFFFFF70
1FFD08FFA0
6FF91EFF60
AFF47FFD00
EFE1DFF500
FFD9FFB000
BFFFFF2000
19AAA60000
ENDCHAR
STARTCHAR uni00B5
ENCODING 181
SWIDTH 578 0
DWIDTH 16 0
BBX 18 19 -1 0
BITMAP
000049ABBBBB950000
002CF8CFFFFF9BE400
02EFF09FFFFF26FF30
09FFF09FFFFF26FFC0
0EFFF09FFFFF26FFF2
1FFFF09FFFFF26FFF4
1FFFF09FFFFF26FFF4
1FFFF09FFFFF26FFF4
1FFFF09FFFFF26FFF4
1FFFF09FFFFF26FFF4
1FFFF08FFFFF17FFF4
1FFFF015555409FFF4
1FFFF03333347FFFF4
1FFFF09FFFFFFFFFF4
0FFFF6BFFFFFFFFFF3
0BFFFFFFFFFFFFFFE0
03FFFFFFFFFFFFFF60
005FFFFFFFFFFFF800
00029DEFFFFFDA3000
ENDCHAR
STARTCHAR paragraph
ENCODING 182
SWIDTH 578 0
DWIDTH 16 0
BBX 18 19 -1 0
BITMAP
000049ABBBBB950000
002CFFECCCCCCFE400
02EFFB0000244FFF30
09FFF600007D4FFFC0
0EFFF500007D4FFFF2
1FFFF500007D4FFFF4
1FFFF800007D4FFFF4
1FFFFF97757D4FFFF4
1FFFFFFFFA7D4FFFF4
1FFFFFFFFA7D4FFFF4
1FFFFFFFFA7D4FFFF4
1FFFFFFFFA7D4FFFF4
1FFFFFFFFDBEAFFFF4
1FFFFFFFFFFFFFFFF4
0FFFFFFFFFFFFFFFF3
0BFFFFFFFFFFFFFFE0
03FFFFFFFFFFFFFF60
005FFFFFFFFFFFF800
00029DEFFFFFDA3000
ENDCHAR
STARTCHAR periodcentered
ENCODING 183
SWIDTH 428 0
DWIDTH 12 0
BBX 14 19 -1 0
BITMAP
000049AA940000
002CFFFFFFC200
02EFFFFFFFFE20
09FFFFFFFFFF90
0EFFFFFFFFFFE0
1FFFFF12FFFFF0
1FFFFF55FFFFF1
1FFFFFFFFFFFF1
1FFFFFFFFFFFF1
1FFFFFFFFFFFF1
1FFFFFFFFFFFF1
1FFFFFFFFFFFF1
1FFFFFFFFFFFF1
1FFFFFFFFFFFF1
0FFFFFFFFFFFF0
0BFFFFFFFFFFB0
03FFFFFFFFFF30
005FFFFFFFE500
00029DEED92000
ENDCHAR
STARTCHAR cedilla
ENCODING 184
SWIDTH 101 0
DWIDTH 3 0
BBX 3 6 0 -5
BITMAP
0010
39C0
EB70
F400
AFD0
0340
ENDCHAR
STARTCHAR uni00B9
ENCODING 185
SWIDTH 578 0
DWIDTH 16 0
BBX 18 19 -1 0
BITMAP
000049ABBBBB950000
002CFFFEA7DFFFE400
02EFFFF100CFFFFF30
09FFFFF8A0CFFFFFC0
0EFFFFFFB0CFFFFFF2
1FFFFFFFB0CFFFFFF4
1FFFFFFFB0CFFFFFF4
1FFFFFFFB0CFFFFFF4
1FFFFFFFC2CFFFFFF4
1FFFFFFFFFFFFFFFF4
1FFFFFFFFFFFFFFFF4
1FFFFFFFFFFFFFFFF4
1FFFFFFFFFFFFFFFF4
1FFFFFFFFFFFFFFFF4
0FFFFFFFFFFFFFFFF3
0BFFFFFFFFFFFFFFE0
03FFFFFFFFFFFFFF60
005FFFFFFFFFFFF800
00029DEFFFFFDA3000
ENDCHAR
STARTCHAR ordmasculine
ENCODING 186
SWIDTH 578 0
DWIDTH 16 0
BBX 18 19 -1 0
BITMAP
000049ABBBBB950000
002CFFE98888BFE400
02EFFF40011009FF30
09FFFF08FFFF35FFC0
0EFFFF09FFFF44FFF2
1FFFFF09FFFF44FFF4
1FFFFF09FFFF44FFF4
1FFFFF09FFFF44FFF4
1FFFFF08FFFF34FFF4
1FFFFF22666507FFF4
1FFFFFC422235EFFF4
1FFFFFFFFFFFFFFFF4
1FFFFFFFFFFFFFFFF4
1FFFFFFFFFFFFFFFF4
0FFFFFFFFFFFFFFFF3
0BFFFFFFFFFFFFFFE0
03FFFFFFFFFFFFFF60
005FFFFFFFFFFFF800
00029DEFFFFFDA3000
ENDCHAR
STARTCHAR guillemotright
ENCODING 187
SWIDTH 578 0
DWIDTH 16 0
BBX 18 19 -1 0
BITMAP
000049ABBBBB950000
002CFFFFFFFFFFE400
02EFFFEFFEFFFFFF30
09FFFB4FF2DFFFFFC0
0EFFFF58F94FFFFFF2
1FFFFFE2BF58FFFFF4
1FFFFFFC2EE2CFFFF4
1FFFFFFF94FA3FFFF4
1FFFFFFFB2FC2EFFF4
1FFFFFFE2DF3BFFFF4
1FFFFFF4AF77FFFFF4
1FFFFF86FC3FFFFFF4
1FFFFC3FF2CFFFFFF4
1FFFFEDFFDFFFFFFF4
0FFFFFFFFFFFFFFFF3
0BFFFFFFFFFFFFFFE0
03FFFFFFFFFFFFFF60
005FFFFFFFFFFFF800
00029DEFFFFFDA3000
ENDCHAR
STARTCHAR onequarter
ENCODING 188
SWIDTH 578 0
DWIDTH 16 0
BBX 18 19 -1 0
BITMAP
000049ABBBBB950000
002CA7DFD8DFFFE400
02E200AF90EFFFFF30
09F9B0AF52FFFFFFC0
0EFFD0AF26FFFFFFF2
1FFFD0AD0AFFFFFFF4
1FFFD0A90B4DF68FF4
1FFFD0A62B0CF35FF4
1FFFD2B26B0CF35FF4
1FFFFFD09B0CF35FF4
1FFFFFA0DD059238D4
1FFFFF62FF710000A4
1FFFFF57FFFFF35FF4
1FFFFFFFFFFFF35FF4
0FFFFFFFFFFFFEEFF3
0BFFFFFFFFFFFFFFE0
03FFFFFFFFFFFFFF60
005FFFFFFFFFFFF800
00029DEFFFFFDA3000
ENDCHAR
STARTCHAR onehalf
ENCODING 189
SWIDTH 578 0
DWIDTH 16 0
BBX 18 19 -1 0
BITMAP
000049ABBBBB950000
002CA7DFD8DFFFE400
02E200AF90EFFFFF30
09F9B0AF52FFFFFFC0
0EFFD0AF26FFFFFFF2
1FFFD0AD0AD867AFF4
1FFFD0A90D202108F4
1FFFD0A62E4BFF35F4
1FFFD2B26FEA7506F4
1FFFFFD09F20137EF4
1FFFFFA0DD0AFFFFF4
1FFFFF62FD04555EF4
1FFFFF57FF73333DF4
1FFFFFFFFFFFFFFFF4
0FFFFFFFFFFFFFFFF3
0BFFFFFFFFFFFFFFE0
03FFFFFFFFFFFFFF60
005FFFFFFFFFFFF800
00029DEFFFFFDA3000
ENDCHAR
STARTCHAR threequarters
ENCODING 190
SWIDTH 578 0
DWIDTH 16 0
BBX 18 19 -1 0
BITMAP
000049ABBBBB950000
002CA7DFD8DFFFE400
02E200AF90EFFFFF30
09F9B0AF52FFFFFFC0
0EFFD0AF26FFFFFFF2
1FFFD0AD0AD9779EF4
1FFFD0A90C101102F4
1FFFD0A62D7DFFA0C4
1FFFD2B26FFE7631E4
1FFFFFD09FFE5531E4
1FFFFFA0DD8EFFA0C4
1FFFFF62FC036630E4
1FFFFF57FF94334AF4
1FFFFFFFFFFFFFFFF4
0FFFFFFFFFFFFFFFF3
0BFFFFFFFFFFFFFFE0
03FFFFFFFFFFFFFF60
005FFFFFFFFFFFF800
00029DEFFFFFDA3000
ENDCHAR
STARTCHAR questiondown
ENCODING 191
SWIDTH 578 0
DWIDTH 16 0
BBX 18 19 -1 0
BITMAP
000049ABBBBB950000
002CFFFFFA8FFFE400
02EFFFFFF74FFFFF30
09FFFFFFFCBFFFFFC0
0EFFFFFFF84FFFFFF2
1FFFFFFFD74FFFFFF4
1FFFFF90007FFFFFF4
1FFFFF29DEFFFFFFF4
1FFFFF1CFFFFFFFFF4
1FFFFF1CFFFFFFFFF4
1FFFFF1BFFFF59FFF4
1FFFFF5244331CFFF4
1FFFFFFA8889CFFFF4
1FFFFFFFFFFFFFFFF4
0FFFFFFFFFFFFFFFF3
0BFFFFFFFFFFFFFFE0
03FFFFFFFFFFFFFF60
005FFFFFFFFFFFF800
00029DEFFFFFDA3000
ENDCHAR
STARTCHAR Agrave
ENCODING 192
SWIDTH 578 0
DWIDTH 16 0
BBX 18 27 -1 0
BITMAP
000001465200000000
00006EFFFF60000000
0003FFFFFFF1000000
0006FFC09FF5000000
0002FFF45FF9000000
00009FFB1FFE000000
00001EFF3BFF300000
000007FFBBFF400000
000049FFFFFFA50000
002CFFFFFFFDEFE400
02EFFF5001004FFF30
09FFFF16FFF70FFFC0
0EFFFE09FFFA0DFFF2
1FFFFD0AFFFB0BFFF4
1FFFFB0CFFFD0AFFF4
1FFFF904555508FFF4
1FFFF805555507FFF4
1FFFF61FFFFF25FFF4
1FFFF43FFFFF43FFF4
1FFFF34FFFFF52FFF4
1FFFF47FFFFF83FFF4
1FFFFFFFFFFFFFFFF4
0FFFFFFFFFFFFFFFF3
0BFFFFFFFFFFFFFFE0
03FFFFFFFFFFFFFF60
005FFFFFFFFFFFF800
00029DEFFFFFDA3000
ENDCHAR
STARTCHAR Aacute
ENCODING 193
SWIDTH 578 0
DWIDTH 16 0
BBX 18 27 -1 0
BITMAP
000000001465200000
00000002DFFFFA0000
0000000AFFFFFF8000
0000000EFE07FFB000
0000004FFA0EFF7000
0000009FF56FFE1000
000000DFF1DFF60000
000000EFE9FFC00000
000049FFFFFFC50000
002CFFFFFFFFEFE400
02EFFF5001004FFF30
09FFFF16FFF70FFFC0
0EFFFE09FFFA0DFFF2
1FFFFD0AFFFB0BFFF4
1FFFFB0CFFFD0AFFF4
1FFFF904555508FFF4
1FFFF805555507FFF4
1FFFF61FFFFF25FFF4
1FFFF43FFFFF43FFF4
1FFFF34FFFFF52FFF4
1FFFF47FFFFF83FFF4
1FFFFFFFFFFFFFFFF4
0FFFFFFFFFFFFFFFF3
0BFFFFFFFFFFFFFFE0
03FFFFFFFFFFFFFF60
005FFFFFFFFFFFF800
00029DEFFFFFDA3000
ENDCHAR
STARTCHAR Acircumflex
ENCODING 194
SWIDTH 578 0
DWIDTH 16 0
BBX 18 27 -1 0
BITMAP
00000007DFD6000000
0000006FFFFF500000
000000DFEAEFC00000
000005FF829FF40000
00000CFF2B3FFA0000
00002FFB4F2DFF1000
00006FF59F77FF5000
00008FFBEFEBFF6000
0000AFFFFFFFFF3000
002CFFFFFEFFFFE400
02EFFF5001004FFF30
09FFFF16FFF70FFFC0
0EFFFE09FFFA0DFFF2
1FFFFD0AFFFB0BFFF4
1FFFFB0CFFFD0AFFF4
1FFFF904555508FFF4
1FFFF805555507FFF4
1FFFF61FFFFF25FFF4
1FFFF43FFFFF43FFF4
1FFFF34FFFFF52FFF4
1FFFF47FFFFF83FFF4
1FFFFFFFFFFFFFFFF4
0FFFFFFFFFFFFFFFF3
0BFFFFFFFFFFFFFFE0
03FFFFFFFFFFFFFF60
005FFFFFFFFFFFF800
00029DEFFFFFDA3000
ENDCHAR
STARTCHAR Atilde
ENCODING 195
SWIDTH 578 0
DWIDTH 16 0
BBX 18 27 -1 0
BITMAP
0000005BEFEB500000
00001BFFFFFFFB1000
0000BFFFFFFFFFB000
0003FFFFFFFFFFF400
0007FFFFFFFFFFF700
0008FFC56BE2BFF800
0005FF526110CFF500
0001EFCCFEBBFFE100
00008FFFFFFFFF4000
002CFFFA888AEFE400
02EFFF5001004FFF30
09FFFF16FFF70FFFC0
0EFFFE09FFFA0DFFF2
1FFFFD0AFFFB0BFFF4
1FFFFB0CFFFD0AFFF4
1FFFF904555508FFF4
1FFFF805555507FFF4
1FFFF61FFFFF25FFF4
1FFFF43FFFFF43FFF4
1FFFF34FFFFF52FFF4
1FFFF47FFFFF83FFF4
1FFFFFFFFFFFFFFFF4
0FFFFFFFFFFFFFFFF3
0BFFFFFFFFFFFFFFE0
03FFFFFFFFFFFFFF60
005FFFFFFFFFFFF800
00029DEFFFFFDA3000
ENDCHAR
STARTCHAR Adieresis
ENCODING 196
SWIDTH 578 0
DWIDTH 16 0
BBX 18 26 -1 0
BITMAP
000000000100000000
0000006CFFFC600000
00001CFFFFFFFC1000
00009FFFFFFFFF9000
0000EFD6AF96EFE000
0000EFB07F40EFE000
0000BFECEFDCFFB000
00007FFFFFFFFF3000
002CFFFFFEFFFFE400
02EFFF5001004FFF30
09FFFF16FFF70FFFC0
0EFFFE09FFFA0DFFF2
1FFFFD0AFFFB0BFFF4
1FFFFB0CFFFD0AFFF4
1FFFF904555508FFF4
1FFFF805555507FFF4
1FFFF61FFFFF25FFF4
1FFFF43FFFFF43FFF4
1FFFF34FFFFF52FFF4
1FFFF47FFFFF83FFF4
1FFFFFFFFFFFFFFFF4
0FFFFFFFFFFFFFFFF3
0BFFFFFFFFFFFFFFE0
03FFFFFFFFFFFFFF60
005FFFFFFFFFFFF800
00029DEFFFFFDA3000
ENDCHAR
STARTCHAR Aring
ENCODING 197
SWIDTH 578 0
DWIDTH 16 0
BBX 18 27 -1 0
BITMAP
000000069A94000000
000002DFFFFFB10000
00001DFFDCEFFA0000
00007FF6120AFF3000
0000BFF1DF85FF7000
0000CFF1CF85FF9000
0000BFF7010AFF7000
00007FFFEDEFFF3000
00005FFFFFFFFF0000
002CFFFA888AEFE400
02EFFF5001004FFF30
09FFFF16FFF70FFFC0
0EFFFE09FFFA0DFFF2
1FFFFD0AFFFB0BFFF4
1FFFFB0CFFFD0AFFF4
1FFFF904555508FFF4
1FFFF805555507FFF4
1FFFF61FFFFF25FFF4
1FFFF43FFFFF43FFF4
1FFFF34FFFFF52FFF4
1FFFF47FFFFF83FFF4
1FFFFFFFFFFFFFFFF4
0FFFFFFFFFFFFFFFF3
0BFFFFFFFFFFFFFFE0
03FFFFFFFFFFFFFF60
005FFFFFFFFFFFF800
00029DEFFFFFDA3000
ENDCHAR
STARTCHAR AE
ENCODING 198
SWIDTH 578 0
DWIDTH 16 0
BBX 18 19 -1 0
BITMAP
000049ABBBBB950000
002CFFC9777778E400
02EFFA00101112FF30
09FFF62ED0AFFFFFC0
0EFFF54FD0AFFFFFF2
1FFFF35FD0AFFFFFF4
1FFFF17FD04556FFF4
1FFFF08FD02334FFF4
1FFFD0AFD0AFFFFFF4
1FFFB05760AFFFFFF4
1FFFA01110AFFFFFF4
1FFF80FFD03445FFF4
1FFF95FFE44445FFF4
1FFFFFFFFFFFFFFFF4
0FFFFFFFFFFFFFFFF3
0BFFFFFFFFFFFFFFE0
03FFFFFFFFFFFFFF60
005FFFFFFFFFFFF800
00029DEFFFFFDA3000
ENDCHAR
STARTCHAR Ccedilla
ENCODING 199
SWIDTH 578 0
DWIDTH 16 0
BBX 18 19 -1 0
BITMAP
000049ABBBBB950000
002CFFA88888CFE400
02EFF90011108FFF30
09FFF43FFFFFEFFFC0
0EFFF44FFFFFFFFFF2
1FFFF44FFFFFFFFFF4
1FFFF44FFFFFFFFFF4
1FFFF44FFFFFFFFFF4
1FFFF44FFFFFFFFFF4
1FFFF44FFFFFFFFFF4
1FFFF44FFFFFFFFFF4
1FFFF6055554AFFFF4
1FFFFE633034AFFFF4
1FFFFFFD40EFFFFFF4
0FFFFFF448FFFFFFF3
0BFFFFF36EFFFFFFE0
03FFFFF900DFFFFF60
005FFFFFEDFFFFF800
00029DEFFFFFDA3000
ENDCHAR
STARTCHAR Egrave
ENCODING 200
SWIDTH 578 0
DWIDTH 16 0
BBX 18 27 -1 0
BITMAP
000000355300000000
00003DFFFFA0000000
0000EFFFFFF4000000
0002FFF25FF9000000
0000DFF81FFD000000
00005FFE1BFF300000
00000CFF77FF700000
000003FFD9FF800000
000049FFFFFFD50000
002CFFCFFFFC8EE400
02EFFF8011111CFF30
09FFFF81FFFFFFFFC0
0EFFFF81FFFFFFFFF2
1FFFFF81FFFFFFFFF4
1FFFFF817777BFFFF4
1FFFFF8022229FFFF4
1FFFFF81FFFFFFFFF4
1FFFFF81FFFFFFFFF4
1FFFFF81FFFFFFFFF4
1FFFFF8055555BFFF4
1FFFFF9333333AFFF4
1FFFFFFFFFFFFFFFF4
0FFFFFFFFFFFFFFFF3
0BFFFFFFFFFFFFFFE0
03FFFFFFFFFFFFFF60
005FFFFFFFFFFFF800
00029DEFFFFFDA3000
ENDCHAR
STARTCHAR Eacute
ENCODING 201
SWIDTH 578 0
DWIDTH 16 0
BBX 18 27 -1 0
BITMAP
000000000365300000
00000000BFFFFC2000
00000006FFFFFFC000
0000000BFF33FFF000
0000001FFE0AFFB000
0000005FF92FFF4000
0000009FF59FFA0000
000000AFF8EFE20000
000049FFFFFFF50000
002CFFBEFFFF8EE400
02EFFF8011111CFF30
09FFFF81FFFFFFFFC0
0EFFFF81FFFFFFFFF2
1FFFFF81FFFFFFFFF4
1FFFFF817777BFFFF4
1FFFFF8022229FFFF4
1FFFFF81FFFFFFFFF4
1FFFFF81FFFFFFFFF4
1FFFFF81FFFFFFFFF4
1FFFFF8055555BFFF4
1FFFFF9333333AFFF4
1FFFFFFFFFFFFFFFF4
0FFFFFFFFFFFFFFFF3
0BFFFFFFFFFFFFFFE0
03FFFFFFFFFFFFFF60
005FFFFFFFFFFFF800
00029DEFFFFFDA3000
ENDCHAR
STARTCHAR Ecircumflex
ENCODING 202
SWIDTH 578 0
DWIDTH 16 0
BBX 18 27 -1 0
BITMAP
00000005CFE9100000
0000002FFFFF900000
0000009FFBDFF20000
000001FFC25FF80000
000007FF6A2EFE0000
00000DFF1E78FF5000
00002FFA5FC3FF9000
00004FFCDFFAFFB000
00006FFFFFFFFF8000
002CFFFEEEEEEFE400
02EFFF8011111CFF30
09FFFF81FFFFFFFFC0
0EFFFF81FFFFFFFFF2
1FFFFF81FFFFFFFFF4
1FFFFF817777BFFFF4
1FFFFF8022229FFFF4
1FFFFF81FFFFFFFFF4
1FFFFF81FFFFFFFFF4
1FFFFF81FFFFFFFFF4
1FFFFF8055555BFFF4
1FFFFF9333333AFFF4
1FFFFFFFFFFFFFFFF4
0FFFFFFFFFFFFFFFF3
0BFFFFFFFFFFFFFFE0
03FFFFFFFFFFFFFF60
005FFFFFFFFFFFF800
00029DEFFFFFDA3000
ENDCHAR
STARTCHAR Edieresis
ENCODING 203
SWIDTH 578 0
DWIDTH 16 0
BBX 18 26 -1 0
BITMAP
000000000100000000
0000004BEFFD810000
000008FFFFFFFE3000
00004FFFFFFFFFD000
0000AFF68FB6CFF300
0000AFF03F909FF300
00006FFCDFECEFE100
00005FFFFFFFFF7000
002CFFFEEEEEEFE400
02EFFF8011111CFF30
09FFFF81FFFFFFFFC0
0EFFFF81FFFFFFFFF2
1FFFFF81FFFFFFFFF4
1FFFFF817777BFFFF4
1FFFFF8022229FFFF4
1FFFFF81FFFFFFFFF4
1FFFFF81FFFFFFFFF4
1FFFFF81FFFFFFFFF4
1FFFFF8055555BFFF4
1FFFFF9333333AFFF4
1FFFFFFFFFFFFFFFF4
0FFFFFFFFFFFFFFFF3
0BFFFFFFFFFFFFFFE0
03FFFFFFFFFFFFFF60
005FFFFFFFFFFFF800
00029DEFFFFFDA3000
ENDCHAR
STARTCHAR Igrave
ENCODING 204
SWIDTH 578 0
DWIDTH 16 0
BBX 18 27 -1 0
BITMAP
000000356300000000
00002CFFFFB0000000
0000DFFFFFF6000000
0000FFF33FFA000000
0000BFFA0EFE100000
00004FFF29FF400000
00000AFF85FF800000
000002EFE8FFA00000
000049FFFFFFE50000
002CFE8FFFFD89E400
02EFFD11100114FF30
09FFFFFFF26FFFFFC0
0EFFFFFFF26FFFFFF2
1FFFFFFFF26FFFFFF4
1FFFFFFFF26FFFFFF4
1FFFFFFFF26FFFFFF4
1FFFFFFFF26FFFFFF4
1FFFFFFFF26FFFFFF4
1FFFFFFFF26FFFFFF4
1FFFFE55512557FFF4
1FFFFE33333335FFF4
1FFFFFFFFFFFFFFFF4
0FFFFFFFFFFFFFFFF3
0BFFFFFFFFFFFFFFE0
03FFFFFFFFFFFFFF60
005FFFFFFFFFFFF800
00029DEFFFFFDA3000
ENDCHAR
STARTCHAR Iacute
ENCODING 205
SWIDTH 578 0
DWIDTH 16 0
BBX 18 27 -1 0
BITMAP
000000000355300000
00000000AFFFFD3000
00000004FFFFFFE000
00000009FF52FFF100
0000000EFF18FFD000
0000003FFB1EFF5000
0000007FF67FFB0000
0000008FF9EFF30000
000049EFFFFFF50000
002CFE8CFFFF89E400
02EFFD11100114FF30
09FFFFFFF26FFFFFC0
0EFFFFFFF26FFFFFF2
1FFFFFFFF26FFFFFF4
1FFFFFFFF26FFFFFF4
1FFFFFFFF26FFFFFF4
1FFFFFFFF26FFFFFF4
1FFFFFFFF26FFFFFF4
1FFFFFFFF26FFFFFF4
1FFFFE55512557FFF4
1FFFFE33333335FFF4
1FFFFFFFFFFFFFFFF4
0FFFFFFFFFFFFFFFF3
0BFFFFFFFFFFFFFFE0
03FFFFFFFFFFFFFF60
005FFFFFFFFFFFF800
00029DEFFFFFDA3000
ENDCHAR
STARTCHAR Icircumflex
ENCODING 206
SWIDTH 578 0
DWIDTH 16 0
BBX 18 27 -1 0
BITMAP
00000003CEEA100000
0000001EFFFFB00000
0000007FFBCFF30000
000000EFE23FFA0000
000005FF884CFF1000
00000BFF2D97FF7000
00001FFC3FD1FFB000
00002FFDCFFBEFD000
00005FFFFFFFFF9000
002CFFEEEEEEEFE400
02EFFD11100114FF30
09FFFFFFF26FFFFFC0
0EFFFFFFF26FFFFFF2
1FFFFFFFF26FFFFFF4
1FFFFFFFF26FFFFFF4
1FFFFFFFF26FFFFFF4
1FFFFFFFF26FFFFFF4
1FFFFFFFF26FFFFFF4
1FFFFFFFF26FFFFFF4
1FFFFE55512557FFF4
1FFFFE33333335FFF4
1FFFFFFFFFFFFFFFF4
0FFFFFFFFFFFFFFFF3
0BFFFFFFFFFFFFFFE0
03FFFFFFFFFFFFFF60
005FFFFFFFFFFFF800
00029DEFFFFFDA3000
ENDCHAR
STARTCHAR Idieresis
ENCODING 207
SWIDTH 578 0
DWIDTH 16 0
BBX 18 25 -1 0
BITMAP
0000003AEFFD920000
000007FFFFFFFE4000
00003FFFFFFFFFE100
00008FF77FC6BFF500
00008FF21FA08FF500
00005FFDDFECEFF200
00005FFFFFFFFF8000
002CFFEEEEEEEEE400
02EFFD11100114FF30
09FFFFFFF26FFFFFC0
0EFFFFFFF26FFFFFF2
1FFFFFFFF26FFFFFF4
1FFFFFFFF26FFFFFF4
1FFFFFFFF26FFFFFF4
1FFFFFFFF26FFFFFF4
1FFFFFFFF26FFFFFF4
1FFFFFFFF26FFFFFF4
1FFFFE55512557FFF4
1FFFFE33333335FFF4
1FFFFFFFFFFFFFFFF4
0FFFFFFFFFFFFFFFF3
0BFFFFFFFFFFFFFFE0
03FFFFFFFFFFFFFF60
005FFFFFFFFFFFF800
00029DEFFFFFDA3000
ENDCHAR
STARTCHAR Eth
ENCODING 208
SWIDTH 578 0
DWIDTH 16 0
BBX 18 19 -1 0
BITMAP
000049ABBBBB950000
002CFB8888889EE400
02EFF701111004FF30
09FFF71FFFFF70FFC0
0EFFF71FFFFF90EFF2
1FFFF71FFFFF90EFF4
1FFFC419FFFF90EFF4
1FFFB418FFFF90EFF4
1FFFF71FFFFF90EFF4
1FFFF71FFFFF90EFF4
1FFFF71FFFFF80EFF4
1FFFF705555522FFF4
1FFFF93333334CFFF4
1FFFFFFFFFFFFFFFF4
0FFFFFFFFFFFFFFFF3
0BFFFFFFFFFFFFFFE0
03FFFFFFFFFFFFFF60
005FFFFFFFFFFFF800
00029DEFFFFFDA3000
ENDCHAR
STARTCHAR Ntilde
ENCODING 209
SWIDTH 578 0
DWIDTH 16 0
BBX 18 27 -1 0
BITMAP
0000017CEFDA400000
00003DFFFFFFF80000
0001EFFFFFFFFF7000
0007FFFFFFFFFFE000
000BFFFFFFFFFFF300
000CFF957DB2EFF400
0009FF155011FFF100
0003FFAEFDADFFA000
0000CFFFFFFFFF2000
002CFDA88888AFE400
02EFF600111009FF30
09FFF62FFFFF34FFC0
0EFFF62FFFFF44FFF2
1FFFF62FFFFF44FFF4
1FFFF62FFFFF44FFF4
1FFFF62FFFFF44FFF4
1FFFF62FFFFF44FFF4
1FFFF62FFFFF44FFF4
1FFFF62FFFFF44FFF4
1FFFF62FFFFF44FFF4
1FFFF85FFFFF66FFF4
1FFFFFFFFFFFFFFFF4
0FFFFFFFFFFFFFFFF3
0BFFFFFFFFFFFFFFE0
03FFFFFFFFFFFFFF60
005FFFFFFFFFFFF800
00029DEFFFFFDA3000
ENDCHAR
STARTCHAR Ograve
ENCODING 210
SWIDTH 578 0
DWIDTH 16 0
BBX 18 27 -1 0
BITMAP
000000355200000000
00004DFFFF90000000
0001EFFFFFF3000000
0003FFE16FF8000000
0000EFF72FFC000000
00007FFD0CFF200000
00000DFF68FF600000
000004FFD9FF700000
000049FFFFFFC50000
002CFFDFFFFC9EE400
02EFFB00111005FF30
09FFF71FFFFF70FFC0
0EFFF72FFFFF80FFF2
1FFFF72FFFFF80FFF4
1FFFF72FFFFF80FFF4
1FFFF72FFFFF80FFF4
1FFFF72FFFFF80FFF4
1FFFF72FFFFF80FFF4
1FFFF71FFFFF80FFF4
1FFFF904555512FFF4
1FFFFF7433335CFFF4
1FFFFFFFFFFFFFFFF4
0FFFFFFFFFFFFFFFF3
0BFFFFFFFFFFFFFFE0
03FFFFFFFFFFFFFF60
005FFFFFFFFFFFF800
00029DEFFFFFDA3000
ENDCHAR
STARTCHAR Oacute
ENCODING 211
SWIDTH 578 0
DWIDTH 16 0
BBX 18 27 -1 0
BITMAP
000000000465200000
00000001CFFFFB1000
00000007FFFFFFB000
0000000CFF24FFE000
0000002FFD0BFFA000
0000006FF83FFF3000
000000AFF4AFF90000
000000BFF8FFE10000
000049FFFFFFF50000
002CFFCFFFFFAEE400
02EFFB00111005FF30
09FFF71FFFFF70FFC0
0EFFF72FFFFF80FFF2
1FFFF72FFFFF80FFF4
1FFFF72FFFFF80FFF4
1FFFF72FFFFF80FFF4
1FFFF72FFFFF80FFF4
1FFFF72FFFFF80FFF4
1FFFF71FFFFF80FFF4
1FFFF904555512FFF4
1FFFFF7433335CFFF4
1FFFFFFFFFFFFFFFF4
0FFFFFFFFFFFFFFFF3
0BFFFFFFFFFFFFFFE0
03FFFFFFFFFFFFFF60
005FFFFFFFFFFFF800
00029DEFFFFFDA3000
ENDCHAR
STARTCHAR Ocircumflex
ENCODING 212
SWIDTH 578 0
DWIDTH 16 0
BBX 18 27 -1 0
BITMAP
00000005DFE8000000
0000003FFFFF800000
000000AFFADFE10000
000002FFB26FF70000
000009FF5B2EFD0000
00000EFE2F5AFF4000
00003FF86FA4FF8000
00005FFCDFFAFFA000
00007FFFFFFFFF6000
002CFFFFEEEEFFE400
02EFFB00111005FF30
09FFF71FFFFF70FFC0
0EFFF72FFFFF80FFF2
1FFFF72FFFFF80FFF4
1FFFF72FFFFF80FFF4
1FFFF72FFFFF80FFF4
1FFFF72FFFFF80FFF4
1FFFF72FFFFF80FFF4
1FFFF71FFFFF80FFF4
1FFFF904555512FFF4
1FFFFF7433335CFFF4
1FFFFFFFFFFFFFFFF4
0FFFFFFFFFFFFFFFF3
0BFFFFFFFFFFFFFFE0
03FFFFFFFFFFFFFF60
005FFFFFFFFFFFF800
00029DEFFFFFDA3000
ENDCHAR
STARTCHAR Otilde
ENCODING 213
SWIDTH 578 0
DWIDTH 16 0
BBX 18 27 -1 0
BITMAP
0000004AEFEC710000
000009FFFFFFFD2000
00008FFFFFFFFFD100
0001FFFFFFFFFFF700
0004FFFFFFFFFFFA00
0005FFE56AF48FFB00
0002FF8171109FF800
0000BFDCFFBAFFF300
00006FFFFFFFFF7000
002CFFC888889EE400
02EFFB00111005FF30
09FFF71FFFFF70FFC0
0EFFF72FFFFF80FFF2
1FFFF72FFFFF80FFF4
1FFFF72FFFFF80FFF4
1FFFF72FFFFF80FFF4
1FFFF72FFFFF80FFF4
1FFFF72FFFFF80FFF4
1FFFF71FFFFF80FFF4
1FFFF904555512FFF4
1FFFFF7433335CFFF4
1FFFFFFFFFFFFFFFF4
0FFFFFFFFFFFFFFFF3
0BFFFFFFFFFFFFFFE0
03FFFFFFFFFFFFFF60
005FFFFFFFFFFFF800
00029DEFFFFFDA3000
ENDCHAR
STARTCHAR Odieresis
ENCODING 214
SWIDTH 578 0
DWIDTH 16 0
BBX 18 26 -1 0
BITMAP
000000000100000000
0000005BEFFD810000
000009FFFFFFFD2000
00006FFFFFFFFFC000
0000BFE69FB6CFF200
0000BFE04F80BFF200
00007FFCDFECEFE000
00005FFFFFFFFF6000
002CFFFFEEEEFFE400
02EFFB00111005FF30
09FFF71FFFFF70FFC0
0EFFF72FFFFF80FFF2
1FFFF72FFFFF80FFF4
1FFFF72FFFFF80FFF4
1FFFF72FFFFF80FFF4
1FFFF72FFFFF80FFF4
1FFFF72FFFFF80FFF4
1FFFF71FFFFF80FFF4
1FFFF904555512FFF4
1FFFFF7433335CFFF4
1FFFFFFFFFFFFFFFF4
0FFFFFFFFFFFFFFFF3
0BFFFFFFFFFFFFFFE0
03FFFFFFFFFFFFFF60
005FFFFFFFFFFFF800
00029DEFFFFFDA3000
ENDCHAR
STARTCHAR multiply
ENCODING 215
SWIDTH 578 0
DWIDTH 16 0
BBX 18 19 -1 0
BITMAP
000049ABBBBB950000
002CFFFFFFFFFFE400
02EFFFFFFFFFFFFF30
09FFFFFFFFFFFFFFC0
0EFFFFF9DFF8EFFFF2
1FFFFFF52D52EFFFF4
1FFFFFFF502EFFFFF4
1FFFFFFF612DFFFFF4
1FFFFFF62D52EFFFF4
1FFFFFF9DFF8FFFFF4
1FFFFFFFFFFFFFFFF4
1FFFFFFFFFFFFFFFF4
1FFFFFFFFFFFFFFFF4
1FFFFFFFFFFFFFFFF4
0FFFFFFFFFFFFFFFF3
0BFFFFFFFFFFFFFFE0
03FFFFFFFFFFFFFF60
005FFFFFFFFFFFF800
00029DEFFFFFDA3000
ENDCHAR
STARTCHAR Oslash
ENCODING 216
SWIDTH 578 0
DWIDTH 16 0
BBX 18 19 -1 0
BITMAP
000049ABBBBB950000
002CFFA87778AFE400
02EFF900111007FF30
09FFF53FFFF303FFC0
0EFFF44FFF8152FFF2
1FFFF44FFD0A62FFF4
1FFFF44FF34F62FFF4
1FFFF44F81DF62FFF4
1FFFF44D19FF62FFF4
1FFFF4444FFF62FFF4
1FFFF401DFFF62FFF4
1FFFF701444415FFF4
1FFFFF7444446EFFF4
1FFFFFFFFFFFFFFFF4
0FFFFFFFFFFFFFFFF3
0BFFFFFFFFFFFFFFE0
03FFFFFFFFFFFFFF60
005FFFFFFFFFFFF800
00029DEFFFFFDA3000
ENDCHAR
STARTCHAR Ugrave
ENCODING 217
SWIDTH 578 0
DWIDTH 16 0
BBX 18 27 -1 0
BITMAP
000000355300000000
00003DFFFFA0000000
0000EFFFFFF4000000
0002FFF25FF9000000
0000DFF81FFD000000
00005FFE1BFF300000
00000CFF77FF700000
000003FFD9FF800000
000049FFFFFFD50000
002CFAAFFFFFB8E400
02EFF63FFFFF71FF30
09FFF63FFFFF71FFC0
0EFFF63FFFFF71FFF2
1FFFF63FFFFF71FFF4
1FFFF63FFFFF71FFF4
1FFFF63FFFFF71FFF4
1FFFF63FFFFF71FFF4
1FFFF63FFFFF71FFF4
1FFFF62FFFFF71FFF4
1FFFF804555513FFF4
1FFFFF6333335DFFF4
1FFFFFFFFFFFFFFFF4
0FFFFFFFFFFFFFFFF3
0BFFFFFFFFFFFFFFE0
03FFFFFFFFFFFFFF60
005FFFFFFFFFFFF800
00029DEFFFFFDA3000
ENDCHAR
STARTCHAR Uacute
ENCODING 218
SWIDTH 578 0
DWIDTH 16 0
BBX 18 27 -1 0
BITMAP
000000000365300000
00000000BFFFFC2000
00000006FFFFFFC000
0000000BFF33FFF000
0000001FFE0AFFB000
0000005FF92FFF4000
0000009FF59FFA0000
000000AFF8EFE20000
000049FFFFFFF50000
002CFA9FFFFFC8E400
02EFF63FFFFF71FF30
09FFF63FFFFF71FFC0
0EFFF63FFFFF71FFF2
1FFFF63FFFFF71FFF4
1FFFF63FFFFF71FFF4
1FFFF63FFFFF71FFF4
1FFFF63FFFFF71FFF4
1FFFF63FFFFF71FFF4
1FFFF62FFFFF71FFF4
1FFFF804555513FFF4
1FFFFF6333335DFFF4
1FFFFFFFFFFFFFFFF4
0FFFFFFFFFFFFFFFF3
0BFFFFFFFFFFFFFFE0
03FFFFFFFFFFFFFF60
005FFFFFFFFFFFF800
00029DEFFFFFDA3000
ENDCHAR
STARTCHAR Ucircumflex
ENCODING 219
SWIDTH 578 0
DWIDTH 16 0
BBX 18 27 -1 0
BITMAP
00000005CFE9100000
0000002FFFFF900000
0000009FFBDFF20000
000001FFC25FF80000
000007FF6A2EFE0000
00000DFF1E78FF5000
00002FFA5FC3FF9000
00004FFCDFFAFFB000
00006FFFFFFFFF8000
002CFEFFFFFFFEE400
02EFF63FFFFF71FF30
09FFF63FFFFF71FFC0
0EFFF63FFFFF71FFF2
1FFFF63FFFFF71FFF4
1FFFF63FFFFF71FFF4
1FFFF63FFFFF71FFF4
1FFFF63FFFFF71FFF4
1FFFF63FFFFF71FFF4
1FFFF62FFFFF71FFF4
1FFFF804555513FFF4
1FFFFF6333335DFFF4
1FFFFFFFFFFFFFFFF4
0FFFFFFFFFFFFFFFF3
0BFFFFFFFFFFFFFFE0
03FFFFFFFFFFFFFF60
005FFFFFFFFFFFF800
00029DEFFFFFDA3000
ENDCHAR
STARTCHAR Udieresis
ENCODING 220
SWIDTH 578 0
DWIDTH 16 0
BBX 18 26 -1 0
BITMAP
000000000100000000
0000004BEFFD810000
000008FFFFFFFE3000
00004FFFFFFFFFD000
0000AFF68FB6CFF300
0000AFF03F909FF300
00006FFCDFECEFE100
00005FFFFFFFFF7000
002CFBFFFFFFFDE400
02EFF63FFFFF71FF30
09FFF63FFFFF71FFC0
0EFFF63FFFFF71FFF2
1FFFF63FFFFF71FFF4
1FFFF63FFFFF71FFF4
1FFFF63FFFFF71FFF4
1FFFF63FFFFF71FFF4
1FFFF63FFFFF71FFF4
1FFFF62FFFFF71FFF4
1FFFF804555513FFF4
1FFFFF6333335DFFF4
1FFFFFFFFFFFFFFFF4
0FFFFFFFFFFFFFFFF3
0BFFFFFFFFFFFFFFE0
03FFFFFFFFFFFFFF60
005FFFFFFFFFFFF800
00029DEFFFFFDA3000
ENDCHAR
STARTCHAR Yacute
ENCODING 221
SWIDTH 578 0
DWIDTH 16 0
BBX 18 27 -1 0
BITMAP
000000000365200000
00000001CFFFFC2000
00000007FFFFFFC000
0000000CFF34FFE000
0000001FFD0BFFA000
0000006FF93FFF3000
0000009FF49FF90000
000000BFF8FFE10000
000049FFFFFFF50000
002CFD8FFFFF89E400
02EFFE15FFFC08FF30
09FFFF60EFF60EFFC0
0EFFFFC08FE16FFFF2
1FFFFFF42F90CFFFF4
1FFFFFFA0B23FFFFF4
1FFFFFFF220AFFFFF4
1FFFFFFF801FFFFFF4
1FFFFFFFE07FFFFFF4
1FFFFFFFF08FFFFFF4
1FFFFFFFF08FFFFFF4
1FFFFFFFF3AFFFFFF4
1FFFFFFFFFFFFFFFF4
0FFFFFFFFFFFFFFFF3
0BFFFFFFFFFFFFFFE0
03FFFFFFFFFFFFFF60
005FFFFFFFFFFFF800
00029DEFFFFFDA3000
ENDCHAR
STARTCHAR Thorn
ENCODING 222
SWIDTH 578 0
DWIDTH 16 0
BBX 18 19 -1 0
BITMAP
000049ABBBBB950000
002CFF37FFFFFFE400
02EFFF26FFFFFFFF30
09FFFF237778BFFFC0
0EFFFF20111009FFF2
1FFFFF26FFFF35FFF4
1FFFFF26FFFF44FFF4
1FFFFF26FFFF35FFF4
1FFFFF21333208FFF4
1FFFFF2255568FFFF4
1FFFFF26FFFFFFFFF4
1FFFFF26FFFFFFFFF4
1FFFFF58FFFFFFFFF4
1FFFFFFFFFFFFFFFF4
0FFFFFFFFFFFFFFFF3
0BFFFFFFFFFFFFFFE0
03FFFFFFFFFFFFFF60
005FFFFFFFFFFFF800
00029DEFFFFFDA3000
ENDCHAR
STARTCHAR germandbls
ENCODING 223
SWIDTH 578 0
DWIDTH 16 0
BBX 18 19 -1 0
BITMAP
000049ABBBBB950000
002CFFB88889DFE400
02EFFA0011101EFF30
09FFF61EFFFB0BFFC0
0EFFF63FFFFD0BFFF2
1FFFF63FFFFA1EFFF4
1FFFF63FFF406FFFF4
1FFFF63FFFA727FFF4
1FFFF63FFFFF72FFF4
1FFFF63FFFFF71FFF4
1FFFF63FFFFF71FFF4
1FFFF63FB55513FFF4
1FFFF75F93335DFFF4
1FFFFFFFFFFFFFFFF4
0FFFFFFFFFFFFFFFF3
0BFFFFFFFFFFFFFFE0
03FFFFFFFFFFFFFF60
005FFFFFFFFFFFF800
00029DEFFFFFDA3000
ENDCHAR
STARTCHAR agrave
ENCODING 224
SWIDTH 578 0
DWIDTH 16 0
BBX 18 27 -1 0
BITMAP
000000355300000000
00003DFFFFA0000000
0001EFFFFFF4000000
0002FFF15FF9000000
0000DFF81FFD000000
00006FFE1BFF200000
00000CFF77FF600000
000003FFD9FF800000
000049FFFFFFD50000
002CFFBFFFFEEFE400
02EFFF1111104FFF30
09FFFFEFFFF72FFFC0
0EFFFFFFFFF82FFFF2
1FFFFFFFFFF82FFFF4
1FFFFFFDDDD82FFFF4
1FFFF90000002FFFF4
1FFFF24AAAA52FFFF4
1FFFF07FFFF82FFFF4
1FFFF17FFFF82FFFF4
1FFFF31555522FFFF4
1FFFFD5333355FFFF4
1FFFFFFFFFFFFFFFF4
0FFFFFFFFFFFFFFFF3
0BFFFFFFFFFFFFFFE0
03FFFFFFFFFFFFFF60
005FFFFFFFFFFFF800
00029DEFFFFFDA3000
ENDCHAR
STARTCHAR aacute
ENCODING 225
SWIDTH 578 0
DWIDTH 16 0
BBX 18 27 -1 0
BITMAP
000000000365300000
00000001CFFFFC2000
00000006FFFFFFC000
0000000BFF34FFE000
0000001FFD0BFFA000
0000005FF92FFF3000
0000009FF49FF90000
000000BFF8FFE10000
000049FFFFFFF50000
002CFF9EFFFFFFE400
02EFFF1111104FFF30
09FFFFEFFFF72FFFC0
0EFFFFFFFFF82FFFF2
1FFFFFFFFFF82FFFF4
1FFFFFFDDDD82FFFF4
1FFFF90000002FFFF4
1FFFF24AAAA52FFFF4
1FFFF07FFFF82FFFF4
1FFFF17FFFF82FFFF4
1FFFF31555522FFFF4
1FFFFD5333355FFFF4
1FFFFFFFFFFFFFFFF4
0FFFFFFFFFFFFFFFF3
0BFFFFFFFFFFFFFFE0
03FFFFFFFFFFFFFF60
005FFFFFFFFFFFF800
00029DEFFFFFDA3000
ENDCHAR
STARTCHAR acircumflex
ENCODING 226
SWIDTH 578 0
DWIDTH 16 0
BBX 18 27 -1 0
BITMAP
00000005CFE9000000
0000003FFFFF800000
000000AFFADFF10000
000002FFC25FF80000
000008FF6A2EFE0000
00000DFE1E69FF4000
00003FF95FB3FF9000
00004FFCDFFAFFA000
00006FFFFFFFFF7000
002CFFFEEEEFFFE400
02EFFF1111104FFF30
09FFFFEFFFF72FFFC0
0EFFFFFFFFF82FFFF2
1FFFFFFFFFF82FFFF4
1FFFFFFDDDD82FFFF4
1FFFF90000002FFFF4
1FFFF24AAAA52FFFF4
1FFFF07FFFF82FFFF4
1FFFF17FFFF82FFFF4
1FFFF31555522FFFF4
1FFFFD5333355FFFF4
1FFFFFFFFFFFFFFFF4
0FFFFFFFFFFFFFFFF3
0BFFFFFFFFFFFFFFE0
03FFFFFFFFFFFFFF60
005FFFFFFFFFFFF800
00029DEFFFFFDA3000
ENDCHAR
STARTCHAR atilde
ENCODING 227
SWIDTH 578 0
DWIDTH 16 0
BBX 18 27 -1 0
BITMAP
0000003ADFEC710000
000008FFFFFFFD3000
00007FFFFFFFFFE100
0000EFFFFFFFFFF800
0003FFFFFFFFFFFB00
0004FFE66AF57FFC00
0001FF9072108FF900
0000AFDBFFBAFFF300
00006FFFFFFFFF8000
002CFF988889EFE400
02EFFF1111104FFF30
09FFFFEFFFF72FFFC0
0EFFFFFFFFF82FFFF2
1FFFFFFFFFF82FFFF4
1FFFFFFDDDD82FFFF4
1FFFF90000002FFFF4
1FFFF24AAAA52FFFF4
1FFFF07FFFF82FFFF4
1FFFF17FFFF82FFFF4
1FFFF31555522FFFF4
1FFFFD5333355FFFF4
1FFFFFFFFFFFFFFFF4
0FFFFFFFFFFFFFFFF3
0BFFFFFFFFFFFFFFE0
03FFFFFFFFFFFFFF60
005FFFFFFFFFFFF800
00029DEFFFFFDA3000
ENDCHAR
STARTCHAR adieresis
ENCODING 228
SWIDTH 578 0
DWIDTH 16 0
BBX 18 26 -1 0
BITMAP
000000000100000000
0000004BEFFD810000
000009FFFFFFFE3000
00005FFFFFFFFFD000
0000AFF68FB6CFF300
0000AFF03F80AFF300
00007FFCDFECEFE100
00005FFFFFFFFF7000
002CFFFEEEEFFFE400
02EFFF1111104FFF30
09FFFFEFFFF72FFFC0
0EFFFFFFFFF82FFFF2
1FFFFFFFFFF82FFFF4
1FFFFFFDDDD82FFFF4
1FFFF90000002FFFF4
1FFFF24AAAA52FFFF4
1FFFF07FFFF82FFFF4
1FFFF17FFFF82FFFF4
1FFFF31555522FFFF4
1FFFFD5333355FFFF4
1FFFFFFFFFFFFFFFF4
0FFFFFFFFFFFFFFFF3
0BFFFFFFFFFFFFFFE0
03FFFFFFFFFFFFFF60
005FFFFFFFFFFFF800
00029DEFFFFFDA3000
ENDCHAR
STARTCHAR aring
ENCODING 229
SWIDTH 578 0
DWIDTH 16 0
BBX 18 27 -1 0
BITMAP
000000049A96000000
000001BFFFFFD20000
00000AFFECDFFD1000
00003FFA0206FF6000
00007FF59FC1FFB000
00009FF59FC1FFC000
00007FFA0107FFB000
00003FFFEDEFFF7000
00004FFFFFFFFF1000
002CFF988889EFE400
02EFFF1111104FFF30
09FFFFEFFFF72FFFC0
0EFFFFFFFFF82FFFF2
1FFFFFFFFFF82FFFF4
1FFFFFFDDDD82FFFF4
1FFFF90000002FFFF4
1FFFF24AAAA52FFFF4
1FFFF07FFFF82FFFF4
1FFFF17FFFF82FFFF4
1FFFF31555522FFFF4
1FFFFD5333355FFFF4
1FFFFFFFFFFFFFFFF4
0FFFFFFFFFFFFFFFF3
0BFFFFFFFFFFFFFFE0
03FFFFFFFFFFFFFF60
005FFFFFFFFFFFF800
00029DEFFFFFDA3000
ENDCHAR
STARTCHAR ae
ENCODING 230
SWIDTH 578 0
DWIDTH 16 0
BBX 18 19 -1 0
BITMAP
000049ABBBBB950000
002CFFC9777778E400
02EFFA00101112FF30
09FFF62ED0AFFFFFC0
0EFFF54FD0AFFFFFF2
1FFFF35FD0AFFFFFF4
1FFFF17FD04556FFF4
1FFFF08FD02334FFF4
1FFFD0AFD0AFFFFFF4
1FFFB05760AFFFFFF4
1FFFA01110AFFFFFF4
1FFF80FFD03445FFF4
1FFF95FFE44445FFF4
1FFFFFFFFFFFFFFFF4
0FFFFFFFFFFFFFFFF3
0BFFFFFFFFFFFFFFE0
03FFFFFFFFFFFFFF60
005FFFFFFFFFFFF800
00029DEFFFFFDA3000
ENDCHAR
STARTCHAR ccedilla
ENCODING 231
SWIDTH 578 0
DWIDTH 16 0
BBX 18 19 -1 0
BITMAP
000049ABBBBB950000
002CFFA98888CFE400
02EFF90011108FFF30
09FFF43FFFFFEFFFC0
0EFFF44FFFFFFFFFF2
1FFFF44FFFFFFFFFF4
1FFFF44FFFFFFFFFF4
1FFFF44FFFFFFFFFF4
1FFFF44FFFFFFFFFF4
1FFFF44FFFFFFFFFF4
1FFFF44FFFFFFFFFF4
1FFFF6055554AFFFF4
1FFFFE633034AFFFF4
1FFFFFFC41FFFFFFF4
0FFFFFF348FFFFFFF3
0BFFFFF28EFFFFFFE0
03FFFFF800FFFFFF60
005FFFFFEDFFFFF800
00029DEFFFFFDA3000
ENDCHAR
STARTCHAR egrave
ENCODING 232
SWIDTH 578 0
DWIDTH 16 0
BBX 18 28 -1 0
BITMAP
000000455200000000
00004DFFFF80000000
0001FFFFFFF3000000
0003FFE17FF7000000
0001EFF62FFC000000
00007FFD0DFF100000
00000DFF58FF500000
000005FFDAFF700000
000000BFFFFF200000
000049CFFFFE950000
002CFFA88889FFE400
02EFF70111105FFF30
09FFF35FFFF71FFFC0
0EFFF26FFFF80FFFF2
1FFFF24BBBB60FFFF4
1FFFF20000000FFFF4
1FFFF25DDDDDDFFFF4
1FFFF26FFFFFFFFFF4
1FFFF26FFFFFFFFFF4
1FFFF33DEEECEFFFF4
1FFFF80000008FFFF4
1FFFFFCA999ADFFFF4
1FFFFFFFFFFFFFFFF4
0FFFFFFFFFFFFFFFF3
0BFFFFFFFFFFFFFFE0
03FFFFFFFFFFFFFF60
005FFFFFFFFFFFF800
00029DEFFFFFDA3000
ENDCHAR
STARTCHAR eacute
ENCODING 233
SWIDTH 578 0
DWIDTH 16 0
BBX 18 28 -1 0
BITMAP
000000001564100000
00000004EFFFF80000
0000000CFFFFFF7000
0000002FFC09FF9000
0000006FF81FFF5000
000000BFF38FFC0000
000000EFE1EFF40000
000001FFDAFFA00000
000000BFFFFE200000
000049CFFFFF950000
002CFFA88889FFE400
02EFF70111105FFF30
09FFF35FFFF71FFFC0
0EFFF26FFFF80FFFF2
1FFFF24BBBB60FFFF4
1FFFF20000000FFFF4
1FFFF25DDDDDDFFFF4
1FFFF26FFFFFFFFFF4
1FFFF26FFFFFFFFFF4
1FFFF33DEEECEFFFF4
1FFFF80000008FFFF4
1FFFFFCA999ADFFFF4
1FFFFFFFFFFFFFFFF4
0FFFFFFFFFFFFFFFF3
0BFFFFFFFFFFFFFFE0
03FFFFFFFFFFFFFF60
005FFFFFFFFFFFF800
00029DEFFFFFDA3000
ENDCHAR
STARTCHAR ecircumflex
ENCODING 234
SWIDTH 578 0
DWIDTH 16 0
BBX 18 27 -1 0
BITMAP
0000001AEEB3000000
000000BFFFFE100000
000004FFCBFF700000
00000AFF32EFD00000
00002FFC479FF50000
00007FF69C3FFA0000
0000CFE1EF2CFE0000
0000DFEBFFCDFF1000
0000FFFFFFFFFF0000
002CFFFEEEEFFFE400
02EFF70111105FFF30
09FFF35FFFF71FFFC0
0EFFF26FFFF80FFFF2
1FFFF24BBBB60FFFF4
1FFFF20000000FFFF4
1FFFF25DDDDDDFFFF4
1FFFF26FFFFFFFFFF4
1FFFF26FFFFFFFFFF4
1FFFF33DEEECEFFFF4
1FFFF80000008FFFF4
1FFFFFCA999ADFFFF4
1FFFFFFFFFFFFFFFF4
0FFFFFFFFFFFFFFFF3
0BFFFFFFFFFFFFFFE0
03FFFFFFFFFFFFFF60
005FFFFFFFFFFFF800
00029DEFFFFFDA3000
ENDCHAR
STARTCHAR edieresis
ENCODING 235
SWIDTH 578 0
DWIDTH 16 0
BBX 18 25 -1 0
BITMAP
0000039EFFEA300000
00005FFFFFFFF60000
0002EFFFFFFFFF2000
0006FF86FD6AFF6000
0006FF30FC06FF7000
0003FFDCFFCDFF3000
0000EFFFFFFFFF0000
002CFFFEEEEFFFE400
02EFF70111105FFF30
09FFF35FFFF71FFFC0
0EFFF26FFFF80FFFF2
1FFFF24BBBB60FFFF4
1FFFF20000000FFFF4
1FFFF25DDDDDDFFFF4
1FFFF26FFFFFFFFFF4
1FFFF26FFFFFFFFFF4
1FFFF33DEEECEFFFF4
1FFFF80000008FFFF4
1FFFFFCA999ADFFFF4
1FFFFFFFFFFFFFFFF4
0FFFFFFFFFFFFFFFF3
0BFFFFFFFFFFFFFFE0
03FFFFFFFFFFFFFF60
005FFFFFFFFFFFF800
00029DEFFFFFDA3000
ENDCHAR
STARTCHAR igrave
ENCODING 236
SWIDTH 578 0
DWIDTH 16 0
BBX 18 27 -1 0
BITMAP
000000355300000000
00003DFFFFA0000000
0000EFFFFFF5000000
0001FFF25FF9000000
0000DFF91FFE000000
00005FFE1BFF300000
00000BFF76FF700000
000003FFE8FF900000
000049FFFFFFD50000
002CFE8FFFFD89E400
02EFFD11100114FF30
09FFFFFFF26FFFFFC0
0EFFFFFFF26FFFFFF2
1FFFFFFFF26FFFFFF4
1FFFFFFFF26FFFFFF4
1FFFFFFFF26FFFFFF4
1FFFFFFFF26FFFFFF4
1FFFFFFFF26FFFFFF4
1FFFFFFFF26FFFFFF4
1FFFFE55512557FFF4
1FFFFE33333335FFF4
1FFFFFFFFFFFFFFFF4
0FFFFFFFFFFFFFFFF3
0BFFFFFFFFFFFFFFE0
03FFFFFFFFFFFFFF60
005FFFFFFFFFFFF800
00029DEFFFFFDA3000
ENDCHAR
STARTCHAR iacute
ENCODING 237
SWIDTH 578 0
DWIDTH 16 0
BBX 18 27 -1 0
BITMAP
000000000365300000
00000000BFFFFC2000
00000005FFFFFFD000
0000000AFF43FFF000
0000001EFE0AFFB000
0000004FFA2FFF4000
0000008FF58FFA0000
000000AFF8EFF20000
000049FFFFFFF50000
002CFE8DFFFF89E400
02EFFD11100114FF30
09FFFFFFF26FFFFFC0
0EFFFFFFF26FFFFFF2
1FFFFFFFF26FFFFFF4
1FFFFFFFF26FFFFFF4
1FFFFFFFF26FFFFFF4
1FFFFFFFF26FFFFFF4
1FFFFFFFF26FFFFFF4
1FFFFFFFF26FFFFFF4
1FFFFE55512557FFF4
1FFFFE33333335FFF4
1FFFFFFFFFFFFFFFF4
0FFFFFFFFFFFFFFFF3
0BFFFFFFFFFFFFFFE0
03FFFFFFFFFFFFFF60
005FFFFFFFFFFFF800
00029DEFFFFFDA3000
ENDCHAR
STARTCHAR icircumflex
ENCODING 238
SWIDTH 578 0
DWIDTH 16 0
BBX 18 27 -1 0
BITMAP
00000004CFE9100000
0000002FFFFF900000
0000009FFBDFF20000
000001EFD24FF90000
000007FF792DFE1000
00000CFF2E78FF5000
00002FFA4FC2FFA000
00004FFCDFFAFFB000
00006FFFFFFFFF8000
002CFFEEEEEEEFE400
02EFFD11100114FF30
09FFFFFFF26FFFFFC0
0EFFFFFFF26FFFFFF2
1FFFFFFFF26FFFFFF4
1FFFFFFFF26FFFFFF4
1FFFFFFFF26FFFFFF4
1FFFFFFFF26FFFFFF4
1FFFFFFFF26FFFFFF4
1FFFFFFFF26FFFFFF4
1FFFFE55512557FFF4
1FFFFE33333335FFF4
1FFFFFFFFFFFFFFFF4
0FFFFFFFFFFFFFFFF3
0BFFFFFFFFFFFFFFE0
03FFFFFFFFFFFFFF60
005FFFFFFFFFFFF800
00029DEFFFFFDA3000
ENDCHAR
STARTCHAR idieresis
ENCODING 239
SWIDTH 578 0
DWIDTH 16 0
BBX 18 26 -1 0
BITMAP
000000000100000000
0000004AEFFD820000
000008FFFFFFFE3000
00004FFFFFFFFFD000
00009FF68FC6BFF400
00009FF03F909FF400
00006FFDDFECEFE100
00005FFFFFFFFF7000
002CFFEEEEEEEEE400
02EFFD11100114FF30
09FFFFFFF26FFFFFC0
0EFFFFFFF26FFFFFF2
1FFFFFFFF26FFFFFF4
1FFFFFFFF26FFFFFF4
1FFFFFFFF26FFFFFF4
1FFFFFFFF26FFFFFF4
1FFFFFFFF26FFFFFF4
1FFFFFFFF26FFFFFF4
1FFFFE55512557FFF4
1FFFFE33333335FFF4
1FFFFFFFFFFFFFFFF4
0FFFFFFFFFFFFFFFF3
0BFFFFFFFFFFFFFFE0
03FFFFFFFFFFFFFF60
005FFFFFFFFFFFF800
00029DEFFFFFDA3000
ENDCHAR
STARTCHAR eth
ENCODING 240
SWIDTH 578 0
DWIDTH 16 0
BBX 18 19 -1 0
BITMAP
000049ABBBBB950000
002CFB8888889EE400
02EFF701111004FF30
09FFF71FFFFF70FFC0
0EFFF71FFFFF90EFF2
1FFFF71FFFFF90EFF4
1FFFC419FFFF90EFF4
1FFFB418FFFF90EFF4
1FFFF71FFFFF90EFF4
1FFFF71FFFFF90EFF4
1FFFF71FFFFF80EFF4
1FFFF705555522FFF4
1FFFF93333334CFFF4
1FFFFFFFFFFFFFFFF4
0FFFFFFFFFFFFFFFF3
0BFFFFFFFFFFFFFFE0
03FFFFFFFFFFFFFF60
005FFFFFFFFFFFF800
00029DEFFFFFDA3000
ENDCHAR
STARTCHAR ntilde
ENCODING 241
SWIDTH 578 0
DWIDTH 16 0
BBX 18 27 -1 0
BITMAP
0000017CEFDA300000
00003EFFFFFFF80000
0001EFFFFFFFFF6000
0008FFFFFFFFFFE000
000CFFFFFFFFFFF300
000CFF957DA2FFF300
000AFF155012FFF100
0004FFAEFDADFFA000
0000CFFFFFFFFF2000
002CFDA88888AFE400
02EFF600111009FF30
09FFF62FFFFF34FFC0
0EFFF62FFFFF44FFF2
1FFFF62FFFFF44FFF4
1FFFF62FFFFF44FFF4
1FFFF62FFFFF44FFF4
1FFFF62FFFFF44FFF4
1FFFF62FFFFF44FFF4
1FFFF62FFFFF44FFF4
1FFFF62FFFFF44FFF4
1FFFF85FFFFF66FFF4
1FFFFFFFFFFFFFFFF4
0FFFFFFFFFFFFFFFF3
0BFFFFFFFFFFFFFFE0
03FFFFFFFFFFFFFF60
005FFFFFFFFFFFF800
00029DEFFFFFDA3000
ENDCHAR
STARTCHAR oacute
ENCODING 243
SWIDTH 578 0
DWIDTH 16 0
BBX 18 27 -1 0
BITMAP
000000001464100000
00000003EFFFF90000
0000000BFFFFFF7000
0000001FFD09FF9000
0000006FF81EFF6000
000000AFF47FFD0000
000000EFE1EFF40000
000001FFD9FFB00000
000049FFFFFFB50000
002CFFDFFFFE9EE400
02EFFB00111005FF30
09FFF71FFFFF70FFC0
0EFFF72FFFFF80FFF2
1FFFF72FFFFF80FFF4
1FFFF72FFFFF80FFF4
1FFFF72FFFFF80FFF4
1FFFF72FFFFF80FFF4
1FFFF72FFFFF80FFF4
1FFFF71FFFFF80FFF4
1FFFF904555512FFF4
1FFFFF7433335CFFF4
1FFFFFFFFFFFFFFFF4
0FFFFFFFFFFFFFFFF3
0BFFFFFFFFFFFFFFE0
03FFFFFFFFFFFFFF60
005FFFFFFFFFFFF800
00029DEFFFFFDA3000
ENDCHAR
STARTCHAR ocircumflex
ENCODING 244
SWIDTH 578 0
DWIDTH 16 0
BBX 18 27 -1 0
BITMAP
00000005CFE9000000
0000002FFFFF900000
000000AFFBDFF20000
000001FFC25FF80000
000008FF6A2EFE0000
00000DFE1E69FF5000
00002FF95FB3FF9000
00004FFCDFFAFFA000
00006FFFFFFFFF7000
002CFFFFEEEEFFE400
02EFFB00111005FF30
09FFF71FFFFF70FFC0
0EFFF72FFFFF80FFF2
1FFFF72FFFFF80FFF4
1FFFF72FFFFF80FFF4
1FFFF72FFFFF80FFF4
1FFFF72FFFFF80FFF4
1FFFF72FFFFF80FFF4
1FFFF71FFFFF80FFF4
1FFFF904555512FFF4
1FFFFF7433335CFFF4
1FFFFFFFFFFFFFFFF4
0FFFFFFFFFFFFFFFF3
0BFFFFFFFFFFFFFFE0
03FFFFFFFFFFFFFF60
005FFFFFFFFFFFF800
00029DEFFFFFDA3000
ENDCHAR
STARTCHAR otilde
ENCODING 245
SWIDTH 578 0
DWIDTH 16 0
BBX 18 27 -1 0
BITMAP
0000005BEFEB600000
00000AFFFFFFFC2000
00009FFFFFFFFFC000
0002FFFFFFFFFFF500
0006FFFFFFFFFFF900
0006FFD56BF3AFF900
0004FF627110BFF700
0000DFCCFEBBFFE100
00007FFFFFFFFF6000
002CFFC888889EE400
02EFFB00111005FF30
09FFF71FFFFF70FFC0
0EFFF72FFFFF80FFF2
1FFFF72FFFFF80FFF4
1FFFF72FFFFF80FFF4
1FFFF72FFFFF80FFF4
1FFFF72FFFFF80FFF4
1FFFF72FFFFF80FFF4
1FFFF71FFFFF80FFF4
1FFFF904555512FFF4
1FFFFF7433335CFFF4
1FFFFFFFFFFFFFFFF4
0FFFFFFFFFFFFFFFF3
0BFFFFFFFFFFFFFFE0
03FFFFFFFFFFFFFF60
005FFFFFFFFFFFF800
00029DEFFFFFDA3000
ENDCHAR
STARTCHAR odieresis
ENCODING 246
SWIDTH 578 0
DWIDTH 16 0
BBX 18 26 -1 0
BITMAP
000000000100000000
0000004BEFFD810000
000008FFFFFFFE3000
00004FFFFFFFFFD000
0000AFF68FB6CFF300
0000AFF03F909FF300
00006FFCDFECEFE100
00005FFFFFFFFF7000
002CFFFFEEEEFFE400
02EFFB00111005FF30
09FFF71FFFFF70FFC0
0EFFF72FFFFF80FFF2
1FFFF72FFFFF80FFF4
1FFFF72FFFFF80FFF4
1FFFF72FFFFF80FFF4
1FFFF72FFFFF80FFF4
1FFFF72FFFFF80FFF4
1FFFF71FFFFF80FFF4
1FFFF904555512FFF4
1FFFFF7433335CFFF4
1FFFFFFFFFFFFFFFF4
0FFFFFFFFFFFFFFFF3
0BFFFFFFFFFFFFFFE0
03FFFFFFFFFFFFFF60
005FFFFFFFFFFFF800
00029DEFFFFFDA3000
ENDCHAR
STARTCHAR divide
ENCODING 247
SWIDTH 428 0
DWIDTH 12 0
BBX 14 19 -1 0
BITMAP
000049AA940000
002CFFFFFFC200
02EFFFAAFFFE20
09FFFF12FFFF90
0EFFFF99FFFFE0
1FFF600006FFF0
1FFFB8888BFFF1
1FFFFF33FFFFF1
1FFFFF33FFFFF1
1FFFFFFFFFFFF1
1FFFFFFFFFFFF1
1FFFFFFFFFFFF1
1FFFFFFFFFFFF1
1FFFFFFFFFFFF1
0FFFFFFFFFFFF0
0BFFFFFFFFFFB0
03FFFFFFFFFF30
005FFFFFFFE500
00029DEED92000
ENDCHAR
STARTCHAR oslash
ENCODING 248
SWIDTH 578 0
DWIDTH 16 0
BBX 18 19 -1 0
BITMAP
000049ABBBBB950000
002CFFA87778AFE400
02EFF900111007FF30
09FFF53FFFF303FFC0
0EFFF44FFF8152FFF2
1FFFF44FFD0A62FFF4
1FFFF44FF34F62FFF4
1FFFF44F81DF62FFF4
1FFFF44D19FF62FFF4
1FFFF4444FFF62FFF4
1FFFF401DFFF62FFF4
1FFFF701444415FFF4
1FFFFF7444446EFFF4
1FFFFFFFFFFFFFFFF4
0FFFFFFFFFFFFFFFF3
0BFFFFFFFFFFFFFFE0
03FFFFFFFFFFFFFF60
005FFFFFFFFFFFF800
00029DEFFFFFDA3000
ENDCHAR
STARTCHAR ugrave
ENCODING 249
SWIDTH 578 0
DWIDTH 16 0
BBX 18 27 -1 0
BITMAP
000000355300000000
00003DFFFFA0000000
0000EFFFFFF5000000
0001FFF25FF9000000
0000DFF91FFE000000
00005FFE1BFF300000
00000BFF76FF700000
000003FFE8FF900000
000049FFFFFFD50000
002CFAAFFFFFB8E400
02EFF63FFFFF71FF30
09FFF63FFFFF71FFC0
0EFFF63FFFFF71FFF2
1FFFF63FFFFF71FFF4
1FFFF63FFFFF71FFF4
1FFFF63FFFFF71FFF4
1FFFF63FFFFF71FFF4
1FFFF63FFFFF71FFF4
1FFFF62FFFFF71FFF4
1FFFF804555513FFF4
1FFFFF6333335DFFF4
1FFFFFFFFFFFFFFFF4
0FFFFFFFFFFFFFFFF3
0BFFFFFFFFFFFFFFE0
03FFFFFFFFFFFFFF60
005FFFFFFFFFFFF800
00029DEFFFFFDA3000
ENDCHAR
STARTCHAR uacute
ENCODING 250
SWIDTH 578 0
DWIDTH 16 0
BBX 18 27 -1 0
BITMAP
000000000365300000
00000000BFFFFC2000
00000005FFFFFFD000
0000000AFF43FFF000
0000001EFE0AFFB000
0000004FFA2FFF4000
0000008FF58FFA0000
000000AFF8EFF20000
000049FFFFFFF50000
002CFA9FFFFFC8E400
02EFF63FFFFF71FF30
09FFF63FFFFF71FFC0
0EFFF63FFFFF71FFF2
1FFFF63FFFFF71FFF4
1FFFF63FFFFF71FFF4
1FFFF63FFFFF71FFF4
1FFFF63FFFFF71FFF4
1FFFF63FFFFF71FFF4
1FFFF62FFFFF71FFF4
1FFFF804555513FFF4
1FFFFF6333335DFFF4
1FFFFFFFFFFFFFFFF4
0FFFFFFFFFFFFFFFF3
0BFFFFFFFFFFFFFFE0
03FFFFFFFFFFFFFF60
005FFFFFFFFFFFF800
00029DEFFFFFDA3000
ENDCHAR
STARTCHAR ucircumflex
ENCODING 251
SWIDTH 578 0
DWIDTH 16 0
BBX 18 27 -1 0
BITMAP
00000004CFE9100000
0000002FFFFF900000
0000009FFBDFF20000
000001EFD24FF90000
000007FF792DFE1000
00000CFF2E78FF5000
00002FFA4FC2FFA000
00004FFCDFFAFFB000
00006FFFFFFFFF8000
002CFEFFFFFFFEE400
02EFF63FFFFF71FF30
09FFF63FFFFF71FFC0
0EFFF63FFFFF71FFF2
1FFFF63FFFFF71FFF4
1FFFF63FFFFF71FFF4
1FFFF63FFFFF71FFF4
1FFFF63FFFFF71FFF4
1FFFF63FFFFF71FFF4
1FFFF62FFFFF71FFF4
1FFFF804555513FFF4
1FFFFF6333335DFFF4
1FFFFFFFFFFFFFFFF4
0FFFFFFFFFFFFFFFF3
0BFFFFFFFFFFFFFFE0
03FFFFFFFFFFFFFF60
005FFFFFFFFFFFF800
00029DEFFFFFDA3000
ENDCHAR
STARTCHAR udieresis
ENCODING 252
SWIDTH 578 0
DWIDTH 16 0
BBX 18 26 -1 0
BITMAP
000000000100000000
0000004AEFFD820000
000008FFFFFFFE3000
00004FFFFFFFFFD000
00009FF68FC6BFF400
00009FF03F909FF400
00006FFDDFECEFE100
00005FFFFFFFFF7000
002CFBFFFFFFFDE400
02EFF63FFFFF71FF30
09FFF63FFFFF71FFC0
0EFFF63FFFFF71FFF2
1FFFF63FFFFF71FFF4
1FFFF63FFFFF71FFF4
1FFFF63FFFFF71FFF4
1FFFF63FFFFF71FFF4
1FFFF63FFFFF71FFF4
1FFFF62FFFFF71FFF4
1FFFF804555513FFF4
1FFFFF6333335DFFF4
1FFFFFFFFFFFFFFFF4
0FFFFFFFFFFFFFFFF3
0BFFFFFFFFFFFFFFE0
03FFFFFFFFFFFFFF60
005FFFFFFFFFFFF800
00029DEFFFFFDA3000
ENDCHAR
STARTCHAR yacute
ENCODING 253
SWIDTH 578 0
DWIDTH 16 0
BBX 18 27 -1 0
BITMAP
000000000365200000
00000001CFFFFC2000
00000007FFFFFFC000
0000000CFF34FFE000
0000001FFD0BFFA000
0000006FF93FFF3000
0000009FF49FF90000
000000BFF8FFE10000
000049FFFFFFF50000
002CFD8FFFFF89E400
02EFFE15FFFC08FF30
09FFFF60EFF60EFFC0
0EFFFFC08FE16FFFF2
1FFFFFF42F90CFFFF4
1FFFFFFA0B23FFFFF4
1FFFFFFF220AFFFFF4
1FFFFFFF801FFFFFF4
1FFFFFFFE07FFFFFF4
1FFFFFFFF08FFFFFF4
1FFFFFFFF08FFFFFF4
1FFFFFFFF3AFFFFFF4
1FFFFFFFFFFFFFFFF4
0FFFFFFFFFFFFFFFF3
0BFFFFFFFFFFFFFFE0
03FFFFFFFFFFFFFF60
005FFFFFFFFFFFF800
00029DEFFFFFDA3000
ENDCHAR
STARTCHAR thorn
ENCODING 254
SWIDTH 578 0
DWIDTH 16 0
BBX 18 19 -1 0
BITMAP
000049ABBBBB950000
002CFF37FFFFFFE400
02EFFF26FFFFFFFF30
09FFFF237778BFFFC0
0EFFFF20111009FFF2
1FFFFF26FFFF35FFF4
1FFFFF26FFFF44FFF4
1FFFFF26FFFF35FFF4
1FFFFF21333208FFF4
1FFFFF2255568FFFF4
1FFFFF26FFFFFFFFF4
1FFFFF26FFFFFFFFF4
1FFFFF58FFFFFFFFF4
1FFFFFFFFFFFFFFFF4
0FFFFFFFFFFFFFFFF3
0BFFFFFFFFFFFFFFE0
03FFFFFFFFFFFFFF60
005FFFFFFFFFFFF800
00029DEFFFFFDA3000
ENDCHAR
STARTCHAR ydieresis
ENCODING 255
SWIDTH 578 0
DWIDTH 16 0
BBX 18 26 -1 0
BITMAP
000000000100000000
0000005BEFFD810000
000009FFFFFFFE3000
00005FFFFFFFFFC000
0000AFF68FB6CFF200
0000AFE04F80AFF300
00007FFCDFECEFE000
00005FFFFFFFFF6000
002CFEEFFFFFFDE400
02EFFE15FFFC08FF30
09FFFF60EFF60EFFC0
0EFFFFC08FE16FFFF2
1FFFFFF42F90CFFFF4
1FFFFFFA0B23FFFFF4
1FFFFFFF220AFFFFF4
1FFFFFFF801FFFFFF4
1FFFFFFFE07FFFFFF4
1FFFFFFFF08FFFFFF4
1FFFFFFFF08FFFFFF4
1FFFFFFFF3AFFFFFF4
1FFFFFFFFFFFFFFFF4
0FFFFFFFFFFFFFFFF3
0BFFFFFFFFFFFFFFE0
03FFFFFFFFFFFFFF60
005FFFFFFFFFFFF800
00029DEFFFFFDA3000
ENDCHAR
STARTCHAR Amacron
ENCODING 256
SWIDTH 578 0
DWIDTH 16 0
BBX 18 26 -1 0
BITMAP
000000002220000000
0000029EFFFEA20000
00005FFFFFFFFF5000
0002EFFFFFFFFFF200
0007FFEAAAABFFF700
0008FFB00002FFF800
0005FFFDDDDDFFF500
0000FFFFFFFFFFC000
002CFFFFFFFFFFF400
02EFFF5001004FFF30
09FFFF16FFF70FFFC0
0EFFFE09FFFA0DFFF2
1FFFFD0AFFFB0BFFF4
1FFFFB0CFFFD0AFFF4
1FFFF904555508FFF4
1FFFF805555507FFF4
1FFFF61FFFFF25FFF4
1FFFF43FFFFF43FFF4
1FFFF34FFFFF52FFF4
1FFFF47FFFFF83FFF4
1FFFFFFFFFFFFFFFF4
0FFFFFFFFFFFFFFFF3
0BFFFFFFFFFFFFFFE0
03FFFFFFFFFFFFFF60
005FFFFFFFFFFFF800
00029DEFFFFFDA3000
ENDCHAR
STARTCHAR amacron
ENCODING 257
SWIDTH 578 0
DWIDTH 16 0
BBX 18 26 -1 0
BITMAP
000000001220000000
0000018DFFFFB40000
00002DFFFFFFFF9000
0000CFFFFFFFFFF600
0003FFFAAAAAEFFB00
0004FFF00000DFFC00
0001FFFDDDDDFFF900
0000CFFFFFFFFFE200
002CFFFFFFFFFFF400
02EFFF1111104FFF30
09FFFFEFFFF72FFFC0
0EFFFFFFFFF82FFFF2
1FFFFFFFFFF82FFFF4
1FFFFFFDDDD82FFFF4
1FFFF90000002FFFF4
1FFFF24AAAA52FFFF4
1FFFF07FFFF82FFFF4
1FFFF17FFFF82FFFF4
1FFFF31555522FFFF4
1FFFFD5333355FFFF4
1FFFFFFFFFFFFFFFF4
0FFFFFFFFFFFFFFFF3
0BFFFFFFFFFFFFFFE0
03FFFFFFFFFFFFFF60
005FFFFFFFFFFFF800
00029DEFFFFFDA3000
ENDCHAR
STARTCHAR Abreve
ENCODING 258
SWIDTH 578 0
DWIDTH 16 0
BBX 18 27 -1 0
BITMAP
000000002220000000
0000029EFFFEA20000
00005FFFFFFFFF5000
0002EFFFFFFFFFF200
0007FFFEFFFEFFF700
0008FFF19FA0FFF800
0005FFF70006FFF500
0000CFFFDCDFFFC000
00006FFFFFFFFF2000
002CFFFA888AEFE400
02EFFF5001004FFF30
09FFFF16FFF70FFFC0
0EFFFE09FFFA0DFFF2
1FFFFD0AFFFB0BFFF4
1FFFFB0CFFFD0AFFF4
1FFFF904555508FFF4
1FFFF805555507FFF4
1FFFF61FFFFF25FFF4
1FFFF43FFFFF43FFF4
1FFFF34FFFFF52FFF4
1FFFF47FFFFF83FFF4
1FFFFFFFFFFFFFFFF4
0FFFFFFFFFFFFFFFF3
0BFFFFFFFFFFFFFFE0
03FFFFFFFFFFFFFF60
005FFFFFFFFFFFF800
00029DEFFFFFDA3000
ENDCHAR
STARTCHAR abreve
ENCODING 259
SWIDTH 578 0
DWIDTH 16 0
BBX 18 27 -1 0
BITMAP
000000001220000000
0000018DFFFFB40000
00002DFFFFFFFF9000
0000CFFFFFFFFFF600
0003FFFEEFFEFFFB00
0004FFF56FE0BFFC00
0001FFFA0003EFF900
00008FFFDCCEFFE200
00005FFFFFFFFF4000
002CFF988889EFE400
02EFFF1111104FFF30
09FFFFEFFFF72FFFC0
0EFFFFFFFFF82FFFF2
1FFFFFFFFFF82FFFF4
1FFFFFFDDDD82FFFF4
1FFFF90000002FFFF4
1FFFF24AAAA52FFFF4
1FFFF07FFFF82FFFF4
1FFFF17FFFF82FFFF4
1FFFF31555522FFFF4
1FFFFD5333355FFFF4
1FFFFFFFFFFFFFFFF4
0FFFFFFFFFFFFFFFF3
0BFFFFFFFFFFFFFFE0
03FFFFFFFFFFFFFF60
005FFFFFFFFFFFF800
00029DEFFFFFDA3000
ENDCHAR
STARTCHAR Aogonek
ENCODING 260
SWIDTH 578 0
DWIDTH 16 0
BBX 18 19 -1 0
BITMAP
000049ABBBBB950000
002CFFFA888AEFE400
02EFFF5001004FFF30
09FFFF16FFF70FFFC0
0EFFFE09FFFA0DFFF2
1FFFFD0AFFFB0BFFF4
1FFFFB0CFFFD0AFFF4
1FFFF904555508FFF4
1FFFF805555507FFF4
1FFFF61FFFFF25FFF4
1FFFF43FFFFF43FFF4
1FFFF34FFFFF52FFF4
1FFFF47FFFFF71FFF4
1FFFFFFFFFFB2BFFF4
0FFFFFFFFFF28FFFF3
0BFFFFFFFFF19EFFE0
03FFFFFFFFF701FF60
005FFFFFFFFFEDF800
00029DEFFFFFDA3000
ENDCHAR
STARTCHAR aogonek
ENCODING 261
SWIDTH 578 0
DWIDTH 16 0
BBX 18 19 -1 0
BITMAP
000049ABBBBB950000
002CFF988889EFE400
02EFFF1111105FFF30
09FFFFEFFFF70FFFC0
0EFFFFFFFFF80FFFF2
1FFFFFFFFFF80FFFF4
1FFFFFFDDDD80FFFF4
1FFFF90000000FFFF4
1FFFF24AAAA50FFFF4
1FFFF07FFFF80FFFF4
1FFFF17FFFF80FFFF4
1FFFF31555520FFFF4
1FFFFD5331245FFFF4
1FFFFFFF82EFFFFFF4
0FFFFFFC0CFFFFFFF3
0BFFFFFB0CEFFFFFE0
03FFFFFE305FFFFF60
005FFFFFFDDFFFF800
00029DEFFFFFDA3000
ENDCHAR
STARTCHAR Cacute
ENCODING 262
SWIDTH 578 0
DWIDTH 16 0
BBX 18 27 -1 0
BITMAP
000000000355300000
00000000AFFFFD3000
00000004FFFFFFE000
00000009FF52FFF100
0000000EFF18FFD000
0000003FFB1EFF5000
0000007FF67FFB0000
0000008FF9EFF30000
000049EFFFFFF50000
002CFFADFFFFDFE400
02EFF90011108FFF30
09FFF43FFFFFEFFFC0
0EFFF44FFFFFFFFFF2
1FFFF44FFFFFFFFFF4
1FFFF44FFFFFFFFFF4
1FFFF44FFFFFFFFFF4
1FFFF44FFFFFFFFFF4
1FFFF44FFFFFFFFFF4
1FFFF44FFFFFFFFFF4
1FFFF6055554AFFFF4
1FFFFE633334AFFFF4
1FFFFFFFFFFFFFFFF4
0FFFFFFFFFFFFFFFF3
0BFFFFFFFFFFFFFFE0
03FFFFFFFFFFFFFF60
005FFFFFFFFFFFF800
00029DEFFFFFDA3000
ENDCHAR
STARTCHAR cacute
ENCODING 263
SWIDTH 578 0
DWIDTH 16 0
BBX 18 27 -1 0
BITMAP
000000000365300000
00000000BFFFFC2000
00000006FFFFFFC000
0000000BFF33FFF000
0000001FFE0AFFB000
0000005FF92FFF4000
0000009FF59FFA0000
000000AFF8EFE20000
000049FFFFFFF50000
002CFFAEFFFFCFE400
02EFF90011108FFF30
09FFF43FFFFFEFFFC0
0EFFF44FFFFFFFFFF2
1FFFF44FFFFFFFFFF4
1FFFF44FFFFFFFFFF4
1FFFF44FFFFFFFFFF4
1FFFF44FFFFFFFFFF4
1FFFF44FFFFFFFFFF4
1FFFF44FFFFFFFFFF4
1FFFF6055554AFFFF4
1FFFFE633334AFFFF4
1FFFFFFFFFFFFFFFF4
0FFFFFFFFFFFFFFFF3
0BFFFFFFFFFFFFFFE0
03FFFFFFFFFFFFFF60
005FFFFFFFFFFFF800
00029DEFFFFFDA3000
ENDCHAR
STARTCHAR Ccircumflex
ENCODING 264
SWIDTH 578 0
DWIDTH 16 0
BBX 18 27 -1 0
BITMAP
00000007DFD7000000
0000005FFFFF600000
000000CFEAEFD00000
000004FF928FF50000
00000BFF3B3FFB0000
00001FFC3F3CFF2000
00005FF68F86FF6000
00007FFBEFEBFF7000
00009FFFFFFFFF4000
002CFFFFEEEFFFE400
02EFF90011108FFF30
09FFF43FFFFFEFFFC0
0EFFF44FFFFFFFFFF2
1FFFF44FFFFFFFFFF4
1FFFF44FFFFFFFFFF4
1FFFF44FFFFFFFFFF4
1FFFF44FFFFFFFFFF4
1FFFF44FFFFFFFFFF4
1FFFF44FFFFFFFFFF4
1FFFF6055554AFFFF4
1FFFFE633334AFFFF4
1FFFFFFFFFFFFFFFF4
0FFFFFFFFFFFFFFFF3
0BFFFFFFFFFFFFFFE0
03FFFFFFFFFFFFFF60
005FFFFFFFFFFFF800
00029DEFFFFFDA3000
ENDCHAR
STARTCHAR ccircumflex
ENCODING 265
SWIDTH 578 0
DWIDTH 16 0
BBX 18 27 -1 0
BITMAP
00000007DFD6000000
0000006FFFFF500000
000000DFEAEFC00000
000005FF829FF40000
00000CFF2B3FFA0000
00002FFB4F2DFF1000
00006FF59F77FF5000
00008FFBEFEBFF6000
0000AFFFFFFFFF3000
002CFFFFEEEFFFE400
02EFF90011108FFF30
09FFF43FFFFFEFFFC0
0EFFF44FFFFFFFFFF2
1FFFF44FFFFFFFFFF4
1FFFF44FFFFFFFFFF4
1FFFF44FFFFFFFFFF4
1FFFF44FFFFFFFFFF4
1FFFF44FFFFFFFFFF4
1FFFF44FFFFFFFFFF4
1FFFF6055554AFFFF4
1FFFFE633334AFFFF4
1FFFFFFFFFFFFFFFF4
0FFFFFFFFFFFFFFFF3
0BFFFFFFFFFFFFFFE0
03FFFFFFFFFFFFFF60
005FFFFFFFFFFFF800
00029DEFFFFFDA3000
ENDCHAR
STARTCHAR Cdotaccent
ENCODING 266
SWIDTH 578 0
DWIDTH 16 0
BBX 18 26 -1 0
BITMAP
000000012200000000
000017DFFFFB500000
0002DFFFFFFFFA0000
000BFFFFFFFFFF7000
001FFFFFABFFFFC000
002FFFFE04FFFFD000
000FFFFF9BFFFFB000
000AFFFFFFFFFF7000
002EFFFFFFFFFFE400
02EFF90011108FFF30
09FFF43FFFFFEFFFC0
0EFFF44FFFFFFFFFF2
1FFFF44FFFFFFFFFF4
1FFFF44FFFFFFFFFF4
1FFFF44FFFFFFFFFF4
1FFFF44FFFFFFFFFF4
1FFFF44FFFFFFFFFF4
1FFFF44FFFFFFFFFF4
1FFFF6055554AFFFF4
1FFFFE633334AFFFF4
1FFFFFFFFFFFFFFFF4
0FFFFFFFFFFFFFFFF3
0BFFFFFFFFFFFFFFE0
03FFFFFFFFFFFFFF60
005FFFFFFFFFFFF800
00029DEFFFFFDA3000
ENDCHAR
STARTCHAR cdotaccent
ENCODING 267
SWIDTH 578 0
DWIDTH 16 0
BBX 18 26 -1 0
BITMAP
000000002210000000
000005CFFFFD710000
0000AFFFFFFFFD2000
0007FFFFFFFFFFB000
000CFFFFBAFFFFF100
000DFFFF30FFFFF200
000BFFFFA9FFFFF100
0006FFFFFFFFFFB000
002DFFFFFFFFFFF400
02EFF90011108FFF30
09FFF43FFFFFEFFFC0
0EFFF44FFFFFFFFFF2
1FFFF44FFFFFFFFFF4
1FFFF44FFFFFFFFFF4
1FFFF44FFFFFFFFFF4
1FFFF44FFFFFFFFFF4
1FFFF44FFFFFFFFFF4
1FFFF44FFFFFFFFFF4
1FFFF6055554AFFFF4
1FFFFE633334AFFFF4
1FFFFFFFFFFFFFFFF4
0FFFFFFFFFFFFFFFF3
0BFFFFFFFFFFFFFFE0
03FFFFFFFFFFFFFF60
005FFFFFFFFFFFF800
00029DEFFFFFDA3000
ENDCHAR
STARTCHAR Ccaron
ENCODING 268
SWIDTH 578 0
DWIDTH 16 0
BBX 18 27 -1 0
BITMAP
000000220012000000
00004DFFABFFD30000
0000EFFFFFFFFB0000
0001FFB7FF5DFE0000
0000FFE1EC2FFD0000
0000BFF6A78FFA0000
00007FFC53EFF60000
00002FFF46FFF10000
00004FFFFFFFF50000
002CFFFFEEEFFFE400
02EFF90011108FFF30
09FFF43FFFFFEFFFC0
0EFFF44FFFFFFFFFF2
1FFFF44FFFFFFFFFF4
1FFFF44FFFFFFFFFF4
1FFFF44FFFFFFFFFF4
1FFFF44FFFFFFFFFF4
1FFFF44FFFFFFFFFF4
1FFFF44FFFFFFFFFF4
1FFFF6055554AFFFF4
1FFFFE633334AFFFF4
1FFFFFFFFFFFFFFFF4
0FFFFFFFFFFFFFFFF3
0BFFFFFFFFFFFFFFE0
03FFFFFFFFFFFFFF60
005FFFFFFFFFFFF800
00029DEFFFFFDA3000
ENDCHAR
STARTCHAR ccaron
ENCODING 269
SWIDTH 578 0
DWIDTH 16 0
BBX 18 27 -1 0
BITMAP
000000120012000000
00002BFFD9FFE50000
0000AFFFFFFFFE1000
0000DFE4FF8AFF2000
0000BFF4BF1DFF1000
00008FFA6B4FFD0000
00003FFF26AFFA0000
00000EFF73FFF50000
00004FFFFFFFF60000
002CFFFFEEEFFFE400
02EFF90011108FFF30
09FFF43FFFFFEFFFC0
0EFFF44FFFFFFFFFF2
1FFFF44FFFFFFFFFF4
1FFFF44FFFFFFFFFF4
1FFFF44FFFFFFFFFF4
1FFFF44FFFFFFFFFF4
1FFFF44FFFFFFFFFF4
1FFFF44FFFFFFFFFF4
1FFFF6055554AFFFF4
1FFFFE633334AFFFF4
1FFFFFFFFFFFFFFFF4
0FFFFFFFFFFFFFFFF3
0BFFFFFFFFFFFFFFE0
03FFFFFFFFFFFFFF60
005FFFFFFFFFFFF800
00029DEFFFFFDA3000
ENDCHAR
STARTCHAR Dcaron
ENCODING 270
SWIDTH 578 0
DWIDTH 16 0
BBX 18 28 -1 0
BITMAP
000000120012000000
00002CFFC9FFE40000
0000BFFFFFFFFE0000
0000EFD5FF7BFF1000
0000CFF3CE1EFF0000
00009FF87A6FFC0000
00005FFE35BFF80000
00001EFF64FFF40000
00000AFFFFFFD00000
00004BFFFFFFD50000
002CFB8888889EE400
02EFF701111004FF30
09FFF71FFFFF70FFC0
0EFFF71FFFFF90EFF2
1FFFF71FFFFF90EFF4
1FFFF71FFFFF90EFF4
1FFFF71FFFFF90EFF4
1FFFF71FFFFF90EFF4
1FFFF71FFFFF90EFF4
1FFFF71FFFFF80EFF4
1FFFF705555522FFF4
1FFFF93333334CFFF4
1FFFFFFFFFFFFFFFF4
0FFFFFFFFFFFFFFFF3
0BFFFFFFFFFFFFFFE0
03FFFFFFFFFFFFFF60
005FFFFFFFFFFFF800
00029DEFFFFFDA3000
ENDCHAR
STARTCHAR dcaron
ENCODING 271
SWIDTH 578 0
DWIDTH 16 0
BBX 18 19 -1 0
BITMAP
000049ABBBBB950000
002CA888889DC88400
02EF50111101804F30
09FF53FFFFB0A46FC0
0EFF53FFFFD0A3DFF2
1FFF53FFFFD0AFFFF4
1FFF53FFFFD0AFFFF4
1FFF53FFFFD0AFFFF4
1FFF53FFFFD0AFFFF4
1FFF53FFFFD0AFFFF4
1FFF53FFFFC0BFFFF4
1FFF51555530DFFFF4
1FFF73333349FFFFF4
1FFFFFFFFFFFFFFFF4
0FFFFFFFFFFFFFFFF3
0BFFFFFFFFFFFFFFE0
03FFFFFFFFFFFFFF60
005FFFFFFFFFFFF800
00029DEFFFFFDA3000
ENDCHAR
STARTCHAR Dcroat
ENCODING 272
SWIDTH 578 0
DWIDTH 16 0
BBX 18 19 -1 0
BITMAP
000049ABBBBB950000
002CFB8888889EE400
02EFF701111004FF30
09FFF71FFFFF70FFC0
0EFFF71FFFFF90EFF2
1FFFE71EEFFF90EFF4
1FFC00001FFF90EFF4
1FFE84189FFF90EFF4
1FFFF71FFFFF90EFF4
1FFFF71FFFFF90EFF4
1FFFF71FFFFF80EFF4
1FFFF705555522FFF4
1FFFF93333334CFFF4
1FFFFFFFFFFFFFFFF4
0FFFFFFFFFFFFFFFF3
0BFFFFFFFFFFFFFFE0
03FFFFFFFFFFFFFF60
005FFFFFFFFFFFF800
00029DEFFFFFDA3000
ENDCHAR
STARTCHAR dcroat
ENCODING 273
SWIDTH 578 0
DWIDTH 16 0
BBX 18 19 -1 0
BITMAP
000049ABBBBB950000
002CFB8888889EE400
02EFF701111004FF30
09FFF71FFFFF70FFC0
0EFFF71FFFFF90EFF2
1FFFE71EEFFF90EFF4
1FFC00001FFF90EFF4
1FFE84189FFF90EFF4
1FFFF71FFFFF90EFF4
1FFFF71FFFFF90EFF4
1FFFF71FFFFF80EFF4
1FFFF705555522FFF4
1FFFF93333334CFFF4
1FFFFFFFFFFFFFFFF4
0FFFFFFFFFFFFFFFF3
0BFFFFFFFFFFFFFFE0
03FFFFFFFFFFFFFF60
005FFFFFFFFFFFF800
00029DEFFFFFDA3000
ENDCHAR
STARTCHAR Emacron
ENCODING 274
SWIDTH 578 0
DWIDTH 16 0
BBX 18 26 -1 0
BITMAP
000000001220000000
0000018DFFFFB50000
00002DFFFFFFFF9000
0000CFFFFFFFFFF600
0003FFFAAAAAEFFB00
0003FFF00000CFFC00
0001EFFDDDDDFFF900
0000CFFFFFFFFFF200
002CFFFFFFFFFFF400
02EFFF8011111CFF30
09FFFF81FFFFFFFFC0
0EFFFF81FFFFFFFFF2
1FFFFF81FFFFFFFFF4
1FFFFF817777BFFFF4
1FFFFF8022229FFFF4
1FFFFF81FFFFFFFFF4
1FFFFF81FFFFFFFFF4
1FFFFF81FFFFFFFFF4
1FFFFF8055555BFFF4
1FFFFF9333333AFFF4
1FFFFFFFFFFFFFFFF4
0FFFFFFFFFFFFFFFF3
0BFFFFFFFFFFFFFFE0
03FFFFFFFFFFFFFF60
005FFFFFFFFFFFF800
00029DEFFFFFDA3000
ENDCHAR
STARTCHAR emacron
ENCODING 275
SWIDTH 578 0
DWIDTH 16 0
BBX 18 26 -1 0
BITMAP
000000012210000000
000005CFFFFD700000
0000AFFFFFFFFC1000
0007FFFFFFFFFFA000
000DFFCAAAADFFF100
000EFF500008FFF200
000BFFEDDDDEFFE000
0003FFFFFFFFFF6000
002CFFFFFFFFFFE400
02EFF70111105FFF30
09FFF35FFFF71FFFC0
0EFFF26FFFF80FFFF2
1FFFF24BBBB60FFFF4
1FFFF20000000FFFF4
1FFFF25DDDDDDFFFF4
1FFFF26FFFFFFFFFF4
1FFFF26FFFFFFFFFF4
1FFFF33DEEECEFFFF4
1FFFF80000008FFFF4
1FFFFFCA999ADFFFF4
1FFFFFFFFFFFFFFFF4
0FFFFFFFFFFFFFFFF3
0BFFFFFFFFFFFFFFE0
03FFFFFFFFFFFFFF60
005FFFFFFFFFFFF800
00029DEFFFFFDA3000
ENDCHAR
STARTCHAR Ebreve
ENCODING 276
SWIDTH 578 0
DWIDTH 16 0
BBX 18 27 -1 0
BITMAP
000000001220000000
0000018DFFFFB50000
00002DFFFFFFFF9000
0000CFFFFFFFFFF600
0003FFFEEFFEFFFB00
0003FFF65FE0BFFC00
0001EFFB0002EFF900
00008FFFDCCEFFE200
00004FFFFFFFFF4000
002CFFB888888EE400
02EFFF8011111CFF30
09FFFF81FFFFFFFFC0
0EFFFF81FFFFFFFFF2
1FFFFF81FFFFFFFFF4
1FFFFF817777BFFFF4
1FFFFF8022229FFFF4
1FFFFF81FFFFFFFFF4
1FFFFF81FFFFFFFFF4
1FFFFF81FFFFFFFFF4
1FFFFF8055555BFFF4
1FFFFF9333333AFFF4
1FFFFFFFFFFFFFFFF4
0FFFFFFFFFFFFFFFF3
0BFFFFFFFFFFFFFFE0
03FFFFFFFFFFFFFF60
005FFFFFFFFFFFF800
00029DEFFFFFDA3000
ENDCHAR
STARTCHAR ebreve
ENCODING 277
SWIDTH 578 0
DWIDTH 16 0
BBX 18 27 -1 0
BITMAP
000000012210000000
000005CFFFFD700000
0000AFFFFFFFFC1000
0007FFFFFFFFFFA000
000DFFEEFFEEFFF100
000EFFA1EF46FFF200
000BFFE2000BFFE000
0003FFFECCEFFF6000
00009FFFFFFFFC0000
002CFFA88889FFE400
02EFF70111105FFF30
09FFF35FFFF71FFFC0
0EFFF26FFFF80FFFF2
1FFFF24BBBB60FFFF4
1FFFF20000000FFFF4
1FFFF25DDDDDDFFFF4
1FFFF26FFFFFFFFFF4
1FFFF26FFFFFFFFFF4
1FFFF33DEEECEFFFF4
1FFFF80000008FFFF4
1FFFFFCA999ADFFFF4
1FFFFFFFFFFFFFFFF4
0FFFFFFFFFFFFFFFF3
0BFFFFFFFFFFFFFFE0
03FFFFFFFFFFFFFF60
005FFFFFFFFFFFF800
00029DEFFFFFDA3000
ENDCHAR
STARTCHAR Edotaccent
ENCODING 278
SWIDTH 578 0
DWIDTH 16 0
BBX 18 27 -1 0
BITMAP
000000001220000000
0000018DFFFFB50000
00002DFFFFFFFF9000
0000CFFFFFFFFFF600
0003FFFFEACFFFFB00
0003FFFFD05FFFFC00
0001FFFFE9BFFFFA00
0000BFFFFFFFFFF500
00007FFFFFFFFFA000
002CFFB888888EE400
02EFFF8011111CFF30
09FFFF81FFFFFFFFC0
0EFFFF81FFFFFFFFF2
1FFFFF81FFFFFFFFF4
1FFFFF817777BFFFF4
1FFFFF8022229FFFF4
1FFFFF81FFFFFFFFF4
1FFFFF81FFFFFFFFF4
1FFFFF81FFFFFFFFF4
1FFFFF8055555BFFF4
1FFFFF9333333AFFF4
1FFFFFFFFFFFFFFFF4
0FFFFFFFFFFFFFFFF3
0BFFFFFFFFFFFFFFE0
03FFFFFFFFFFFFFF60
005FFFFFFFFFFFF800
00029DEFFFFFDA3000
ENDCHAR
STARTCHAR edotaccent
ENCODING 279
SWIDTH 578 0
DWIDTH 16 0
BBX 18 27 -1 0
BITMAP
000000012210000000
000005CFFFFD700000
0000AFFFFFFFFC1000
0007FFFFFFFFFFA000
000DFFFFAAFFFFF100
000EFFFF21FFFFF200
000CFFFFA9FFFFF000
0007FFFFFFFFFFA000
0001EFFFFFFFFF2000
002CFFA88889FFE400
02EFF70111105FFF30
09FFF35FFFF71FFFC0
0EFFF26FFFF80FFFF2
1FFFF24BBBB60FFFF4
1FFFF20000000FFFF4
1FFFF25DDDDDDFFFF4
1FFFF26FFFFFFFFFF4
1FFFF26FFFFFFFFFF4
1FFFF33DEEECEFFFF4
1FFFF80000008FFFF4
1FFFFFCA999ADFFFF4
1FFFFFFFFFFFFFFFF4
0FFFFFFFFFFFFFFFF3
0BFFFFFFFFFFFFFFE0
03FFFFFFFFFFFFFF60
005FFFFFFFFFFFF800
00029DEFFFFFDA3000
ENDCHAR
STARTCHAR Eogonek
ENCODING 280
SWIDTH 578 0
DWIDTH 16 0
BBX 18 19 -1 0
BITMAP
000049ABBBBB950000
002CFFB888888EE400
02EFFF8011111CFF30
09FFFF81FFFFFFFFC0
0EFFFF81FFFFFFFFF2
1FFFFF81FFFFFFFFF4
1FFFFF817777BFFFF4
1FFFFF8022229FFFF4
1FFFFF81FFFFFFFFF4
1FFFFF81FFFFFFFFF4
1FFFFF81FFFFFFFFF4
1FFFFF8055555BFFF4
1FFFFF9333330AFFF4
1FFFFFFFFFE45FFFF4
0FFFFFFFFF73FFFFF3
0BFFFFFFFF64EFFFE0
03FFFFFFFFC10AFF60
005FFFFFFFFEDEF800
00029DEFFFFFDA3000
ENDCHAR
STARTCHAR eogonek
ENCODING 281
SWIDTH 578 0
DWIDTH 16 0
BBX 18 19 -1 0
BITMAP
000049ABBBBB950000
002CFFA88889FFE400
02EFF70111105FFF30
09FFF35FFFF71FFFC0
0EFFF26FFFF80FFFF2
1FFFF24BBBB60FFFF4
1FFFF20000000FFFF4
1FFFF25DDDDDDFFFF4
1FFFF26FFFFFFFFFF4
1FFFF26FFFFFFFFFF4
1FFFF33DEEECEFFFF4
1FFFF80000008FFFF4
1FFFFFCA962ADFFFF4
1FFFFFFFA1CFFFFFF4
0FFFFFFF57FFFFFFF3
0BFFFFFF627EFFFFE0
03FFFFFFE65DFFFF60
005FFFFFFFFFFFF800
00029DEFFFFFDA3000
ENDCHAR
STARTCHAR Ecaron
ENCODING 282
SWIDTH 578 0
DWIDTH 16 0
BBX 18 27 -1 0
BITMAP
000000021001200000
000004DFFABFFD2000
00001EFFFFFFFFA000
00002FFA7FF4EFD000
00001FFE1FB3FFC000
00000CFF5B69FF9000
000008FFB62EFF5000
000003FFF47FFF1000
000049FFFFFFFF0000
002CFFFEEEEEEFE400
02EFFF8011111CFF30
09FFFF81FFFFFFFFC0
0EFFFF81FFFFFFFFF2
1FFFFF81FFFFFFFFF4
1FFFFF817777BFFFF4
1FFFFF8022229FFFF4
1FFFFF81FFFFFFFFF4
1FFFFF81FFFFFFFFF4
1FFFFF81FFFFFFFFF4
1FFFFF8055555BFFF4
1FFFFF9333333AFFF4
1FFFFFFFFFFFFFFFF4
0FFFFFFFFFFFFFFFF3
0BFFFFFFFFFFFFFFE0
03FFFFFFFFFFFFFF60
005FFFFFFFFFFFF800
00029DEFFFFFDA3000
ENDCHAR
STARTCHAR ecaron
ENCODING 283
SWIDTH 578 0
DWIDTH 16 0
BBX 18 27 -1 0
BITMAP
000000120012000000
00002CFFC9FFE40000
0000BFFFFFFFFE0000
0000EFD5FF7BFF1000
0000CFF3CE1EFF0000
00009FF87A6FFC0000
00005FFE35BFF80000
00001EFF64FFF40000
00004FFFFFFFF60000
002CFFFEEEEFFFE400
02EFF70111105FFF30
09FFF35FFFF71FFFC0
0EFFF26FFFF80FFFF2
1FFFF24BBBB60FFFF4
1FFFF20000000FFFF4
1FFFF25DDDDDDFFFF4
1FFFF26FFFFFFFFFF4
1FFFF26FFFFFFFFFF4
1FFFF33DEEECEFFFF4
1FFFF80000008FFFF4
1FFFFFCA999ADFFFF4
1FFFFFFFFFFFFFFFF4
0FFFFFFFFFFFFFFFF3
0BFFFFFFFFFFFFFFE0
03FFFFFFFFFFFFFF60
005FFFFFFFFFFFF800
00029DEFFFFFDA3000
ENDCHAR
STARTCHAR Gcircumflex
ENCODING 284
SWIDTH 578 0
DWIDTH 16 0
BBX 18 27 -1 0
BITMAP
00000008DFD5000000
0000007FFFFF400000
000001EFEAFFB00000
000006FF72AFF30000
00000DFF2B5FF90000
00003FFA5F2EFE0000
00008FF4AF68FF4000
00009FFAEFDCFF5000
0000BFFFFFFFFF3000
002CFFFFEEEEFFE400
02EFFE2011110BFF30
09FFFB0BFFFFEFFFC0
0EFFFA0DFFFFFFFFF2
1FFFFA0DFFFFFFFFF4
1FFFFA0DFFFFFFFFF4
1FFFFA0DFF1000FFF4
1FFFFA0DFF8840FFF4
1FFFFA0DFFFF80FFF4
1FFFFA0CFFFF80FFF4
1FFFFD03555512FFF4
1FFFFFA433335CFFF4
1FFFFFFFFFFFFFFFF4
0FFFFFFFFFFFFFFFF3
0BFFFFFFFFFFFFFFE0
03FFFFFFFFFFFFFF60
005FFFFFFFFFFFF800
00029DEFFFFFDA3000
ENDCHAR
STARTCHAR gcircumflex
ENCODING 285
SWIDTH 578 0
DWIDTH 16 0
BBX 18 27 -1 0
BITMAP
00000008DFD5000000
0000007FFFFF400000
000001EFEAFFB00000
000006FF72AFF30000
00000DFF2B5FF90000
00003FFA5F2EFE0000
00008FF4AF68FF4000
00009FFAEFDCFF5000
0000BFFFFFFFFF3000
002CFFFFEEEEFFE400
02EFFE2011110BFF30
09FFFB0BFFFFEFFFC0
0EFFFA0DFFFFFFFFF2
1FFFFA0DFFFFFFFFF4
1FFFFA0DFFFFFFFFF4
1FFFFA0DFF1000FFF4
1FFFFA0DFF8840FFF4
1FFFFA0DFFFF80FFF4
1FFFFA0CFFFF80FFF4
1FFFFD03555512FFF4
1FFFFFA433335CFFF4
1FFFFFFFFFFFFFFFF4
0FFFFFFFFFFFFFFFF3
0BFFFFFFFFFFFFFFE0
03FFFFFFFFFFFFFF60
005FFFFFFFFFFFF800
00029DEFFFFFDA3000
ENDCHAR
STARTCHAR Gbreve
ENCODING 286
SWIDTH 578 0
DWIDTH 16 0
BBX 18 27 -1 0
BITMAP
000000002210000000
000003AEFFFE920000
00007FFFFFFFFE4000
0003FFFFFFFFFFE100
0009FFFEFFFEFFF500
000AFFE0BF82FFF600
0007FFF40008FFF300
0001DFFFCCDFFFA000
00007FFFFFFFFF1000
002CFFD988889DE400
02EFFE2011110BFF30
09FFFB0BFFFFEFFFC0
0EFFFA0DFFFFFFFFF2
1FFFFA0DFFFFFFFFF4
1FFFFA0DFFFFFFFFF4
1FFFFA0DFF1000FFF4
1FFFFA0DFF8840FFF4
1FFFFA0DFFFF80FFF4
1FFFFA0CFFFF80FFF4
1FFFFD03555512FFF4
1FFFFFA433335CFFF4
1FFFFFFFFFFFFFFFF4
0FFFFFFFFFFFFFFFF3
0BFFFFFFFFFFFFFFE0
03FFFFFFFFFFFFFF60
005FFFFFFFFFFFF800
00029DEFFFFFDA3000
ENDCHAR
STARTCHAR gbreve
ENCODING 287
SWIDTH 578 0
DWIDTH 16 0
BBX 18 27 -1 0
BITMAP
000000012210000000
000005CFFFFD700000
0000AFFFFFFFFC1000
0007FFFFFFFFFFA000
000DFFEEFFEEFFF100
000EFFA1EF46FFF200
000BFFE2000BFFE000
0003FFFECCEFFF6000
00009FFFFFFFFC0000
002CFFD988889DE400
02EFFE2011110BFF30
09FFFB0BFFFFEFFFC0
0EFFFA0DFFFFFFFFF2
1FFFFA0DFFFFFFFFF4
1FFFFA0DFFFFFFFFF4
1FFFFA0DFF1000FFF4
1FFFFA0DFF8840FFF4
1FFFFA0DFFFF80FFF4
1FFFFA0CFFFF80FFF4
1FFFFD03555512FFF4
1FFFFFA433335CFFF4
1FFFFFFFFFFFFFFFF4
0FFFFFFFFFFFFFFFF3
0BFFFFFFFFFFFFFFE0
03FFFFFFFFFFFFFF60
005FFFFFFFFFFFF800
00029DEFFFFFDA3000
ENDCHAR
STARTCHAR Gdotaccent
ENCODING 288
SWIDTH 578 0
DWIDTH 16 0
BBX 18 27 -1 0
BITMAP
000000012210000000
000005CFFFFD700000
0000AFFFFFFFFC1000
0007FFFFFFFFFFA000
000DFFFFAAFFFFF100
000EFFFF21FFFFF200
000CFFFFA9FFFFF000
0007FFFFFFFFFFA000
0001EFFFFFFFFF2000
002CFFD988889DE400
02EFFE2011110BFF30
09FFFB0BFFFFEFFFC0
0EFFFA0DFFFFFFFFF2
1FFFFA0DFFFFFFFFF4
1FFFFA0DFFFFFFFFF4
1FFFFA0DFF1000FFF4
1FFFFA0DFF8840FFF4
1FFFFA0DFFFF80FFF4
1FFFFA0CFFFF80FFF4
1FFFFD03555512FFF4
1FFFFFA433335CFFF4
1FFFFFFFFFFFFFFFF4
0FFFFFFFFFFFFFFFF3
0BFFFFFFFFFFFFFFE0
03FFFFFFFFFFFFFF60
005FFFFFFFFFFFF800
00029DEFFFFFDA3000
ENDCHAR
STARTCHAR gdotaccent
ENCODING 289
SWIDTH 578 0
DWIDTH 16 0
BBX 18 27 -1 0
BITMAP
000000012210000000
000005CFFFFD700000
0000AFFFFFFFFC1000
0007FFFFFFFFFFA000
000DFFFFAAFFFFF100
000EFFFF21FFFFF200
000CFFFFA9FFFFF000
0007FFFFFFFFFFA000
0001EFFFFFFFFF2000
002CFFD988889DE400
02EFFE2011110BFF30
09FFFB0BFFFFEFFFC0
0EFFFA0DFFFFFFFFF2
1FFFFA0DFFFFFFFFF4
1FFFFA0DFFFFFFFFF4
1FFFFA0DFF1000FFF4
1FFFFA0DFF8840FFF4
1FFFFA0DFFFF80FFF4
1FFFFA0CFFFF80FFF4
1FFFFD03555512FFF4
1FFFFFA433335CFFF4
1FFFFFFFFFFFFFFFF4
0FFFFFFFFFFFFFFFF3
0BFFFFFFFFFFFFFFE0
03FFFFFFFFFFFFFF60
005FFFFFFFFFFFF800
00029DEFFFFFDA3000
ENDCHAR
STARTCHAR Gcommaaccent
ENCODING 290
SWIDTH 578 0
DWIDTH 16 0
BBX 18 19 -1 0
BITMAP
000049ABBBBB950000
002CFFD988889DE400
02EFFE2011110BFF30
09FFFB0BFFFFEFFFC0
0EFFFA0DFFFFFFFFF2
1FFFFA0DFFFFFFFFF4
1FFFFA0DFFFFFFFFF4
1FFFFA0DFF1000FFF4
1FFFFA0DFF8840FFF4
1FFFFA0DFFFF80FFF4
1FFFFA0CFFFF80FFF4
1FFFFD03555512FFF4
1FFFFFA433335CFFF4
1FFFFFFFFDDFFFFFF4
0FFFFFFFD01FFFFFF3
0BFFFFFFE41FFFFFE0
03FFFFFFF67FFFFF60
005FFFFFFDEFFFF800
00029DEFFFFFDA3000
ENDCHAR
STARTCHAR gcommaaccent
ENCODING 291
SWIDTH 578 0
DWIDTH 16 0
BBX 18 19 -1 0
BITMAP
000049ABBBBB950000
002CFFD988889DE400
02EFFE2011110BFF30
09FFFB0BFFFFEFFFC0
0EFFFA0DFFFFFFFFF2
1FFFFA0DFFFFFFFFF4
1FFFFA0DFFFFFFFFF4
1FFFFA0DFF1000FFF4
1FFFFA0DFF8840FFF4
1FFFFA0DFFFF80FFF4
1FFFFA0CFFFF80FFF4
1FFFFD03555512FFF4
1FFFFFA433335CFFF4
1FFFFFFFFDDFFFFFF4
0FFFFFFFD01FFFFFF3
0BFFFFFFE41FFFFFE0
03FFFFFFF67FFFFF60
005FFFFFFDEFFFF800
00029DEFFFFFDA3000
ENDCHAR
STARTCHAR Hcircumflex
ENCODING 292
SWIDTH 578 0
DWIDTH 16 0
BBX 18 27 -1 0
BITMAP
00000008DFD6000000
0000006FFFFF400000
000000DFEAEFC00000
000005FF829FF40000
00000CFF2B4FFA0000
00002FFB4F2DFF1000
00007FF59F77FF5000
00008FFBEFEBFF6000
0000AFFFFFFFFF3000
002CFFFFFFFFFCD400
02EFF71FFFFF90EF30
09FFF71FFFFF90EFC0
0EFFF71FFFFF90EFF2
1FFFF71FFFFF90EFF4
1FFFF704444430EFF4
1FFFF704444430EFF4
1FFFF71FFFFF90EFF4
1FFFF71FFFFF90EFF4
1FFFF71FFFFF90EFF4
1FFFF71FFFFF90EFF4
1FFFF94FFFFFA3EFF4
1FFFFFFFFFFFFFFFF4
0FFFFFFFFFFFFFFFF3
0BFFFFFFFFFFFFFFE0
03FFFFFFFFFFFFFF60
005FFFFFFFFFFFF800
00029DEFFFFFDA3000
ENDCHAR
STARTCHAR hcircumflex
ENCODING 293
SWIDTH 578 0
DWIDTH 16 0
BBX 18 27 -1 0
BITMAP
00000006DFD7000000
0000005FFFFF600000
000000CFEAEFD00000
000004FF928FF50000
00000AFF3B2FFC0000
00001FFD3F4BFF2000
00005FF77F95FF6000
00007FFBEFEBFF8000
00008FFFFFFFFF5000
002CFFFFFFFFFDD400
02EFF71FFFFF90EF30
09FFF71FFFFF90EFC0
0EFFF71FFFFF90EFF2
1FFFF71FFFFF90EFF4
1FFFF704444430EFF4
1FFFF704444430EFF4
1FFFF71FFFFF90EFF4
1FFFF71FFFFF90EFF4
1FFFF71FFFFF90EFF4
1FFFF71FFFFF90EFF4
1FFFF94FFFFFA3EFF4
1FFFFFFFFFFFFFFFF4
0FFFFFFFFFFFFFFFF3
0BFFFFFFFFFFFFFFE0
03FFFFFFFFFFFFFF60
005FFFFFFFFFFFF800
00029DEFFFFFDA3000
ENDCHAR
STARTCHAR Hbar
ENCODING 294
SWIDTH 578 0
DWIDTH 16 0
BBX 18 27 -1 0
BITMAP
000000002210000000
000003AEFFFE920000
00007FFFFFFFFE4000
0003FFFFFFFFFFE100
0009FFDAAAABFFF500
000AFF900004FFF600
0007FFEDDDDDFFF300
0001DFFFFFFFFFA000
00007FFFFFFFFF1000
002CFB8FFFFFC8D400
02EFF71FFFFF90EF30
09FFF71FFFFF90EFC0
0EFFF71FFFFF90EFF2
1FFFF71FFFFF90EFF4
1FFFF704444430EFF4
1FFFF704444430EFF4
1FFFF71FFFFF90EFF4
1FFFF71FFFFF90EFF4
1FFFF71FFFFF90EFF4
1FFFF71FFFFF90EFF4
1FFFF94FFFFFA3EFF4
1FFFFFFFFFFFFFFFF4
0FFFFFFFFFFFFFFFF3
0BFFFFFFFFFFFFFFE0
03FFFFFFFFFFFFFF60
005FFFFFFFFFFFF800
00029DEFFFFFDA3000
ENDCHAR
STARTCHAR hbar
ENCODING 295
SWIDTH 578 0
DWIDTH 16 0
BBX 18 19 -1 0
BITMAP
000049ABBBBB950000
002CFB8FFFFFC8D400
02EFF71FFFFF90EF30
09FFE2055555307FC0
0EFFE3066666408FF2
1FFFF71FFFFF90EFF4
1FFFF704444430EFF4
1FFFF704444430EFF4
1FFFF71FFFFF90EFF4
1FFFF71FFFFF90EFF4
1FFFF71FFFFF90EFF4
1FFFF71FFFFF90EFF4
1FFFF94FFFFFA3EFF4
1FFFFFFFFFFFFFFFF4
0FFFFFFFFFFFFFFFF3
0BFFFFFFFFFFFFFFE0
03FFFFFFFFFFFFFF60
005FFFFFFFFFFFF800
00029DEFFFFFDA3000
ENDCHAR
STARTCHAR Itilde
ENCODING 296
SWIDTH 578 0
DWIDTH 16 0
BBX 18 27 -1 0
BITMAP
00000039DFFC810000
000007FFFFFFFE4000
00005FFFFFFFFFE200
0000DFFFFFFFFFF900
0001FFFFFFFFFFFD00
0002FFF659E66FFE00
0000EFB072106FFB00
00009FDBFFCAEFF500
00005FFFFFFFFFA000
002CFE88888889E400
02EFFD11100114FF30
09FFFFFFF26FFFFFC0
0EFFFFFFF26FFFFFF2
1FFFFFFFF26FFFFFF4
1FFFFFFFF26FFFFFF4
1FFFFFFFF26FFFFFF4
1FFFFFFFF26FFFFFF4
1FFFFFFFF26FFFFFF4
1FFFFFFFF26FFFFFF4
1FFFFE55512557FFF4
1FFFFE33333335FFF4
1FFFFFFFFFFFFFFFF4
0FFFFFFFFFFFFFFFF3
0BFFFFFFFFFFFFFFE0
03FFFFFFFFFFFFFF60
005FFFFFFFFFFFF800
00029DEFFFFFDA3000
ENDCHAR
STARTCHAR itilde
ENCODING 297
SWIDTH 578 0
DWIDTH 16 0
BBX 18 27 -1 0
BITMAP
00000039DFEC810000
000008FFFFFFFE3000
00006FFFFFFFFFE200
0000EFFFFFFFFFF800
0002FFFFFFFFFFFC00
0003FFE669F57FFD00
0001FFA072108FFA00
0000AFDBFFBAEFF400
00006FFFFFFFFF9000
002CFE88888889E400
02EFFD11100114FF30
09FFFFFFF26FFFFFC0
0EFFFFFFF26FFFFFF2
1FFFFFFFF26FFFFFF4
1FFFFFFFF26FFFFFF4
1FFFFFFFF26FFFFFF4
1FFFFFFFF26FFFFFF4
1FFFFFFFF26FFFFFF4
1FFFFFFFF26FFFFFF4
1FFFFE55512557FFF4
1FFFFE33333335FFF4
1FFFFFFFFFFFFFFFF4
0FFFFFFFFFFFFFFFF3
0BFFFFFFFFFFFFFFE0
03FFFFFFFFFFFFFF60
005FFFFFFFFFFFF800
00029DEFFFFFDA3000
ENDCHAR
STARTCHAR Imacron
ENCODING 298
SWIDTH 578 0
DWIDTH 16 0
BBX 18 27 -1 0
BITMAP
000000001220000000
0000018DFFFFB40000
00003EFFFFFFFF8000
0000DFFFFFFFFFF500
0003FFFAAAAAEFFA00
0004FFF00000DFFB00
0002FFFDDDDDFFF800
00009FFFFFFFFFE100
00005FFFFFFFFF3000
002CFE88888889E400
02EFFD11100114FF30
09FFFFFFF26FFFFFC0
0EFFFFFFF26FFFFFF2
1FFFFFFFF26FFFFFF4
1FFFFFFFF26FFFFFF4
1FFFFFFFF26FFFFFF4
1FFFFFFFF26FFFFFF4
1FFFFFFFF26FFFFFF4
1FFFFFFFF26FFFFFF4
1FFFFE55512557FFF4
1FFFFE33333335FFF4
1FFFFFFFFFFFFFFFF4
0FFFFFFFFFFFFFFFF3
0BFFFFFFFFFFFFFFE0
03FFFFFFFFFFFFFF60
005FFFFFFFFFFFF800
00029DEFFFFFDA3000
ENDCHAR
STARTCHAR imacron
ENCODING 299
SWIDTH 578 0
DWIDTH 16 0
BBX 18 27 -1 0
BITMAP
000000001220000000
0000018DFFFEB40000
00003EFFFFFFFF8000
0000DFFFFFFFFFF400
0004FFFAAAAAFFFA00
0005FFE00000EFFA00
0002FFFDDDDDFFF700
00009FFFFFFFFFD100
00005FFFFFFFFF3000
002CFE88888889E400
02EFFD11100114FF30
09FFFFFFF26FFFFFC0
0EFFFFFFF26FFFFFF2
1FFFFFFFF26FFFFFF4
1FFFFFFFF26FFFFFF4
1FFFFFFFF26FFFFFF4
1FFFFFFFF26FFFFFF4
1FFFFFFFF26FFFFFF4
1FFFFFFFF26FFFFFF4
1FFFFE55512557FFF4
1FFFFE33333335FFF4
1FFFFFFFFFFFFFFFF4
0FFFFFFFFFFFFFFFF3
0BFFFFFFFFFFFFFFE0
03FFFFFFFFFFFFFF60
005FFFFFFFFFFFF800
00029DEFFFFFDA3000
ENDCHAR
STARTCHAR Ibreve
ENCODING 300
SWIDTH 578 0
DWIDTH 16 0
BBX 18 27 -1 0
BITMAP
000000001221000000
0000017DFFFFC50000
00001CFFFFFFFFA000
0000AFFFFFFFFFF700
0001FFFEEFFEEFFD00
0002FFF74FE29FFE00
0000EFFC1002DFFB00
00006FFFECCEFFF300
00004FFFFFFFFF5000
002CFE88888889E400
02EFFD11100114FF30
09FFFFFFF26FFFFFC0
0EFFFFFFF26FFFFFF2
1FFFFFFFF26FFFFFF4
1FFFFFFFF26FFFFFF4
1FFFFFFFF26FFFFFF4
1FFFFFFFF26FFFFFF4
1FFFFFFFF26FFFFFF4
1FFFFFFFF26FFFFFF4
1FFFFE55512557FFF4
1FFFFE33333335FFF4
1FFFFFFFFFFFFFFFF4
0FFFFFFFFFFFFFFFF3
0BFFFFFFFFFFFFFFE0
03FFFFFFFFFFFFFF60
005FFFFFFFFFFFF800
00029DEFFFFFDA3000
ENDCHAR
STARTCHAR ibreve
ENCODING 301
SWIDTH 578 0
DWIDTH 16 0
BBX 18 27 -1 0
BITMAP
000000001220000000
0000018DFFFFB50000
00002DFFFFFFFFA000
0000CFFFFFFFFFF600
0002FFFEEFFEFFFC00
0003FFF65FE1BFFC00
0001EFFB0002EFF900
00007FFFECCEFFE200
00004FFFFFFFFF4000
002CFE88888889E400
02EFFD11100114FF30
09FFFFFFF26FFFFFC0
0EFFFFFFF26FFFFFF2
1FFFFFFFF26FFFFFF4
1FFFFFFFF26FFFFFF4
1FFFFFFFF26FFFFFF4
1FFFFFFFF26FFFFFF4
1FFFFFFFF26FFFFFF4
1FFFFFFFF26FFFFFF4
1FFFFE55512557FFF4
1FFFFE33333335FFF4
1FFFFFFFFFFFFFFFF4
0FFFFFFFFFFFFFFFF3
0BFFFFFFFFFFFFFFE0
03FFFFFFFFFFFFFF60
005FFFFFFFFFFFF800
00029DEFFFFFDA3000
ENDCHAR
STARTCHAR Iogonek
ENCODING 302
SWIDTH 578 0
DWIDTH 16 0
BBX 18 19 -1 0
BITMAP
000049ABBBBB950000
002CFE88888889E400
02EFFD11100114FF30
09FFFFFFF26FFFFFC0
0EFFFFFFF26FFFFFF2
1FFFFFFFF26FFFFFF4
1FFFFFFFF26FFFFFF4
1FFFFFFFF26FFFFFF4
1FFFFFFFF26FFFFFF4
1FFFFFFFF26FFFFFF4
1FFFFFFFF26FFFFFF4
1FFFFE55512557FFF4
1FFFFE33333323FFF4
1FFFFFFFFFFA2CFFF4
0FFFFFFFFFE0AFFFF3
0BFFFFFFFFE0BEFFE0
03FFFFFFFFF503FF60
005FFFFFFFFFEDF800
00029DEFFFFFDA3000
ENDCHAR
STARTCHAR iogonek
ENCODING 303
SWIDTH 578 0
DWIDTH 16 0
BBX 18 19 -1 0
BITMAP
000049ABBBBB950000
002CFE88888889E400
02EFFD11100114FF30
09FFFFFFF26FFFFFC0
0EFFFFFFF26FFFFFF2
1FFFFFFFF26FFFFFF4
1FFFFFFFF26FFFFFF4
1FFFFFFFF26FFFFFF4
1FFFFFFFF26FFFFFF4
1FFFFFFFF26FFFFFF4
1FFFFFFFF26FFFFFF4
1FFFFE55512557FFF4
1FFFFE33333323FFF4
1FFFFFFFFFFA2CFFF4
0FFFFFFFFFF0AFFFF3
0BFFFFFFFFE0AEFFE0
03FFFFFFFFF503FF60
005FFFFFFFFFEDF800
00029DEFFFFFDA3000
ENDCHAR
STARTCHAR Idotaccent
ENCODING 304
SWIDTH 578 0
DWIDTH 16 0
BBX 18 27 -1 0
BITMAP
000000002210000000
000003AEFFFE920000
00007FFFFFFFFE4000
0003FFFFFFFFFFE100
0009FFFFCAEFFFF500
000AFFFF70CFFFF600
0007FFFFC9EFFFF400
0002FFFFFFFFFFE000
0000CFFFFFFFFF5000
002CFE88888889E400
02EFFD11100114FF30
09FFFFFFF26FFFFFC0
0EFFFFFFF26FFFFFF2
1FFFFFFFF26FFFFFF4
1FFFFFFFF26FFFFFF4
1FFFFFFFF26FFFFFF4
1FFFFFFFF26FFFFFF4
1FFFFFFFF26FFFFFF4
1FFFFFFFF26FFFFFF4
1FFFFE55512557FFF4
1FFFFE33333335FFF4
1FFFFFFFFFFFFFFFF4
0FFFFFFFFFFFFFFFF3
0BFFFFFFFFFFFFFFE0
03FFFFFFFFFFFFFF60
005FFFFFFFFFFFF800
00029DEFFFFFDA3000
ENDCHAR
STARTCHAR dotlessi
ENCODING 305
SWIDTH 578 0
DWIDTH 16 0
BBX 18 19 -1 0
BITMAP
000049ABBBBB950000
002CFE88888889E400
02EFFD11100114FF30
09FFFFFFF26FFFFFC0
0EFFFFFFF26FFFFFF2
1FFFFFFFF26FFFFFF4
1FFFFFFFF26FFFFFF4
1FFFFFFFF26FFFFFF4
1FFFFFFFF26FFFFFF4
1FFFFFFFF26FFFFFF4
1FFFFFFFF26FFFFFF4
1FFFFE55512557FFF4
1FFFFE33333335FFF4
1FFFFFFFFFFFFFFFF4
0FFFFFFFFFFFFFFFF3
0BFFFFFFFFFFFFFFE0
03FFFFFFFFFFFFFF60
005FFFFFFFFFFFF800
00029DEFFFFFDA3000
ENDCHAR
STARTCHAR IJ
ENCODING 306
SWIDTH 578 0
DWIDTH 16 0
BBX 18 19 -1 0
BITMAP
000049ABBBBB950000
002888888EFFF89400
02E710011DFFF27F30
09FFF80FFFFFF27FC0
0EFFF80FFFFFF27FF2
1FFFF80FFFFFF27FF4
1FFFF80FFFFFF27FF4
1FFFF80FFFFFF27FF4
1FFFF80FFFFFF27FF4
1FFFF80FFFFFF27FF4
1FFFF80FFFFFF17FF4
1FFA53055E55407FF4
1FF933333E3347FFF4
1FFFFFFFFFFFFFFFF4
0FFFFFFFFFFFFFFFF3
0BFFFFFFFFFFFFFFE0
03FFFFFFFFFFFFFF60
005FFFFFFFFFFFF800
00029DEFFFFFDA3000
ENDCHAR
STARTCHAR ij
ENCODING 307
SWIDTH 578 0
DWIDTH 16 0
BBX 18 19 -1 0
BITMAP
000049ABBBBB950000
002888888EFFF89400
02E710011DFFF27F30
09FFF80FFFFFF27FC0
0EFFF80FFFFFF27FF2
1FFFF80FFFFFF27FF4
1FFFF80FFFFFF27FF4
1FFFF80FFFFFF27FF4
1FFFF80FFFFFF27FF4
1FFFF80FFFFFF27FF4
1FFFF80FFFFFF17FF4
1FFA53055E55407FF4
1FF933333E3347FFF4
1FFFFFFFFFFFFFFFF4
0FFFFFFFFFFFFFFFF3
0BFFFFFFFFFFFFFFE0
03FFFFFFFFFFFFFF60
005FFFFFFFFFFFF800
00029DEFFFFFDA3000
ENDCHAR
STARTCHAR Jcircumflex
ENCODING 308
SWIDTH 578 0
DWIDTH 16 0
BBX 18 27 -1 0
BITMAP
00000005DFE8000000
0000003FFFFF800000
000000AFFADFE10000
000002FFB26FF70000
000009FF5B2EFD0000
00000EFE2F5AFF4000
00003FF86FA4FF8000
00005FFCDFFAFFA000
00007FFFFFFFFF6000
002CFFFFFFFFFFE400
02EFFFFFFF54FFFF30
09FFFFFFFF54FFFFC0
0EFFFFFFFF54FFFFF2
1FFFFFFFFF54FFFFF4
1FFFFFFFFF54FFFFF4
1FFFFFFFFF54FFFFF4
1FFFFFFFFF54FFFFF4
1FFFFFFFFF54FFFFF4
1FFFFFFFFF44FFFFF4
1FFFFFF75504FFFFF4
1FFFFFF5336EFFFFF4
1FFFFFFFFFFFFFFFF4
0FFFFFFFFFFFFFFFF3
0BFFFFFFFFFFFFFFE0
03FFFFFFFFFFFFFF60
005FFFFFFFFFFFF800
00029DEFFFFFDA3000
ENDCHAR
STARTCHAR jcircumflex
ENCODING 309
SWIDTH 578 0
DWIDTH 16 0
BBX 18 27 -1 0
BITMAP
00000005DFE8000000
0000003FFFFF800000
000000AFFADFE10000
000002FFB26FF70000
000009FF5B2EFD0000
00000EFE2F5AFF4000
00003FF86FA4FF8000
00005FFCDFFAFFA000
00007FFFFFFFFF6000
002CFFFFFFFFFFE400
02EFFFFFFF54FFFF30
09FFFFFFFF54FFFFC0
0EFFFFFFFF54FFFFF2
1FFFFFFFFF54FFFFF4
1FFFFFFFFF54FFFFF4
1FFFFFFFFF54FFFFF4
1FFFFFFFFF54FFFFF4
1FFFFFFFFF54FFFFF4
1FFFFFFFFF44FFFFF4
1FFFFFF75504FFFFF4
1FFFFFF5336EFFFFF4
1FFFFFFFFFFFFFFFF4
0FFFFFFFFFFFFFFFF3
0BFFFFFFFFFFFFFFE0
03FFFFFFFFFFFFFF60
005FFFFFFFFFFFF800
00029DEFFFFFDA3000
ENDCHAR
STARTCHAR Kcommaaccent
ENCODING 310
SWIDTH 578 0
DWIDTH 16 0
BBX 18 19 -1 0
BITMAP
000049ABBBBB950000
002CFFC8FFFFF6C400
02EFFF90FFFF40AF30
09FFFF90FFF409FFC0
0EFFFF90FE409FFFF2
1FFFFF90E409FFFFF4
1FFFFF9040AFFFFFF4
1FFFFF90008FFFFFF4
1FFFFF90C60AFFFFF4
1FFFFF90FF40BFFFF4
1FFFFF90FFE21DFFF4
1FFFFF90FFFD12DFF4
1FFFFFA3FFFFC3DFF4
1FFFFFFFFDDFFFFFF4
0FFFFFFFD01FFFFFF3
0BFFFFFFE41FFFFFE0
03FFFFFFF67FFFFF60
005FFFFFFDEFFFF800
00029DEFFFFFDA3000
ENDCHAR
STARTCHAR kcommaaccent
ENCODING 311
SWIDTH 578 0
DWIDTH 16 0
BBX 18 19 -1 0
BITMAP
000049ABBBBB950000
002CFFC8FFFFF6C400
02EFFF90FFFF40AF30
09FFFF90FFF409FFC0
0EFFFF90FE409FFFF2
1FFFFF90E409FFFFF4
1FFFFF9040AFFFFFF4
1FFFFF90008FFFFFF4
1FFFFF90C60AFFFFF4
1FFFFF90FF40BFFFF4
1FFFFF90FFE21DFFF4
1FFFFF90FFFD12DFF4
1FFFFFA3FFFFC3DFF4
1FFFFFFFFDDFFFFFF4
0FFFFFFFD01FFFFFF3
0BFFFFFFE41FFFFFE0
03FFFFFFF67FFFFF60
005FFFFFFDEFFFF800
00029DEFFFFFDA3000
ENDCHAR
STARTCHAR kgreenlandic
ENCODING 312
SWIDTH 578 0
DWIDTH 16 0
BBX 18 19 -1 0
BITMAP
000049ABBBBB950000
002CFFC8FFFFF6C400
02EFFF90FFFF40AF30
09FFFF90FFF409FFC0
0EFFFF90FE409FFFF2
1FFFFF90E409FFFFF4
1FFFFF9040AFFFFFF4
1FFFFF90008FFFFFF4
1FFFFF90C60AFFFFF4
1FFFFF90FF40BFFFF4
1FFFFF90FFE21DFFF4
1FFFFF90FFFD12DFF4
1FFFFFA3FFFFC3DFF4
1FFFFFFFFFFFFFFFF4
0FFFFFFFFFFFFFFFF3
0BFFFFFFFFFFFFFFE0
03FFFFFFFFFFFFFF60
005FFFFFFFFFFFF800
00029DEFFFFFDA3000
ENDCHAR
STARTCHAR Lacute
ENCODING 313
SWIDTH 578 0
DWIDTH 16 0
BBX 18 28 -1 0
BITMAP
000000015641000000
0000006FFFFE600000
000000EFFFFFF40000
000004FFA0CFF60000
000009FF53FFF30000
00000DFF1AFFA00000
00002FFB2FFE200000
00004FFBBFF8000000
00001DFFFFD1000000
00004BFFFFFB950000
002CFFF9BFFFFFE400
02EFFFF26FFFFFFF30
09FFFFF26FFFFFFFC0
0EFFFFF26FFFFFFFF2
1FFFFFF26FFFFFFFF4
1FFFFFF26FFFFFFFF4
1FFFFFF26FFFFFFFF4
1FFFFFF26FFFFFFFF4
1FFFFFF26FFFFFFFF4
1FFFFFF26FFFFFFFF4
1FFFFFF225557FFFF4
1FFFFFF533335FFFF4
1FFFFFFFFFFFFFFFF4
0FFFFFFFFFFFFFFFF3
0BFFFFFFFFFFFFFFE0
03FFFFFFFFFFFFFF60
005FFFFFFFFFFFF800
00029DEFFFFFDA3000
ENDCHAR
STARTCHAR lacute
ENCODING 314
SWIDTH 578 0
DWIDTH 16 0
BBX 18 28 -1 0
BITMAP
000000015641000000
0000006FFFFE600000
000000EFFFFFF40000
000004FFA0CFF60000
000009FF53FFF30000
00000DFF1AFFA00000
00002FFB2FFE200000
00004FFBBFF8000000
00001DFFFFD1000000
00004BFFFFFB950000
002CFFF9BFFFFFE400
02EFFFF26FFFFFFF30
09FFFFF26FFFFFFFC0
0EFFFFF26FFFFFFFF2
1FFFFFF26FFFFFFFF4
1FFFFFF26FFFFFFFF4
1FFFFFF26FFFFFFFF4
1FFFFFF26FFFFFFFF4
1FFFFFF26FFFFFFFF4
1FFFFFF26FFFFFFFF4
1FFFFFF225557FFFF4
1FFFFFF533335FFFF4
1FFFFFFFFFFFFFFFF4
0FFFFFFFFFFFFFFFF3
0BFFFFFFFFFFFFFFE0
03FFFFFFFFFFFFFF60
005FFFFFFFFFFFF800
00029DEFFFFFDA3000
ENDCHAR
STARTCHAR Lcommaaccent
ENCODING 315
SWIDTH 578 0
DWIDTH 16 0
BBX 18 19 -1 0
BITMAP
000049ABBBBB950000
002CFFF9BFFFFFE400
02EFFFF26FFFFFFF30
09FFFFF26FFFFFFFC0
0EFFFFF26FFFFFFFF2
1FFFFFF26FFFFFFFF4
1FFFFFF26FFFFFFFF4
1FFFFFF26FFFFFFFF4
1FFFFFF26FFFFFFFF4
1FFFFFF26FFFFFFFF4
1FFFFFF26FFFFFFFF4
1FFFFFF225557FFFF4
1FFFFFF533335FFFF4
1FFFFFFFFDDFFFFFF4
0FFFFFFFD01FFFFFF3
0BFFFFFFE41FFFFFE0
03FFFFFFF67FFFFF60
005FFFFFFDEFFFF800
00029DEFFFFFDA3000
ENDCHAR
STARTCHAR lcommaaccent
ENCODING 316
SWIDTH 578 0
DWIDTH 16 0
BBX 18 19 -1 0
BITMAP
000049ABBBBB950000
002CFFF9BFFFFFE400
02EFFFF26FFFFFFF30
09FFFFF26FFFFFFFC0
0EFFFFF26FFFFFFFF2
1FFFFFF26FFFFFFFF4
1FFFFFF26FFFFFFFF4
1FFFFFF26FFFFFFFF4
1FFFFFF26FFFFFFFF4
1FFFFFF26FFFFFFFF4
1FFFFFF26FFFFFFFF4
1FFFFFF225557FFFF4
1FFFFFF533335FFFF4
1FFFFFFFFDDFFFFFF4
0FFFFFFFD01FFFFFF3
0BFFFFFFE41FFFFFE0
03FFFFFFF67FFFFF60
005FFFFFFDEFFFF800
00029DEFFFFFDA3000
ENDCHAR
STARTCHAR Lcaron
ENCODING 317
SWIDTH 578 0
DWIDTH 16 0
BBX 18 19 -1 0
BITMAP
000049ABBBBB950000
002CFFF9BFB8BFE400
02EFFFF26F707FFF30
09FFFFF26FD29FFFC0
0EFFFFF26FE3FFFFF2
1FFFFFF26FFFFFFFF4
1FFFFFF26FFFFFFFF4
1FFFFFF26FFFFFFFF4
1FFFFFF26FFFFFFFF4
1FFFFFF26FFFFFFFF4
1FFFFFF26FFFFFFFF4
1FFFFFF225557FFFF4
1FFFFFF533335FFFF4
1FFFFFFFFFFFFFFFF4
0FFFFFFFFFFFFFFFF3
0BFFFFFFFFFFFFFFE0
03FFFFFFFFFFFFFF60
005FFFFFFFFFFFF800
00029DEFFFFFDA3000
ENDCHAR
STARTCHAR lcaron
ENCODING 318
SWIDTH 578 0
DWIDTH 16 0
BBX 18 19 -1 0
BITMAP
000049ABBBBB950000
002CFFF9BFB8BFE400
02EFFFF26F707FFF30
09FFFFF26FD29FFFC0
0EFFFFF26FE3FFFFF2
1FFFFFF26FFFFFFFF4
1FFFFFF26FFFFFFFF4
1FFFFFF26FFFFFFFF4
1FFFFFF26FFFFFFFF4
1FFFFFF26FFFFFFFF4
1FFFFFF26FFFFFFFF4
1FFFFFF225557FFFF4
1FFFFFF533335FFFF4
1FFFFFFFFFFFFFFFF4
0FFFFFFFFFFFFFFFF3
0BFFFFFFFFFFFFFFE0
03FFFFFFFFFFFFFF60
005FFFFFFFFFFFF800
00029DEFFFFFDA3000
ENDCHAR
STARTCHAR Ldot
ENCODING 319
SWIDTH 578 0
DWIDTH 16 0
BBX 18 19 -1 0
BITMAP
000049ABBBBB950000
002CFFF9BFFFFFE400
02EFFFF26FFFFFFF30
09FFFFF26FFFFFFFC0
0EFFFFF26FFFFFFFF2
1FFFFFF26D05FFFFF4
1FFFFFF26D48FFFFF4
1FFFFFF26FFFFFFFF4
1FFFFFF26FFFFFFFF4
1FFFFFF26FFFFFFFF4
1FFFFFF26FFFFFFFF4
1FFFFFF225557FFFF4
1FFFFFF533335FFFF4
1FFFFFFFFFFFFFFFF4
0FFFFFFFFFFFFFFFF3
0BFFFFFFFFFFFFFFE0
03FFFFFFFFFFFFFF60
005FFFFFFFFFFFF800
00029DEFFFFFDA3000
ENDCHAR
STARTCHAR ldot
ENCODING 320
SWIDTH 578 0
DWIDTH 16 0
BBX 18 19 -1 0
BITMAP
000049ABBBBB950000
002CFFF9BFFFFFE400
02EFFFF26FFFFFFF30
09FFFFF26FFFFFFFC0
0EFFFFF26FFFFFFFF2
1FFFFFF26D05FFFFF4
1FFFFFF26D48FFFFF4
1FFFFFF26FFFFFFFF4
1FFFFFF26FFFFFFFF4
1FFFFFF26FFFFFFFF4
1FFFFFF26FFFFFFFF4
1FFFFFF225557FFFF4
1FFFFFF533335FFFF4
1FFFFFFFFFFFFFFFF4
0FFFFFFFFFFFFFFFF3
0BFFFFFFFFFFFFFFE0
03FFFFFFFFFFFFFF60
005FFFFFFFFFFFF800
00029DEFFFFFDA3000
ENDCHAR
STARTCHAR Lslash
ENCODING 321
SWIDTH 578 0
DWIDTH 16 0
BBX 18 19 -1 0
BITMAP
000049ABBBBB950000
002CFFF9BFFFFFE400
02EFFFF26FFFFFFF30
09FFFFF26FFFFFFFC0
0EFFFFF26FFFFFFFF2
1FFFFFF243EFFFFFF4
1FFFFFD12BFFFFFFF4
1FFFFB216FFFFFFFF4
1FFFFEE26FFFFFFFF4
1FFFFFF26FFFFFFFF4
1FFFFFF26FFFFFFFF4
1FFFFFF225557FFFF4
1FFFFFF533335FFFF4
1FFFFFFFFFFFFFFFF4
0FFFFFFFFFFFFFFFF3
0BFFFFFFFFFFFFFFE0
03FFFFFFFFFFFFFF60
005FFFFFFFFFFFF800
00029DEFFFFFDA3000
ENDCHAR
STARTCHAR lslash
ENCODING 322
SWIDTH 578 0
DWIDTH 16 0
BBX 18 19 -1 0
BITMAP
000049ABBBBB950000
002CFFF9BFFFFFE400
02EFFFF26FFFFFFF30
09FFFFF26FFFFFFFC0
0EFFFFF26FFFFFFFF2
1FFFFFF243EFFFFFF4
1FFFFFD12BFFFFFFF4
1FFFFB216FFFFFFFF4
1FFFFEE26FFFFFFFF4
1FFFFFF26FFFFFFFF4
1FFFFFF26FFFFFFFF4
1FFFFFF225557FFFF4
1FFFFFF533335FFFF4
1FFFFFFFFFFFFFFFF4
0FFFFFFFFFFFFFFFF3
0BFFFFFFFFFFFFFFE0
03FFFFFFFFFFFFFF60
005FFFFFFFFFFFF800
00029DEFFFFFDA3000
ENDCHAR
STARTCHAR Nacute
ENCODING 323
SWIDTH 578 0
DWIDTH 16 0
BBX 18 28 -1 0
BITMAP
000000001564100000
00000004EFFFF80000
0000000CFFFFFF7000
0000002FFC09FF9000
0000006FF81FFF5000
000000BFF38FFC0000
000000EFE1EFF40000
000001FFDAFFA00000
000000BFFFFE200000
000049CFFFFF950000
002CFDA88888AFE400
02EFF600111009FF30
09FFF62FFFFF34FFC0
0EFFF62FFFFF44FFF2
1FFFF62FFFFF44FFF4
1FFFF62FFFFF44FFF4
1FFFF62FFFFF44FFF4
1FFFF62FFFFF44FFF4
1FFFF62FFFFF44FFF4
1FFFF62FFFFF44FFF4
1FFFF62FFFFF44FFF4
1FFFF85FFFFF66FFF4
1FFFFFFFFFFFFFFFF4
0FFFFFFFFFFFFFFFF3
0BFFFFFFFFFFFFFFE0
03FFFFFFFFFFFFFF60
005FFFFFFFFFFFF800
00029DEFFFFFDA3000
ENDCHAR
STARTCHAR nacute
ENCODING 324
SWIDTH 578 0
DWIDTH 16 0
BBX 18 28 -1 0
BITMAP
000000001564100000
00000004EFFFF80000
0000000CFFFFFF7000
0000002FFC09FF9000
0000006FF81FFF5000
000000BFF38FFC0000
000000EFE1EFF40000
000001FFDAFFA00000
000000BFFFFE200000
000049CFFFFF950000
002CFDA88888AFE400
02EFF600111009FF30
09FFF62FFFFF34FFC0
0EFFF62FFFFF44FFF2
1FFFF62FFFFF44FFF4
1FFFF62FFFFF44FFF4
1FFFF62FFFFF44FFF4
1FFFF62FFFFF44FFF4
1FFFF62FFFFF44FFF4
1FFFF62FFFFF44FFF4
1FFFF62FFFFF44FFF4
1FFFF85FFFFF66FFF4
1FFFFFFFFFFFFFFFF4
0FFFFFFFFFFFFFFFF3
0BFFFFFFFFFFFFFFE0
03FFFFFFFFFFFFFF60
005FFFFFFFFFFFF800
00029DEFFFFFDA3000
ENDCHAR
STARTCHAR Ncommaaccent
ENCODING 325
SWIDTH 578 0
DWIDTH 16 0
BBX 18 19 -1 0
BITMAP
000049ABBBBB950000
002CFDA88888AFE400
02EFF600111009FF30
09FFF62FFFFF34FFC0
0EFFF62FFFFF44FFF2
1FFFF62FFFFF44FFF4
1FFFF62FFFFF44FFF4
1FFFF62FFFFF44FFF4
1FFFF62FFFFF44FFF4
1FFFF62FFFFF44FFF4
1FFFF62FFFFF44FFF4
1FFFF62FFFFF44FFF4
1FFFF85FFFFF66FFF4
1FFFFFFFFDDFFFFFF4
0FFFFFFFD01FFFFFF3
0BFFFFFFE41FFFFFE0
03FFFFFFF67FFFFF60
005FFFFFFDEFFFF800
00029DEFFFFFDA3000
ENDCHAR
STARTCHAR ncommaaccent
ENCODING 326
SWIDTH 578 0
DWIDTH 16 0
BBX 18 19 -1 0
BITMAP
000049ABBBBB950000
002CFDA88888AFE400
02EFF600111009FF30
09FFF62FFFFF34FFC0
0EFFF62FFFFF44FFF2
1FFFF62FFFFF44FFF4
1FFFF62FFFFF44FFF4
1FFFF62FFFFF44FFF4
1FFFF62FFFFF44FFF4
1FFFF62FFFFF44FFF4
1FFFF62FFFFF44FFF4
1FFFF62FFFFF44FFF4
1FFFF85FFFFF66FFF4
1FFFFFFFFDDFFFFFF4
0FFFFFFFD01FFFFFF3
0BFFFFFFE41FFFFFE0
03FFFFFFF67FFFFF60
005FFFFFFDEFFFF800
00029DEFFFFFDA3000
ENDCHAR
STARTCHAR Ncaron
ENCODING 327
SWIDTH 578 0
DWIDTH 16 0
BBX 18 27 -1 0
BITMAP
000000120012000000
00002CFFC9FFE40000
0000BFFFFFFFFE0000
0000EFD5FF7BFF1000
0000CFF3CE1EFF0000
00009FF87A6FFC0000
00005FFE35BFF80000
00001EFF64FFF40000
00004FFFFFFFF60000
002CFFFFEEEFEFE400
02EFF600111009FF30
09FFF62FFFFF34FFC0
0EFFF62FFFFF44FFF2
1FFFF62FFFFF44FFF4
1FFFF62FFFFF44FFF4
1FFFF62FFFFF44FFF4
1FFFF62FFFFF44FFF4
1FFFF62FFFFF44FFF4
1FFFF62FFFFF44FFF4
1FFFF62FFFFF44FFF4
1FFFF85FFFFF66FFF4
1FFFFFFFFFFFFFFFF4
0FFFFFFFFFFFFFFFF3
0BFFFFFFFFFFFFFFE0
03FFFFFFFFFFFFFF60
005FFFFFFFFFFFF800
00029DEFFFFFDA3000
ENDCHAR
STARTCHAR ncaron
ENCODING 328
SWIDTH 578 0
DWIDTH 16 0
BBX 18 27 -1 0
BITMAP
000000120012000000
00002CFFC9FFE40000
0000BFFFFFFFFE0000
0000EFD5FF7BFF1000
0000CFF3CE1EFF0000
00009FF87A6FFC0000
00005FFE35BFF80000
00001EFF64FFF40000
00004FFFFFFFF60000
002CFFFFEEEFEFE400
02EFF600111009FF30
09FFF62FFFFF34FFC0
0EFFF62FFFFF44FFF2
1FFFF62FFFFF44FFF4
1FFFF62FFFFF44FFF4
1FFFF62FFFFF44FFF4
1FFFF62FFFFF44FFF4
1FFFF62FFFFF44FFF4
1FFFF62FFFFF44FFF4
1FFFF62FFFFF44FFF4
1FFFF85FFFFF66FFF4
1FFFFFFFFFFFFFFFF4
0FFFFFFFFFFFFFFFF3
0BFFFFFFFFFFFFFFE0
03FFFFFFFFFFFFFF60
005FFFFFFFFFFFF800
00029DEFFFFFDA3000
ENDCHAR
STARTCHAR napostrophe
ENCODING 329
SWIDTH 578 0
DWIDTH 16 0
BBX 18 19 -1 0
BITMAP
000049ABBBBB950000
002CFDA88888AFE400
02CCD600111009FF30
0970862FFFFF34FFC0
0EB2862FFFFF44FFF2
1FE1E62FFFFF44FFF4
1FFDF62FFFFF44FFF4
1FFFF62FFFFF44FFF4
1FFFF62FFFFF44FFF4
1FFFF62FFFFF44FFF4
1FFFF62FFFFF44FFF4
1FFFF62FFFFF44FFF4
1FFFF85FFFFF66FFF4
1FFFFFFFFFFFFFFFF4
0FFFFFFFFFFFFFFFF3
0BFFFFFFFFFFFFFFE0
03FFFFFFFFFFFFFF60
005FFFFFFFFFFFF800
00029DEFFFFFDA3000
ENDCHAR
STARTCHAR Eng
ENCODING 330
SWIDTH 578 0
DWIDTH 16 0
BBX 18 19 -1 0
BITMAP
000049ABBBBB950000
002CFDA88888AFE400
02EFF600111009FF30
09FFF62FFFFF34FFC0
0EFFF62FFFFF44FFF2
1FFFF62FFFFF44FFF4
1FFFF62FFFFF44FFF4
1FFFF62FFFFF44FFF4
1FFFF62FFFFF44FFF4
1FFFF62FFFFF44FFF4
1FFFF62FFFFF44FFF4
1FFFF62FFFFF44FFF4
1FFFF85FFFFF44FFF4
1FFFFFFFFFFF44FFF4
0FFFFFFFFFFF44FFF3
0BFFFFFFF75504FFE0
03FFFFFFF5336EFF60
005FFFFFFFFFFFF800
00029DEFFFFFDA3000
ENDCHAR
STARTCHAR eng
ENCODING 331
SWIDTH 578 0
DWIDTH 16 0
BBX 18 19 -1 0
BITMAP
000049ABBBBB950000
002CFDA88888AFE400
02EFF600111009FF30
09FFF62FFFFF34FFC0
0EFFF62FFFFF44FFF2
1FFFF62FFFFF44FFF4
1FFFF62FFFFF44FFF4
1FFFF62FFFFF44FFF4
1FFFF62FFFFF44FFF4
1FFFF62FFFFF44FFF4
1FFFF62FFFFF44FFF4
1FFFF62FFFFF44FFF4
1FFFF85FFFFF44FFF4
1FFFFFFFFFFF44FFF4
0FFFFFFFFFFF44FFF3
0BFFFFFFF75504FFE0
03FFFFFFF5336EFF60
005FFFFFFFFFFFF800
00029DEFFFFFDA3000
ENDCHAR
STARTCHAR Omacron
ENCODING 332
SWIDTH 578 0
DWIDTH 16 0
BBX 18 27 -1 0
BITMAP
000000001220000000
0000018DFFFEB40000
00003EFFFFFFFF8000
0000DFFFFFFFFFF500
0004FFFAAAAAFFFA00
0004FFE00000EFFB00
0002FFFDDDDDFFF800
00009FFFFFFFFFE100
00005FFFFFFFFF3000
002CFFC888889EE400
02EFFB00111005FF30
09FFF71FFFFF70FFC0
0EFFF72FFFFF80FFF2
1FFFF72FFFFF80FFF4
1FFFF72FFFFF80FFF4
1FFFF72FFFFF80FFF4
1FFFF72FFFFF80FFF4
1FFFF72FFFFF80FFF4
1FFFF71FFFFF80FFF4
1FFFF904555512FFF4
1FFFFF7433335CFFF4
1FFFFFFFFFFFFFFFF4
0FFFFFFFFFFFFFFFF3
0BFFFFFFFFFFFFFFE0
03FFFFFFFFFFFFFF60
005FFFFFFFFFFFF800
00029DEFFFFFDA3000
ENDCHAR
STARTCHAR omacron
ENCODING 333
SWIDTH 578 0
DWIDTH 16 0
BBX 18 27 -1 0
BITMAP
000000001220000000
0000018DFFFEB40000
00003EFFFFFFFF8000
0000DFFFFFFFFFF500
0004FFFAAAAAFFFA00
0004FFE00000EFFB00
0002FFFDDDDDFFF800
00009FFFFFFFFFE100
00005FFFFFFFFF3000
002CFFC888889EE400
02EFFB00111005FF30
09FFF71FFFFF70FFC0
0EFFF72FFFFF80FFF2
1FFFF72FFFFF80FFF4
1FFFF72FFFFF80FFF4
1FFFF72FFFFF80FFF4
1FFFF72FFFFF80FFF4
1FFFF72FFFFF80FFF4
1FFFF71FFFFF80FFF4
1FFFF904555512FFF4
1FFFFF7433335CFFF4
1FFFFFFFFFFFFFFFF4
0FFFFFFFFFFFFFFFF3
0BFFFFFFFFFFFFFFE0
03FFFFFFFFFFFFFF60
005FFFFFFFFFFFF800
00029DEFFFFFDA3000
ENDCHAR
STARTCHAR Obreve
ENCODING 334
SWIDTH 578 0
DWIDTH 16 0
BBX 18 27 -1 0
BITMAP
000000001220000000
0000018DFFFEB40000
00003EFFFFFFFF8000
0000DFFFFFFFFFF500
0004FFFEEFFEFFFA00
0004FFF46FD0CFFB00
0002FFFA0003FFF800
00009FFFDCCFFFE100
00005FFFFFFFFF3000
002CFFC888889EE400
02EFFB00111005FF30
09FFF71FFFFF70FFC0
0EFFF72FFFFF80FFF2
1FFFF72FFFFF80FFF4
1FFFF72FFFFF80FFF4
1FFFF72FFFFF80FFF4
1FFFF72FFFFF80FFF4
1FFFF72FFFFF80FFF4
1FFFF71FFFFF80FFF4
1FFFF904555512FFF4
1FFFFF7433335CFFF4
1FFFFFFFFFFFFFFFF4
0FFFFFFFFFFFFFFFF3
0BFFFFFFFFFFFFFFE0
03FFFFFFFFFFFFFF60
005FFFFFFFFFFFF800
00029DEFFFFFDA3000
ENDCHAR
STARTCHAR obreve
ENCODING 335
SWIDTH 578 0
DWIDTH 16 0
BBX 18 27 -1 0
BITMAP
000000001220000000
0000018DFFFEB40000
00003EFFFFFFFF8000
0000DFFFFFFFFFF500
0004FFFEEFFEFFFA00
0004FFF46FD0CFFB00
0002FFFA0003FFF800
00009FFFDCCFFFE100
00005FFFFFFFFF3000
002CFFC888889EE400
02EFFB00111005FF30
09FFF71FFFFF70FFC0
0EFFF72FFFFF80FFF2
1FFFF72FFFFF80FFF4
1FFFF72FFFFF80FFF4
1FFFF72FFFFF80FFF4
1FFFF72FFFFF80FFF4
1FFFF72FFFFF80FFF4
1FFFF71FFFFF80FFF4
1FFFF904555512FFF4
1FFFFF7433335CFFF4
1FFFFFFFFFFFFFFFF4
0FFFFFFFFFFFFFFFF3
0BFFFFFFFFFFFFFFE0
03FFFFFFFFFFFFFF60
005FFFFFFFFFFFF800
00029DEFFFFFDA3000
ENDCHAR
STARTCHAR Ohungarumlaut
ENCODING 336
SWIDTH 578 0
DWIDTH 16 0
BBX 18 27 -1 0
BITMAP
00000000069A69A300
00000000AFFFFFFB00
00000004FFFFFFFF40
0000000CFF49F67FC0
0000005FFA4FD2EFF1
000000DFF3DF5BFF70
000006FF98FC6FFC00
000009FF9FF9EFE200
00004FFFFFFFFF7000
002CFFFFEEEEFFE400
02EFFB00111005FF30
09FFF71FFFFF70FFC0
0EFFF72FFFFF80FFF2
1FFFF72FFFFF80FFF4
1FFFF72FFFFF80FFF4
1FFFF72FFFFF80FFF4
1FFFF72FFFFF80FFF4
1FFFF72FFFFF80FFF4
1FFFF71FFFFF80FFF4
1FFFF904555512FFF4
1FFFFF7433335CFFF4
1FFFFFFFFFFFFFFFF4
0FFFFFFFFFFFFFFFF3
0BFFFFFFFFFFFFFFE0
03FFFFFFFFFFFFFF60
005FFFFFFFFFFFF800
00029DEFFFFFDA3000
ENDCHAR
STARTCHAR ohungarumlaut
ENCODING 337
SWIDTH 578 0
DWIDTH 16 0
BBX 18 27 -1 0
BITMAP
00000000069A69A300
00000000AFFFFFFB00
00000004FFFFFFFF40
0000000CFF49F67FC0
0000005FFA4FD2EFF1
000000DFF3DF5BFF70
000006FF98FC6FFC00
000009FF9FF9EFE200
00004FFFFFFFFF7000
002CFFFFEEEEFFE400
02EFFB00111005FF30
09FFF71FFFFF70FFC0
0EFFF72FFFFF80FFF2
1FFFF72FFFFF80FFF4
1FFFF72FFFFF80FFF4
1FFFF72FFFFF80FFF4
1FFFF72FFFFF80FFF4
1FFFF72FFFFF80FFF4
1FFFF71FFFFF80FFF4
1FFFF904555512FFF4
1FFFFF7433335CFFF4
1FFFFFFFFFFFFFFFF4
0FFFFFFFFFFFFFFFF3
0BFFFFFFFFFFFFFFE0
03FFFFFFFFFFFFFF60
005FFFFFFFFFFFF800
00029DEFFFFFDA3000
ENDCHAR
STARTCHAR OE
ENCODING 338
SWIDTH 578 0
DWIDTH 16 0
BBX 18 19 -1 0
BITMAP
000049ABBBBB950000
002CFA888B8888C400
02EF6001000111BF30
09FF26FFE07FFFFFC0
0EFF27FFF17FFFFFF2
1FFF27FFF17FFFFFF4
1FFF27FFF13778FFF4
1FFF27FFF11224FFF4
1FFF27FFF17FFFFFF4
1FFF27FFF17FFFFFF4
1FFF26FFF17FFFFFF4
1FFF4155402555BFF4
1FFFD533463333AFF4
1FFFFFFFFFFFFFFFF4
0FFFFFFFFFFFFFFFF3
0BFFFFFFFFFFFFFFE0
03FFFFFFFFFFFFFF60
005FFFFFFFFFFFF800
00029DEFFFFFDA3000
ENDCHAR
STARTCHAR oe
ENCODING 339
SWIDTH 578 0
DWIDTH 16 0
BBX 18 19 -1 0
BITMAP
000049ABBBBB950000
002CFA888B8888C400
02EF6001000111BF30
09FF26FFE07FFFFFC0
0EFF27FFF17FFFFFF2
1FFF27FFF17FFFFFF4
1FFF27FFF13778FFF4
1FFF27FFF11224FFF4
1FFF27FFF17FFFFFF4
1FFF27FFF17FFFFFF4
1FFF26FFF17FFFFFF4
1FFF4155402555BFF4
1FFFD533463333AFF4
1FFFFFFFFFFFFFFFF4
0FFFFFFFFFFFFFFFF3
0BFFFFFFFFFFFFFFE0
03FFFFFFFFFFFFFF60
005FFFFFFFFFFFF800
00029DEFFFFFDA3000
ENDCHAR
STARTCHAR Racute
ENCODING 340
SWIDTH 578 0
DWIDTH 16 0
BBX 18 27 -1 0
BITMAP
000000001564100000
00000004EFFFF80000
0000000CFFFFFF7000
0000002FFC09FF9000
0000006FF81FFF5000
000000BFF38FFC0000
000000EFE1EFF40000
000001FFDAFFA00000
000049FFFFFFB50000
002CFD9FFFFFEFE400
02EFFB0111103FFF30
09FFFB0CFFF80DFFC0
0EFFFB0CFFFC0CFFF2
1FFFFB0CFFFB0CFFF4
1FFFFB0ACCC53FFFF4
1FFFFB000003DFFFF4
1FFFFB09BBB50EFFF4
1FFFFB0CFFFD0AFFF4
1FFFFB0CFFFD0AFFF4
1FFFFB0CFFFD0AFFF4
1FFFFB3DFFFE3BFFF4
1FFFFFFFFFFFFFFFF4
0FFFFFFFFFFFFFFFF3
0BFFFFFFFFFFFFFFE0
03FFFFFFFFFFFFFF60
005FFFFFFFFFFFF800
00029DEFFFFFDA3000
ENDCHAR
STARTCHAR racute
ENCODING 341
SWIDTH 578 0
DWIDTH 16 0
BBX 18 27 -1 0
BITMAP
000000001564100000
00000004EFFFF80000
0000000CFFFFFF7000
0000002FFC09FF9000
0000006FF81FFF5000
000000BFF38FFC0000
000000EFE1EFF40000
000001FFDAFFA00000
000049FFFFFFB50000
002CFD9FFFFFEFE400
02EFFB0111103FFF30
09FFFB0CFFF80DFFC0
0EFFFB0CFFFC0CFFF2
1FFFFB0CFFFB0CFFF4
1FFFFB0ACCC53FFFF4
1FFFFB000003DFFFF4
1FFFFB09BBB50EFFF4
1FFFFB0CFFFD0AFFF4
1FFFFB0CFFFD0AFFF4
1FFFFB0CFFFD0AFFF4
1FFFFB3DFFFE3BFFF4
1FFFFFFFFFFFFFFFF4
0FFFFFFFFFFFFFFFF3
0BFFFFFFFFFFFFFFE0
03FFFFFFFFFFFFFF60
005FFFFFFFFFFFF800
00029DEFFFFFDA3000
ENDCHAR
STARTCHAR Rcommaaccent
ENCODING 342
SWIDTH 578 0
DWIDTH 16 0
BBX 18 19 -1 0
BITMAP
000049ABBBBB950000
002CFD888889EFE400
02EFFB0111103FFF30
09FFFB0CFFF80DFFC0
0EFFFB0CFFFC0CFFF2
1FFFFB0CFFFB0CFFF4
1FFFFB0ACCC53FFFF4
1FFFFB000003DFFFF4
1FFFFB09BBB50EFFF4
1FFFFB0CFFFD0AFFF4
1FFFFB0CFFFD0AFFF4
1FFFFB0CFFFD0AFFF4
1FFFFB3DFFFE3BFFF4
1FFFFFFFFDDFFFFFF4
0FFFFFFFD01FFFFFF3
0BFFFFFFE41FFFFFE0
03FFFFFFF67FFFFF60
005FFFFFFDEFFFF800
00029DEFFFFFDA3000
ENDCHAR
STARTCHAR rcommaaccent
ENCODING 343
SWIDTH 578 0
DWIDTH 16 0
BBX 18 19 -1 0
BITMAP
000049ABBBBB950000
002CFD888889EFE400
02EFFB0111103FFF30
09FFFB0CFFF80DFFC0
0EFFFB0CFFFC0CFFF2
1FFFFB0CFFFB0CFFF4
1FFFFB0ACCC53FFFF4
1FFFFB000003DFFFF4
1FFFFB09BBB50EFFF4
1FFFFB0CFFFD0AFFF4
1FFFFB0CFFFD0AFFF4
1FFFFB0CFFFD0AFFF4
1FFFFB3DFFFE3BFFF4
1FFFFFFFFDDFFFFFF4
0FFFFFFFD01FFFFFF3
0BFFFFFFE41FFFFFE0
03FFFFFFF67FFFFF60
005FFFFFFDEFFFF800
00029DEFFFFFDA3000
ENDCHAR
STARTCHAR Rcaron
ENCODING 344
SWIDTH 578 0
DWIDTH 16 0
BBX 18 27 -1 0
BITMAP
000000120012000000
00002CFFC9FFE40000
0000BFFFFFFFFE0000
0000EFD5FF7BFF1000
0000CFF3CE1EFF0000
00009FF87A6FFC0000
00005FFE35BFF80000
00001EFF64FFF40000
00004FFFFFFFF60000
002CFFEEEEEFFFE400
02EFFB0111103FFF30
09FFFB0CFFF80DFFC0
0EFFFB0CFFFC0CFFF2
1FFFFB0CFFFB0CFFF4
1FFFFB0ACCC53FFFF4
1FFFFB000003DFFFF4
1FFFFB09BBB50EFFF4
1FFFFB0CFFFD0AFFF4
1FFFFB0CFFFD0AFFF4
1FFFFB0CFFFD0AFFF4
1FFFFB3DFFFE3BFFF4
1FFFFFFFFFFFFFFFF4
0FFFFFFFFFFFFFFFF3
0BFFFFFFFFFFFFFFE0
03FFFFFFFFFFFFFF60
005FFFFFFFFFFFF800
00029DEFFFFFDA3000
ENDCHAR
STARTCHAR rcaron
ENCODING 345
SWIDTH 578 0
DWIDTH 16 0
BBX 18 27 -1 0
BITMAP
000000120012000000
00002CFFC9FFE40000
0000BFFFFFFFFE0000
0000EFD5FF7BFF1000
0000CFF3CE1EFF0000
00009FF87A6FFC0000
00005FFE35BFF80000
00001EFF64FFF40000
00004FFFFFFFF60000
002CFFEEEEEFFFE400
02EFFB0111103FFF30
09FFFB0CFFF80DFFC0
0EFFFB0CFFFC0CFFF2
1FFFFB0CFFFB0CFFF4
1FFFFB0ACCC53FFFF4
1FFFFB000003DFFFF4
1FFFFB09BBB50EFFF4
1FFFFB0CFFFD0AFFF4
1FFFFB0CFFFD0AFFF4
1FFFFB0CFFFD0AFFF4
1FFFFB3DFFFE3BFFF4
1FFFFFFFFFFFFFFFF4
0FFFFFFFFFFFFFFFF3
0BFFFFFFFFFFFFFFE0
03FFFFFFFFFFFFFF60
005FFFFFFFFFFFF800
00029DEFFFFFDA3000
ENDCHAR
STARTCHAR Sacute
ENCODING 346
SWIDTH 578 0
DWIDTH 16 0
BBX 18 27 -1 0
BITMAP
000000000355300000
00000000AFFFFD3000
00000004FFFFFFE100
00000009FF51FFF200
0000000DFF18FFD000
0000003FFB1EFF6000
0000007FF77FFC0000
0000008FF9DFF30000
000049EFFFFFF50000
002CFFDEFFFFADE400
02EFFE2011110CFF30
09FFFC0AFFFFEFFFC0
0EFFFC0CFFFFFFFFF2
1FFFFC0BFFFFFFFFF4
1FFFFE0255568FFFF4
1FFFFFB5333307FFF4
1FFFFFFFFFFF44FFF4
1FFFFFFFFFFF54FFF4
1FFFFFFFFFFF44FFF4
1FFFFF85555506FFF4
1FFFFF7333336EFFF4
1FFFFFFFFFFFFFFFF4
0FFFFFFFFFFFFFFFF3
0BFFFFFFFFFFFFFFE0
03FFFFFFFFFFFFFF60
005FFFFFFFFFFFF800
00029DEFFFFFDA3000
ENDCHAR
STARTCHAR sacute
ENCODING 347
SWIDTH 578 0
DWIDTH 16 0
BBX 18 27 -1 0
BITMAP
000000000355300000
00000000AFFFFD3000
00000004FFFFFFE100
00000009FF51FFF200
0000000DFF18FFD000
0000003FFB1EFF6000
0000007FF77FFC0000
0000008FF9DFF30000
000049EFFFFFF50000
002CFFDEFFFFADE400
02EFFE2011110CFF30
09FFFC0AFFFFEFFFC0
0EFFFC0CFFFFFFFFF2
1FFFFC0BFFFFFFFFF4
1FFFFE0255568FFFF4
1FFFFFB5333307FFF4
1FFFFFFFFFFF44FFF4
1FFFFFFFFFFF54FFF4
1FFFFFFFFFFF44FFF4
1FFFFF85555506FFF4
1FFFFF7333336EFFF4
1FFFFFFFFFFFFFFFF4
0FFFFFFFFFFFFFFFF3
0BFFFFFFFFFFFFFFE0
03FFFFFFFFFFFFFF60
005FFFFFFFFFFFF800
00029DEFFFFFDA3000
ENDCHAR
STARTCHAR Scircumflex
ENCODING 348
SWIDTH 578 0
DWIDTH 16 0
BBX 18 27 -1 0
BITMAP
00000003CEEA100000
0000001EFFFFB00000
0000007FFBCFF40000
000000EFE23FFA0000
000005FF884CFF2000
00000BFF3D96FF7000
00000FFC2FE1FFB000
00002FFDCFFBEFD000
00005FFFFFFFFFA000
002CFFFFEEEEFFE400
02EFFE2011110CFF30
09FFFC0AFFFFEFFFC0
0EFFFC0CFFFFFFFFF2
1FFFFC0BFFFFFFFFF4
1FFFFE0255568FFFF4
1FFFFFB5333307FFF4
1FFFFFFFFFFF44FFF4
1FFFFFFFFFFF54FFF4
1FFFFFFFFFFF44FFF4
1FFFFF85555506FFF4
1FFFFF7333336EFFF4
1FFFFFFFFFFFFFFFF4
0FFFFFFFFFFFFFFFF3
0BFFFFFFFFFFFFFFE0
03FFFFFFFFFFFFFF60
005FFFFFFFFFFFF800
00029DEFFFFFDA3000
ENDCHAR
STARTCHAR scircumflex
ENCODING 349
SWIDTH 578 0
DWIDTH 16 0
BBX 18 27 -1 0
BITMAP
00000003CEEA100000
0000001EFFFFB00000
0000007FFBCFF40000
000000EFE23FFA0000
000005FF884CFF2000
00000BFF3D96FF7000
00000FFC2FE1FFB000
00002FFDCFFBEFD000
00005FFFFFFFFFA000
002CFFFFEEEEFFE400
02EFFE2011110CFF30
09FFFC0AFFFFEFFFC0
0EFFFC0CFFFFFFFFF2
1FFFFC0BFFFFFFFFF4
1FFFFE0255568FFFF4
1FFFFFB5333307FFF4
1FFFFFFFFFFF44FFF4
1FFFFFFFFFFF54FFF4
1FFFFFFFFFFF44FFF4
1FFFFF85555506FFF4
1FFFFF7333336EFFF4
1FFFFFFFFFFFFFFFF4
0FFFFFFFFFFFFFFFF3
0BFFFFFFFFFFFFFFE0
03FFFFFFFFFFFFFF60
005FFFFFFFFFFFF800
00029DEFFFFFDA3000
ENDCHAR
STARTCHAR Scedilla
ENCODING 350
SWIDTH 578 0
DWIDTH 16 0
BBX 18 19 -1 0
BITMAP
000049ABBBBB950000
002CFFD988889DE400
02EFFE2011110CFF30
09FFFC0AFFFFEFFFC0
0EFFFC0CFFFFFFFFF2
1FFFFC0BFFFFFFFFF4
1FFFFE0255568FFFF4
1FFFFFB5333307FFF4
1FFFFFFFFFFF44FFF4
1FFFFFFFFFFF54FFF4
1FFFFFFFFFFF44FFF4
1FFFFF85555506FFF4
1FFFFF7331136EFFF4
1FFFFFFF728FFFFFF4
0FFFFFFA18CFFFFFF3
0BFFFFFA1DFFFFFFE0
03FFFFFE207FFFFF60
005FFFFFFDEFFFF800
00029DEFFFFFDA3000
ENDCHAR
STARTCHAR scedilla
ENCODING 351
SWIDTH 578 0
DWIDTH 16 0
BBX 18 19 -1 0
BITMAP
000049ABBBBB950000
002CFFD988889DE400
02EFFE2011110CFF30
09FFFC0AFFFFEFFFC0
0EFFFC0CFFFFFFFFF2
1FFFFC0BFFFFFFFFF4
1FFFFE0255568FFFF4
1FFFFFB5333307FFF4
1FFFFFFFFFFF44FFF4
1FFFFFFFFFFF54FFF4
1FFFFFFFFFFF44FFF4
1FFFFF85555506FFF4
1FFFFF7331136EFFF4
1FFFFFFF728FFFFFF4
0FFFFFFA18CFFFFFF3
0BFFFFFA1DFFFFFFE0
03FFFFFE207FFFFF60
005FFFFFFDEFFFF800
00029DEFFFFFDA3000
ENDCHAR
STARTCHAR Scaron
ENCODING 352
SWIDTH 578 0
DWIDTH 16 0
BBX 18 27 -1 0
BITMAP
000000022001200000
000003CFFBAFFD3000
00000DFFFFFFFFC000
00000FFC6FF6CFF000
00000EFF1ED2FFE000
00000AFF7987FFB000
000006FFD43DFF7000
000002FFF55FFF2000
000049FFFFFFFF0000
002CFFFFEEEEFFE400
02EFFE2011110CFF30
09FFFC0AFFFFEFFFC0
0EFFFC0CFFFFFFFFF2
1FFFFC0BFFFFFFFFF4
1FFFFE0255568FFFF4
1FFFFFB5333307FFF4
1FFFFFFFFFFF44FFF4
1FFFFFFFFFFF54FFF4
1FFFFFFFFFFF44FFF4
1FFFFF85555506FFF4
1FFFFF7333336EFFF4
1FFFFFFFFFFFFFFFF4
0FFFFFFFFFFFFFFFF3
0BFFFFFFFFFFFFFFE0
03FFFFFFFFFFFFFF60
005FFFFFFFFFFFF800
00029DEFFFFFDA3000
ENDCHAR
STARTCHAR scaron
ENCODING 353
SWIDTH 578 0
DWIDTH 16 0
BBX 18 27 -1 0
BITMAP
000000022001200000
000003CFFBAFFD3000
00000DFFFFFFFFC000
00000FFC6FF6CFF000
00000EFF1ED2FFE000
00000AFF7987FFB000
000006FFD43DFF7000
000002FFF55FFF2000
000049FFFFFFFF0000
002CFFFFEEEEFFE400
02EFFE2011110CFF30
09FFFC0AFFFFEFFFC0
0EFFFC0CFFFFFFFFF2
1FFFFC0BFFFFFFFFF4
1FFFFE0255568FFFF4
1FFFFFB5333307FFF4
1FFFFFFFFFFF44FFF4
1FFFFFFFFFFF54FFF4
1FFFFFFFFFFF44FFF4
1FFFFF85555506FFF4
1FFFFF7333336EFFF4
1FFFFFFFFFFFFFFFF4
0FFFFFFFFFFFFFFFF3
0BFFFFFFFFFFFFFFE0
03FFFFFFFFFFFFFF60
005FFFFFFFFFFFF800
00029DEFFFFFDA3000
ENDCHAR
STARTCHAR Tcommaaccent
ENCODING 354
SWIDTH 578 0
DWIDTH 16 0
BBX 18 19 -1 0
BITMAP
000049ABBBBB950000
002CFE88888889E400
02EFFD11100114FF30
09FFFFFFF26FFFFFC0
0EFFFFFFF26FFFFFF2
1FFFFFFFF26FFFFFF4
1FFFFFFFF26FFFFFF4
1FFFFFFFF26FFFFFF4
1FFFFFFFF26FFFFFF4
1FFFFFFFF26FFFFFF4
1FFFFFFFF26FFFFFF4
1FFFFFFFF26FFFFFF4
1FFFFFFFF48FFFFFF4
1FFFFFFFFDDFFFFFF4
0FFFFFFFD01FFFFFF3
0BFFFFFFE41FFFFFE0
03FFFFFFF67FFFFF60
005FFFFFFDEFFFF800
00029DEFFFFFDA3000
ENDCHAR
STARTCHAR tcommaaccent
ENCODING 355
SWIDTH 578 0
DWIDTH 16 0
BBX 18 19 -1 0
BITMAP
000049ABBBBB950000
002CFE88888889E400
02EFFD11100114FF30
09FFFFFFF26FFFFFC0
0EFFFFFFF26FFFFFF2
1FFFFFFFF26FFFFFF4
1FFFFFFFF26FFFFFF4
1FFFFFFFF26FFFFFF4
1FFFFFFFF26FFFFFF4
1FFFFFFFF26FFFFFF4
1FFFFFFFF26FFFFFF4
1FFFFFFFF26FFFFFF4
1FFFFFFFF48FFFFFF4
1FFFFFFFFDDFFFFFF4
0FFFFFFFD01FFFFFF3
0BFFFFFFE41FFFFFE0
03FFFFFFF67FFFFF60
005FFFFFFDEFFFF800
00029DEFFFFFDA3000
ENDCHAR
STARTCHAR Tcaron
ENCODING 356
SWIDTH 578 0
DWIDTH 16 0
BBX 18 27 -1 0
BITMAP
000000021002100000
000007EFF9DFFB1000
00003FFFFFFFFF7000
00006FF8AFD5FF9000
00004FFB4F87FF8000
00001FFF2E3DFF5000
00000CFF773FFF1000
000007FFD2AFFC0000
00004AFFFFFFFC0000
002CFEDEEEEEEAE400
02EFFD11100114FF30
09FFFFFFF26FFFFFC0
0EFFFFFFF26FFFFFF2
1FFFFFFFF26FFFFFF4
1FFFFFFFF26FFFFFF4
1FFFFFFFF26FFFFFF4
1FFFFFFFF26FFFFFF4
1FFFFFFFF26FFFFFF4
1FFFFFFFF26FFFFFF4
1FFFFFFFF26FFFFFF4
1FFFFFFFF48FFFFFF4
1FFFFFFFFFFFFFFFF4
0FFFFFFFFFFFFFFFF3
0BFFFFFFFFFFFFFFE0
03FFFFFFFFFFFFFF60
005FFFFFFFFFFFF800
00029DEFFFFFDA3000
ENDCHAR
STARTCHAR tcaron
ENCODING 357
SWIDTH 578 0
DWIDTH 16 0
BBX 18 19 -1 0
BITMAP
000049ABBBBB950000
002CFE88888889E400
02EFFD11100114FF30
09FFFFFFF26ECCFFC0
0EFFFFFFF26A04FFF2
1FFFFFFFF26D44FFF4
1FFFFFFFF26F3AFFF4
1FFFFFFFF26FDFFFF4
1FFFFFFFF26FFFFFF4
1FFFFFFFF26FFFFFF4
1FFFFFFFF26FFFFFF4
1FFFFFFFF26FFFFFF4
1FFFFFFFF48FFFFFF4
1FFFFFFFFFFFFFFFF4
0FFFFFFFFFFFFFFFF3
0BFFFFFFFFFFFFFFE0
03FFFFFFFFFFFFFF60
005FFFFFFFFFFFF800
00029DEFFFFFDA3000
ENDCHAR
STARTCHAR Tbar
ENCODING 358
SWIDTH 578 0
DWIDTH 16 0
BBX 18 19 -1 0
BITMAP
000049ABBBBB950000
002CFE88888889E400
02EFFD11100114FF30
09FFFFFFF26FFFFFC0
0EFFFFFFF26FFFFFF2
1FFFFFFFF26FFFFFF4
1FFFFFFCB15BEFFFF4
1FFFFFF300009FFFF4
1FFFFFFFF26FFFFFF4
1FFFFFFFF26FFFFFF4
1FFFFFFFF26FFFFFF4
1FFFFFFFF26FFFFFF4
1FFFFFFFF48FFFFFF4
1FFFFFFFFFFFFFFFF4
0FFFFFFFFFFFFFFFF3
0BFFFFFFFFFFFFFFE0
03FFFFFFFFFFFFFF60
005FFFFFFFFFFFF800
00029DEFFFFFDA3000
ENDCHAR
STARTCHAR tbar
ENCODING 359
SWIDTH 578 0
DWIDTH 16 0
BBX 18 19 -1 0
BITMAP
000049ABBBBB950000
002CFE88888889E400
02EFFD11100114FF30
09FFFFFFF26FFFFFC0
0EFFFFFFF26FFFFFF2
1FFFFFFFF26FFFFFF4
1FFFFFFCB15BEFFFF4
1FFFFFF300009FFFF4
1FFFFFFFF26FFFFFF4
1FFFFFFFF26FFFFFF4
1FFFFFFFF26FFFFFF4
1FFFFFFFF26FFFFFF4
1FFFFFFFF48FFFFFF4
1FFFFFFFFFFFFFFFF4
0FFFFFFFFFFFFFFFF3
0BFFFFFFFFFFFFFFE0
03FFFFFFFFFFFFFF60
005FFFFFFFFFFFF800
00029DEFFFFFDA3000
ENDCHAR
STARTCHAR Utilde
ENCODING 360
SWIDTH 578 0
DWIDTH 16 0
BBX 18 27 -1 0
BITMAP
0000003ADFEC710000
000008FFFFFFFE3000
00006FFFFFFFFFE100
0000EFFFFFFFFFF800
0003FFFFFFFFFFFC00
0003FFE66AF57FFC00
0001FF9072108FFA00
0000AFDBFFBAFFF400
00006FFFFFFFFF8000
002CFA9FFFFFB8E400
02EFF63FFFFF71FF30
09FFF63FFFFF71FFC0
0EFFF63FFFFF71FFF2
1FFFF63FFFFF71FFF4
1FFFF63FFFFF71FFF4
1FFFF63FFFFF71FFF4
1FFFF63FFFFF71FFF4
1FFFF63FFFFF71FFF4
1FFFF62FFFFF71FFF4
1FFFF804555513FFF4
1FFFFF6333335DFFF4
1FFFFFFFFFFFFFFFF4
0FFFFFFFFFFFFFFFF3
0BFFFFFFFFFFFFFFE0
03FFFFFFFFFFFFFF60
005FFFFFFFFFFFF800
00029DEFFFFFDA3000
ENDCHAR
STARTCHAR utilde
ENCODING 361
SWIDTH 578 0
DWIDTH 16 0
BBX 18 27 -1 0
BITMAP
00000039DFEC810000
000008FFFFFFFE3000
00006FFFFFFFFFE200
0000EFFFFFFFFFF800
0002FFFFFFFFFFFC00
0003FFE669F57FFD00
0001FFA072108FFA00
0000AFDBFFBAEFF400
00006FFFFFFFFF9000
002CFA9FFFFFB8E400
02EFF63FFFFF71FF30
09FFF63FFFFF71FFC0
0EFFF63FFFFF71FFF2
1FFFF63FFFFF71FFF4
1FFFF63FFFFF71FFF4
1FFFF63FFFFF71FFF4
1FFFF63FFFFF71FFF4
1FFFF63FFFFF71FFF4
1FFFF62FFFFF71FFF4
1FFFF804555513FFF4
1FFFFF6333335DFFF4
1FFFFFFFFFFFFFFFF4
0FFFFFFFFFFFFFFFF3
0BFFFFFFFFFFFFFFE0
03FFFFFFFFFFFFFF60
005FFFFFFFFFFFF800
00029DEFFFFFDA3000
ENDCHAR
STARTCHAR Umacron
ENCODING 362
SWIDTH 578 0
DWIDTH 16 0
BBX 18 27 -1 0
BITMAP
000000001220000000
0000018DFFFFB50000
00002DFFFFFFFF9000
0000CFFFFFFFFFF600
0003FFFAAAAAEFFB00
0003FFF00000CFFC00
0001EFFDDDDDFFF900
00008FFFFFFFFFE200
00004FFFFFFFFF4000
002CFA9FFFFFB8E400
02EFF63FFFFF71FF30
09FFF63FFFFF71FFC0
0EFFF63FFFFF71FFF2
1FFFF63FFFFF71FFF4
1FFFF63FFFFF71FFF4
1FFFF63FFFFF71FFF4
1FFFF63FFFFF71FFF4
1FFFF63FFFFF71FFF4
1FFFF62FFFFF71FFF4
1FFFF804555513FFF4
1FFFFF6333335DFFF4
1FFFFFFFFFFFFFFFF4
0FFFFFFFFFFFFFFFF3
0BFFFFFFFFFFFFFFE0
03FFFFFFFFFFFFFF60
005FFFFFFFFFFFF800
00029DEFFFFFDA3000
ENDCHAR
STARTCHAR umacron
ENCODING 363
SWIDTH 578 0
DWIDTH 16 0
BBX 18 27 -1 0
BITMAP
000000001220000000
0000018DFFFFB50000
00002DFFFFFFFF9000
0000CFFFFFFFFFF600
0003FFFAAAAAEFFB00
0003FFF00000CFFC00
0001EFFDDDDDFFF900
00008FFFFFFFFFE200
00004FFFFFFFFF4000
002CFA9FFFFFB8E400
02EFF63FFFFF71FF30
09FFF63FFFFF71FFC0
0EFFF63FFFFF71FFF2
1FFFF63FFFFF71FFF4
1FFFF63FFFFF71FFF4
1FFFF63FFFFF71FFF4
1FFFF63FFFFF71FFF4
1FFFF63FFFFF71FFF4
1FFFF62FFFFF71FFF4
1FFFF804555513FFF4
1FFFFF6333335DFFF4
1FFFFFFFFFFFFFFFF4
0FFFFFFFFFFFFFFFF3
0BFFFFFFFFFFFFFFE0
03FFFFFFFFFFFFFF60
005FFFFFFFFFFFF800
00029DEFFFFFDA3000
ENDCHAR
STARTCHAR Ubreve
ENCODING 364
SWIDTH 578 0
DWIDTH 16 0
BBX 18 27 -1 0
BITMAP
000000001220000000
0000018DFFFFB50000
00002DFFFFFFFF9000
0000CFFFFFFFFFF600
0003FFFEEFFEFFFB00
0003FFF65FE0BFFC00
0001EFFB0002EFF900
00008FFFDCCEFFE200
00004FFFFFFFFF4000
002CFA9FFFFFB8E400
02EFF63FFFFF71FF30
09FFF63FFFFF71FFC0
0EFFF63FFFFF71FFF2
1FFFF63FFFFF71FFF4
1FFFF63FFFFF71FFF4
1FFFF63FFFFF71FFF4
1FFFF63FFFFF71FFF4
1FFFF63FFFFF71FFF4
1FFFF62FFFFF71FFF4
1FFFF804555513FFF4
1FFFFF6333335DFFF4
1FFFFFFFFFFFFFFFF4
0FFFFFFFFFFFFFFFF3
0BFFFFFFFFFFFFFFE0
03FFFFFFFFFFFFFF60
005FFFFFFFFFFFF800
00029DEFFFFFDA3000
ENDCHAR
STARTCHAR ubreve
ENCODING 365
SWIDTH 578 0
DWIDTH 16 0
BBX 18 27 -1 0
BITMAP
000000001220000000
0000018DFFFFB50000
00002DFFFFFFFFA000
0000CFFFFFFFFFF600
0002FFFEEFFEFFFC00
0003FFF65FE1BFFC00
0001EFFB0002EFF900
00007FFFECCEFFE200
00004FFFFFFFFF4000
002CFA9FFFFFB8E400
02EFF63FFFFF71FF30
09FFF63FFFFF71FFC0
0EFFF63FFFFF71FFF2
1FFFF63FFFFF71FFF4
1FFFF63FFFFF71FFF4
1FFFF63FFFFF71FFF4
1FFFF63FFFFF71FFF4
1FFFF63FFFFF71FFF4
1FFFF62FFFFF71FFF4
1FFFF804555513FFF4
1FFFFF6333335DFFF4
1FFFFFFFFFFFFFFFF4
0FFFFFFFFFFFFFFFF3
0BFFFFFFFFFFFFFFE0
03FFFFFFFFFFFFFF60
005FFFFFFFFFFFF800
00029DEFFFFFDA3000
ENDCHAR
STARTCHAR Uring
ENCODING 366
SWIDTH 578 0
DWIDTH 16 0
BBX 18 27 -1 0
BITMAP
000000049A96000000
000001BFFFFFD30000
00000AFFECDFFD1000
00003FFA0206FF7000
00007FF59FC1FFB000
00008FF58FC1FFD000
00007FFA0107FFB000
00003FFFEDEFFF7000
00004FFFFFFFFF2000
002CFA9FFFFFB8E400
02EFF63FFFFF71FF30
09FFF63FFFFF71FFC0
0EFFF63FFFFF71FFF2
1FFFF63FFFFF71FFF4
1FFFF63FFFFF71FFF4
1FFFF63FFFFF71FFF4
1FFFF63FFFFF71FFF4
1FFFF63FFFFF71FFF4
1FFFF62FFFFF71FFF4
1FFFF804555513FFF4
1FFFFF6333335DFFF4
1FFFFFFFFFFFFFFFF4
0FFFFFFFFFFFFFFFF3
0BFFFFFFFFFFFFFFE0
03FFFFFFFFFFFFFF60
005FFFFFFFFFFFF800
00029DEFFFFFDA3000
ENDCHAR
STARTCHAR uring
ENCODING 367
SWIDTH 578 0
DWIDTH 16 0
BBX 18 27 -1 0
BITMAP
000000048A96100000
000001AFFFFFD30000
000009FFECDFFE1000
00002FFA0215FF7000
00006FF58FD0FFC000
00008FF68FC0FFD000
00006FFB0106FFC000
00003FFFEDEFFF8000
00004FFFFFFFFF2000
002CFA9FFFFFB8E400
02EFF63FFFFF71FF30
09FFF63FFFFF71FFC0
0EFFF63FFFFF71FFF2
1FFFF63FFFFF71FFF4
1FFFF63FFFFF71FFF4
1FFFF63FFFFF71FFF4
1FFFF63FFFFF71FFF4
1FFFF63FFFFF71FFF4
1FFFF62FFFFF71FFF4
1FFFF804555513FFF4
1FFFFF6333335DFFF4
1FFFFFFFFFFFFFFFF4
0FFFFFFFFFFFFFFFF3
0BFFFFFFFFFFFFFFE0
03FFFFFFFFFFFFFF60
005FFFFFFFFFFFF800
00029DEFFFFFDA3000
ENDCHAR
STARTCHAR Uhungarumlaut
ENCODING 368
SWIDTH 581 0
DWIDTH 16 0
BBX 18 27 -1 0
BITMAP
00000000059A69A400
000000008FFFFFFC00
00000003FFFFFFFF50
0000000BFF58F75FD0
0000004FFB3FD2EFF2
000000CFF4CF6AFF80
000005FFA7FD5FFC00
000008FF9FFAEFF300
00004EFFFFFFFF8000
002CFBFFFFFFFEE400
02EFF63FFFFF71FF30
09FFF63FFFFF71FFC0
0EFFF63FFFFF71FFF2
1FFFF63FFFFF71FFF4
1FFFF63FFFFF71FFF4
1FFFF63FFFFF71FFF4
1FFFF63FFFFF71FFF4
1FFFF63FFFFF71FFF4
1FFFF62FFFFF71FFF4
1FFFF804555513FFF4
1FFFFF6333335DFFF4
1FFFFFFFFFFFFFFFF4
0FFFFFFFFFFFFFFFF3
0BFFFFFFFFFFFFFFE0
03FFFFFFFFFFFFFF60
005FFFFFFFFFFFF800
00029DEFFFFFDA3000
ENDCHAR
STARTCHAR uhungarumlaut
ENCODING 369
SWIDTH 582 0
DWIDTH 16 0
BBX 18 27 -1 0
BITMAP
00000000059A69A400
000000008FFFFFFD00
00000002FFFFFFFF60
0000000AFF57F85FD0
0000003FFC2FE2DFF3
000000BFF4CF69FF80
000004FFB7FD5FFD10
000007FF9EFADFF300
00004EFFFFFFFF9000
002CFBFFFFFFFEE400
02EFF63FFFFF71FF30
09FFF63FFFFF71FFC0
0EFFF63FFFFF71FFF2
1FFFF63FFFFF71FFF4
1FFFF63FFFFF71FFF4
1FFFF63FFFFF71FFF4
1FFFF63FFFFF71FFF4
1FFFF63FFFFF71FFF4
1FFFF62FFFFF71FFF4
1FFFF804555513FFF4
1FFFFF6333335DFFF4
1FFFFFFFFFFFFFFFF4
0FFFFFFFFFFFFFFFF3
0BFFFFFFFFFFFFFFE0
03FFFFFFFFFFFFFF60
005FFFFFFFFFFFF800
00029DEFFFFFDA3000
ENDCHAR
STARTCHAR Uogonek
ENCODING 370
SWIDTH 578 0
DWIDTH 16 0
BBX 18 19 -1 0
BITMAP
000049ABBBBB950000
002CFA9FFFFFB8E400
02EFF63FFFFF71FF30
09FFF63FFFFF71FFC0
0EFFF63FFFFF71FFF2
1FFFF63FFFFF71FFF4
1FFFF63FFFFF71FFF4
1FFFF63FFFFF71FFF4
1FFFF63FFFFF71FFF4
1FFFF63FFFFF71FFF4
1FFFF62FFFFF71FFF4
1FFFF804555513FFF4
1FFFFF6333025DFFF4
1FFFFFFFE55FFFFFF4
0FFFFFFF82EFFFFFF3
0BFFFFFF73EFFFFFE0
03FFFFFFC10AFFFF60
005FFFFFFEDEFFF800
00029DEFFFFFDA3000
ENDCHAR
STARTCHAR uogonek
ENCODING 371
SWIDTH 578 0
DWIDTH 16 0
BBX 18 19 -1 0
BITMAP
000049ABBBBB950000
002CFA9FFFFFB8E400
02EFF63FFFFF71FF30
09FFF63FFFFF71FFC0
0EFFF63FFFFF71FFF2
1FFFF63FFFFF71FFF4
1FFFF63FFFFF71FFF4
1FFFF63FFFFF71FFF4
1FFFF63FFFFF71FFF4
1FFFF63FFFFF71FFF4
1FFFF62FFFFF71FFF4
1FFFF804555513FFF4
1FFFFF6333025DFFF4
1FFFFFFFE55FFFFFF4
0FFFFFFF82EFFFFFF3
0BFFFFFF73EFFFFFE0
03FFFFFFC10AFFFF60
005FFFFFFEDEFFF800
00029DEFFFFFDA3000
ENDCHAR
STARTCHAR Wcircumflex
ENCODING 372
SWIDTH 578 0
DWIDTH 16 0
BBX 18 27 -1 0
BITMAP
00000008DFD6000000
0000007FFFFF400000
000000EFEAFFC00000
000006FF72AFF30000
00000CFF2B4FF90000
00003FFB5F2DFE1000
00007FF59F78FF4000
00009FFBEFDBFF6000
0000AFFFFFFFFF3000
002CAFFFFFFFFF9400
02EF15FFA0CFF42F30
09FF34FF809FF24FC0
0EFF42FF506FF16FF2
1FFF61FF304FF07FF4
1FFF80EF031FD09FF4
1FFF90DC080DC0BFF4
1FFFB0CA0C0BA0CFF4
1FFFD0A71F0890EFF4
1FFFE0954F2680FFF4
1FFFF1316F5122FFF4
1FFFFB35EFE44CFFF4
1FFFFFFFFFFFFFFFF4
0FFFFFFFFFFFFFFFF3
0BFFFFFFFFFFFFFFE0
03FFFFFFFFFFFFFF60
005FFFFFFFFFFFF800
00029DEFFFFFDA3000
ENDCHAR
STARTCHAR wcircumflex
ENCODING 373
SWIDTH 578 0
DWIDTH 16 0
BBX 18 27 -1 0
BITMAP
00000008DFD6000000
0000007FFFFF400000
000000EFEAFFC00000
000006FF72AFF30000
00000CFF2B4FF90000
00003FFB5F2DFE1000
00007FF59F78FF4000
00009FFBEFDBFF6000
0000AFFFFFFFFF3000
002CAFFFFFFFFF9400
02EF15FFA0CFF42F30
09FF34FF809FF24FC0
0EFF42FF506FF16FF2
1FFF61FF304FF07FF4
1FFF80EF031FD09FF4
1FFF90DC080DC0BFF4
1FFFB0CA0C0BA0CFF4
1FFFD0A71F0890EFF4
1FFFE0954F2680FFF4
1FFFF1316F5122FFF4
1FFFFB35EFE44CFFF4
1FFFFFFFFFFFFFFFF4
0FFFFFFFFFFFFFFFF3
0BFFFFFFFFFFFFFFE0
03FFFFFFFFFFFFFF60
005FFFFFFFFFFFF800
00029DEFFFFFDA3000
ENDCHAR
STARTCHAR Ycircumflex
ENCODING 374
SWIDTH 578 0
DWIDTH 16 0
BBX 18 27 -1 0
BITMAP
00000005DFE8000000
0000003FFFFF800000
000000AFFADFE10000
000002FFB26FF70000
000008FF5B2EFD0000
00000EFE1F69FF4000
00003FF95FB4FF8000
00005FFCDFFAFFA000
00007FFFFFFFFF7000
002CFFEFFFFFFFE400
02EFFE15FFFC08FF30
09FFFF60EFF60EFFC0
0EFFFFC08FE16FFFF2
1FFFFFF42F90CFFFF4
1FFFFFFA0B23FFFFF4
1FFFFFFF220AFFFFF4
1FFFFFFF801FFFFFF4
1FFFFFFFE07FFFFFF4
1FFFFFFFF08FFFFFF4
1FFFFFFFF08FFFFFF4
1FFFFFFFF3AFFFFFF4
1FFFFFFFFFFFFFFFF4
0FFFFFFFFFFFFFFFF3
0BFFFFFFFFFFFFFFE0
03FFFFFFFFFFFFFF60
005FFFFFFFFFFFF800
00029DEFFFFFDA3000
ENDCHAR
STARTCHAR ycircumflex
ENCODING 375
SWIDTH 578 0
DWIDTH 16 0
BBX 18 27 -1 0
BITMAP
00000005DFE8000000
0000003FFFFF800000
000000AFFADFE10000
000002FFB26FF70000
000008FF5B2EFD0000
00000EFE1F69FF4000
00003FF95FB4FF8000
00005FFCDFFAFFA000
00007FFFFFFFFF7000
002CFFEFFFFFFFE400
02EFFE15FFFC08FF30
09FFFF60EFF60EFFC0
0EFFFFC08FE16FFFF2
1FFFFFF42F90CFFFF4
1FFFFFFA0B23FFFFF4
1FFFFFFF220AFFFFF4
1FFFFFFF801FFFFFF4
1FFFFFFFE07FFFFFF4
1FFFFFFFF08FFFFFF4
1FFFFFFFF08FFFFFF4
1FFFFFFFF3AFFFFFF4
1FFFFFFFFFFFFFFFF4
0FFFFFFFFFFFFFFFF3
0BFFFFFFFFFFFFFFE0
03FFFFFFFFFFFFFF60
005FFFFFFFFFFFF800
00029DEFFFFFDA3000
ENDCHAR
STARTCHAR Ydieresis
ENCODING 376
SWIDTH 578 0
DWIDTH 16 0
BBX 18 26 -1 0
BITMAP
000000000100000000
0000005BEFFD810000
000009FFFFFFFE3000
00005FFFFFFFFFC000
0000AFF68FB6CFF200
0000AFE04F80AFF300
00007FFCDFECEFE000
00005FFFFFFFFF6000
002CFEEFFFFFFDE400
02EFFE15FFFC08FF30
09FFFF60EFF60EFFC0
0EFFFFC08FE16FFFF2
1FFFFFF42F90CFFFF4
1FFFFFFA0B23FFFFF4
1FFFFFFF220AFFFFF4
1FFFFFFF801FFFFFF4
1FFFFFFFE07FFFFFF4
1FFFFFFFF08FFFFFF4
1FFFFFFFF08FFFFFF4
1FFFFFFFF3AFFFFFF4
1FFFFFFFFFFFFFFFF4
0FFFFFFFFFFFFFFFF3
0BFFFFFFFFFFFFFFE0
03FFFFFFFFFFFFFF60
005FFFFFFFFFFFF800
00029DEFFFFFDA3000
ENDCHAR
STARTCHAR Zacute
ENCODING 377
SWIDTH 578 0
DWIDTH 16 0
BBX 18 28 -1 0
BITMAP
000000003653000000
0000000CFFFFC20000
0000006FFFFFFC0000
000000BFF33FFF0000
000001FFD0AFFB0000
000005FF92FFF30000
000009FF59FFA00000
00000AFF8FFE100000
000006FFFFF7000000
000049FFFFFB950000
002CFFA88888DFE400
02EFFF6111105FFF30
09FFFFFFFFA0AFFFC0
0EFFFFFFFF23FFFFF2
1FFFFFFFF90CFFFFF4
1FFFFFFFE15FFFFFF4
1FFFFFFF70DFFFFFF4
1FFFFFFD07FFFFFFF4
1FFFFFF51EFFFFFFF4
1FFFFFC08FFFFFFFF4
1FFFFF4056666EFFF4
1FFFFF8333333EFFF4
1FFFFFFFFFFFFFFFF4
0FFFFFFFFFFFFFFFF3
0BFFFFFFFFFFFFFFE0
03FFFFFFFFFFFFFF60
005FFFFFFFFFFFF800
00029DEFFFFFDA3000
ENDCHAR
STARTCHAR zacute
ENCODING 378
SWIDTH 578 0
DWIDTH 16 0
BBX 18 28 -1 0
BITMAP
000000003653000000
0000000CFFFFC20000
0000006FFFFFFC0000
000000BFF33FFF0000
000001FFD0AFFB0000
000005FF92FFF30000
000009FF59FFA00000
00000AFF8FFE100000
000006FFFFF7000000
000049FFFFFB950000
002CFFA88888DFE400
02EFFF6111105FFF30
09FFFFFFFFA0AFFFC0
0EFFFFFFFF23FFFFF2
1FFFFFFFF90CFFFFF4
1FFFFFFFE15FFFFFF4
1FFFFFFF70DFFFFFF4
1FFFFFFD07FFFFFFF4
1FFFFFF51EFFFFFFF4
1FFFFFC08FFFFFFFF4
1FFFFF4056666EFFF4
1FFFFF8333333EFFF4
1FFFFFFFFFFFFFFFF4
0FFFFFFFFFFFFFFFF3
0BFFFFFFFFFFFFFFE0
03FFFFFFFFFFFFFF60
005FFFFFFFFFFFF800
00029DEFFFFFDA3000
ENDCHAR
STARTCHAR Zdotaccent
ENCODING 379
SWIDTH 578 0
DWIDTH 16 0
BBX 18 27 -1 0
BITMAP
000000012210000000
000005CFFFFD700000
0000AFFFFFFFFC1000
0007FFFFFFFFFFA000
000DFFFFAAFFFFF100
000EFFFF21FFFFF200
000CFFFFA9FFFFF000
0007FFFFFFFFFFA000
0001EFFFFFFFFF2000
002CFFA88888DFE400
02EFFF6111105FFF30
09FFFFFFFFA0AFFFC0
0EFFFFFFFF23FFFFF2
1FFFFFFFF90CFFFFF4
1FFFFFFFE15FFFFFF4
1FFFFFFF70DFFFFFF4
1FFFFFFD07FFFFFFF4
1FFFFFF51EFFFFFFF4
1FFFFFC08FFFFFFFF4
1FFFFF4056666EFFF4
1FFFFF8333333EFFF4
1FFFFFFFFFFFFFFFF4
0FFFFFFFFFFFFFFFF3
0BFFFFFFFFFFFFFFE0
03FFFFFFFFFFFFFF60
005FFFFFFFFFFFF800
00029DEFFFFFDA3000
ENDCHAR
STARTCHAR zdotaccent
ENCODING 380
SWIDTH 578 0
DWIDTH 16 0
BBX 18 27 -1 0
BITMAP
000000012210000000
000005CFFFFD700000
0000AFFFFFFFFC1000
0007FFFFFFFFFFA000
000DFFFFAAFFFFF100
000EFFFF21FFFFF200
000CFFFFA9FFFFF000
0007FFFFFFFFFFA000
0001EFFFFFFFFF2000
002CFFA88888DFE400
02EFFF6111105FFF30
09FFFFFFFFA0AFFFC0
0EFFFFFFFF23FFFFF2
1FFFFFFFF90CFFFFF4
1FFFFFFFE15FFFFFF4
1FFFFFFF70DFFFFFF4
1FFFFFFD07FFFFFFF4
1FFFFFF51EFFFFFFF4
1FFFFFC08FFFFFFFF4
1FFFFF4056666EFFF4
1FFFFF8333333EFFF4
1FFFFFFFFFFFFFFFF4
0FFFFFFFFFFFFFFFF3
0BFFFFFFFFFFFFFFE0
03FFFFFFFFFFFFFF60
005FFFFFFFFFFFF800
00029DEFFFFFDA3000
ENDCHAR
STARTCHAR Zcaron
ENCODING 381
SWIDTH 578 0
DWIDTH 16 0
BBX 18 27 -1 0
BITMAP
000000120002000000
00001AFFE8EFF70000
00008FFFFFFFFF2000
0000AFF5DF98FF5000
00009FF68F3BFF4000
00005FFC4D2FFF1000
00001FFF378FFC0000
00000BFF92DFF70000
00004FFFFFFFF80000
002CFFFEEEEEFFE400
02EFFF6111105FFF30
09FFFFFFFFA0AFFFC0
0EFFFFFFFF23FFFFF2
1FFFFFFFF90CFFFFF4
1FFFFFFFE15FFFFFF4
1FFFFFFF70DFFFFFF4
1FFFFFFD07FFFFFFF4
1FFFFFF51EFFFFFFF4
1FFFFFC08FFFFFFFF4
1FFFFF4056666EFFF4
1FFFFF8333333EFFF4
1FFFFFFFFFFFFFFFF4
0FFFFFFFFFFFFFFFF3
0BFFFFFFFFFFFFFFE0
03FFFFFFFFFFFFFF60
005FFFFFFFFFFFF800
00029DEFFFFFDA3000
ENDCHAR
STARTCHAR zcaron
ENCODING 382
SWIDTH 578 0
DWIDTH 16 0
BBX 18 27 -1 0
BITMAP
000000120002000000
00001AFFE8EFF70000
00008FFFFFFFFF2000
0000AFF5DF98FF5000
00009FF68F3BFF4000
00005FFC4D2FFF1000
00001FFF378FFC0000
00000BFF92DFF70000
00004FFFFFFFF80000
002CFFFEEEEEFFE400
02EFFF6111105FFF30
09FFFFFFFFA0AFFFC0
0EFFFFFFFF23FFFFF2
1FFFFFFFF90CFFFFF4
1FFFFFFFE15FFFFFF4
1FFFFFFF70DFFFFFF4
1FFFFFFD07FFFFFFF4
1FFFFFF51EFFFFFFF4
1FFFFFC08FFFFFFFF4
1FFFFF4056666EFFF4
1FFFFF8333333EFFF4
1FFFFFFFFFFFFFFFF4
0FFFFFFFFFFFFFFFF3
0BFFFFFFFFFFFFFFE0
03FFFFFFFFFFFFFF60
005FFFFFFFFFFFF800
00029DEFFFFFDA3000
ENDCHAR
STARTCHAR longs
ENCODING 383
SWIDTH 578 0
DWIDTH 16 0
BBX 18 19 -1 0
BITMAP
000049ABBBBB950000
002CFFFFFFFFFFE400
02EFFFFB435BFFFF30
09FFFF628A817FFFC0
0EFFFA2EFFFE2BFFF2
1FFFF4AFFFFF95FFF4
1FFFF2CFF8FFC3FFF4
1FFFF4AFF0FFA5FFF4
1FFFF94FF0FF3AFFF4
1FFFFF46F0F55FFFF4
1FFFFFFCF0FCFFFFF4
1FFFFFFFF3FFFFFFF4
1FFFFFFFFFFFFFFFF4
1FFFFFFFFFFFFFFFF4
0FFFFFFFFFFFFFFFF3
0BFFFFFFFFFFFFFFE0
03FFFFFFFFFFFFFF60
005FFFFFFFFFFFF800
00029DEFFFFFDA3000
ENDCHAR
STARTCHAR florin
ENCODING 402
SWIDTH 578 0
DWIDTH 16 0
BBX 18 19 -1 0
BITMAP
000049ABBBBB950000
002CFFFFF888FFE400
02EFFFFF5012FFFF30
09FFFFFD0AFFFFFFC0
0EFFFFFD0AFFFFFFF2
1FFFFFFD0AFFFFFFF4
1FFFFFA6057EFFFFF4
1FFFFFA5045DFFFFF4
1FFFFFFD0AFFFFFFF4
1FFFFFFD0AFFFFFFF4
1FFFFFFD0AFFFFFFF4
1FFFFFFD0AFFFFFFF4
1FFFFFFD0AFFFFFFF4
1FFFFFFD0AFFFFFFF4
0FFFFD322DFFFFFFF3
0BFFFE88EFFFFFFFE0
03FFFFFFFFFFFFFF60
005FFFFFFFFFFFF800
00029DEFFFFFDA3000
ENDCHAR
STARTCHAR uni01CD
ENCODING 461
SWIDTH 578 0
DWIDTH 16 0
BBX 18 27 -1 0
BITMAP
000000021002100000
000007EFF8DFFA0000
00004FFFFFFFFF6000
00007FF7BFC6FF8000
00005FFA5F78FF7000
00002FFF2E2DFF4000
00000DFF674FFF1000
000008FFC2AFFB0000
00004BFFFFFFFB0000
002CFFFFFEFFFFE400
02EFFF5001004FFF30
09FFFF16FFF70FFFC0
0EFFFE09FFFA0DFFF2
1FFFFD0AFFFB0BFFF4
1FFFFB0CFFFD0AFFF4
1FFFF904555508FFF4
1FFFF805555507FFF4
1FFFF61FFFFF25FFF4
1FFFF43FFFFF43FFF4
1FFFF34FFFFF52FFF4
1FFFF47FFFFF83FFF4
1FFFFFFFFFFFFFFFF4
0FFFFFFFFFFFFFFFF3
0BFFFFFFFFFFFFFFE0
03FFFFFFFFFFFFFF60
005FFFFFFFFFFFF800
00029DEFFFFFDA3000
ENDCHAR
STARTCHAR uni01CE
ENCODING 462
SWIDTH 578 0
DWIDTH 16 0
BBX 18 27 -1 0
BITMAP
000000021001200000
000004DFFACFFC2000
00001EFFFFFFFFA000
00003FFA8FF4EFC000
00001FFD1FB4FFB000
00000DFF4B6AFF8000
000009FFA62EFF4000
000004FFF37FFE0000
000049FFFFFFFF0000
002CFFEEEEEFFFE400
02EFFF1111104FFF30
09FFFFEFFFF72FFFC0
0EFFFFFFFFF82FFFF2
1FFFFFFFFFF82FFFF4
1FFFFFFDDDD82FFFF4
1FFFF90000002FFFF4
1FFFF24AAAA52FFFF4
1FFFF07FFFF82FFFF4
1FFFF17FFFF82FFFF4
1FFFF31555522FFFF4
1FFFFD5333355FFFF4
1FFFFFFFFFFFFFFFF4
0FFFFFFFFFFFFFFFF3
0BFFFFFFFFFFFFFFE0
03FFFFFFFFFFFFFF60
005FFFFFFFFFFFF800
00029DEFFFFFDA3000
ENDCHAR
STARTCHAR uni01CF
ENCODING 463
SWIDTH 578 0
DWIDTH 16 0
BBX 18 27 -1 0
BITMAP
000000022001200000
000003DFFBAFFD3000
00000DFFFFFFFFC000
00001FFC6FF5CFE000
00000EFF1ED2FFD000
00000BFF7987FFA000
000006FFC43DFF6000
000002FFF55FFF2000
000049FFFFFFFF0000
002CFEBEEEEEECE400
02EFFD11100114FF30
09FFFFFFF26FFFFFC0
0EFFFFFFF26FFFFFF2
1FFFFFFFF26FFFFFF4
1FFFFFFFF26FFFFFF4
1FFFFFFFF26FFFFFF4
1FFFFFFFF26FFFFFF4
1FFFFFFFF26FFFFFF4
1FFFFFFFF26FFFFFF4
1FFFFE55512557FFF4
1FFFFE33333335FFF4
1FFFFFFFFFFFFFFFF4
0FFFFFFFFFFFFFFFF3
0BFFFFFFFFFFFFFFE0
03FFFFFFFFFFFFFF60
005FFFFFFFFFFFF800
00029DEFFFFFDA3000
ENDCHAR
STARTCHAR uni01D0
ENCODING 464
SWIDTH 578 0
DWIDTH 16 0
BBX 18 27 -1 0
BITMAP
000000021001200000
000004DFFABFFD2000
00000EFFFFFFFFB000
00002FFB7FF4DFD000
00001FFE1FB3FFC000
00000CFF5A79FF9000
000008FFB52EFF5000
000003FFF46FFF1000
000049FFFFFFFF0000
002CFECEEEEEECE400
02EFFD11100114FF30
09FFFFFFF26FFFFFC0
0EFFFFFFF26FFFFFF2
1FFFFFFFF26FFFFFF4
1FFFFFFFF26FFFFFF4
1FFFFFFFF26FFFFFF4
1FFFFFFFF26FFFFFF4
1FFFFFFFF26FFFFFF4
1FFFFFFFF26FFFFFF4
1FFFFE55512557FFF4
1FFFFE33333335FFF4
1FFFFFFFFFFFFFFFF4
0FFFFFFFFFFFFFFFF3
0BFFFFFFFFFFFFFFE0
03FFFFFFFFFFFFFF60
005FFFFFFFFFFFF800
00029DEFFFFFDA3000
ENDCHAR
STARTCHAR uni01D1
ENCODING 465
SWIDTH 578 0
DWIDTH 16 0
BBX 18 27 -1 0
BITMAP
000000021002100000
000005EFF9CFFC1000
00001FFFFFFFFF9000
00004FF98FE4EFB000
00002FFD2FA5FFA000
00000EFF4C5BFF7000
000009FF972FFF3000
000005FFE38FFE0000
000049FFFFFFFE0000
002CFFFFEEEEFFE400
02EFFB00111005FF30
09FFF71FFFFF70FFC0
0EFFF72FFFFF80FFF2
1FFFF72FFFFF80FFF4
1FFFF72FFFFF80FFF4
1FFFF72FFFFF80FFF4
1FFFF72FFFFF80FFF4
1FFFF72FFFFF80FFF4
1FFFF71FFFFF80FFF4
1FFFF904555512FFF4
1FFFFF7433335CFFF4
1FFFFFFFFFFFFFFFF4
0FFFFFFFFFFFFFFFF3
0BFFFFFFFFFFFFFFE0
03FFFFFFFFFFFFFF60
005FFFFFFFFFFFF800
00029DEFFFFFDA3000
ENDCHAR
STARTCHAR uni01D3
ENCODING 467
SWIDTH 578 0
DWIDTH 16 0
BBX 18 27 -1 0
BITMAP
000000021001200000
000004DFFABFFD2000
00001EFFFFFFFFA000
00002FFA7FF4EFD000
00001FFE1FB3FFC000
00000CFF5B69FF9000
000008FFB62EFF5000
000003FFF47FFF1000
000049FFFFFFFF0000
002CFADFFFFFFBE400
02EFF63FFFFF71FF30
09FFF63FFFFF71FFC0
0EFFF63FFFFF71FFF2
1FFFF63FFFFF71FFF4
1FFFF63FFFFF71FFF4
1FFFF63FFFFF71FFF4
1FFFF63FFFFF71FFF4
1FFFF63FFFFF71FFF4
1FFFF62FFFFF71FFF4
1FFFF804555513FFF4
1FFFFF6333335DFFF4
1FFFFFFFFFFFFFFFF4
0FFFFFFFFFFFFFFFF3
0BFFFFFFFFFFFFFFE0
03FFFFFFFFFFFFFF60
005FFFFFFFFFFFF800
00029DEFFFFFDA3000
ENDCHAR
STARTCHAR uni01D4
ENCODING 468
SWIDTH 578 0
DWIDTH 16 0
BBX 18 27 -1 0
BITMAP
000000021001200000
000004DFFABFFD2000
00000EFFFFFFFFB000
00002FFB7FF4DFD000
00001FFE1FB3FFC000
00000CFF5A79FF9000
000008FFB52EFF5000
000003FFF46FFF1000
000049FFFFFFFF0000
002CFADFFFFFFBE400
02EFF63FFFFF71FF30
09FFF63FFFFF71FFC0
0EFFF63FFFFF71FFF2
1FFFF63FFFFF71FFF4
1FFFF63FFFFF71FFF4
1FFFF63FFFFF71FFF4
1FFFF63FFFFF71FFF4
1FFFF63FFFFF71FFF4
1FFFF62FFFFF71FFF4
1FFFF804555513FFF4
1FFFFF6333335DFFF4
1FFFFFFFFFFFFFFFF4
0FFFFFFFFFFFFFFFF3
0BFFFFFFFFFFFFFFE0
03FFFFFFFFFFFFFF60
005FFFFFFFFFFFF800
00029DEFFFFFDA3000
ENDCHAR
STARTCHAR uni0200
ENCODING 512
SWIDTH 578 0
DWIDTH 16 0
BBX 18 27 -1 0
BITMAP
00009A78A820000000
0005FFFFFFE2000000
000DFFFFFFFA000000
006FD1EE2CFF300000
00AFF86FA4FFB00000
001EFF3DF5BFF50000
0005FFC5FE4FFC0000
0000AFF9EFBDFF0000
00006FFFFFFFFF0000
002CFFFFFEFFFFE400
02EFFF5001004FFF30
09FFFF16FFF70FFFC0
0EFFFE09FFFA0DFFF2
1FFFFD0AFFFB0BFFF4
1FFFFB0CFFFD0AFFF4
1FFFF904555508FFF4
1FFFF805555507FFF4
1FFFF61FFFFF25FFF4
1FFFF43FFFFF43FFF4
1FFFF34FFFFF52FFF4
1FFFF47FFFFF83FFF4
1FFFFFFFFFFFFFFFF4
0FFFFFFFFFFFFFFFF3
0BFFFFFFFFFFFFFFE0
03FFFFFFFFFFFFFF60
005FFFFFFFFFFFF800
00029DEFFFFFDA3000
ENDCHAR
STARTCHAR uni0201
ENCODING 513
SWIDTH 578 0
DWIDTH 16 0
BBX 18 27 -1 0
BITMAP
00009A78A820000000
0005FFFFFFE2000000
000DFFFFFFFA000000
006FD1EE2CFF300000
00AFF86FA4FFB00000
001EFF3DF5BFF50000
0005FFC5FE4FFC0000
0000AFF9EFBDFF0000
00006FFFFFFFFF0000
002CFFFEEEEFFFE400
02EFFF1111104FFF30
09FFFFEFFFF72FFFC0
0EFFFFFFFFF82FFFF2
1FFFFFFFFFF82FFFF4
1FFFFFFDDDD82FFFF4
1FFFF90000002FFFF4
1FFFF24AAAA52FFFF4
1FFFF07FFFF82FFFF4
1FFFF17FFFF82FFFF4
1FFFF31555522FFFF4
1FFFFD5333355FFFF4
1FFFFFFFFFFFFFFFF4
0FFFFFFFFFFFFFFFF3
0BFFFFFFFFFFFFFFE0
03FFFFFFFFFFFFFF60
005FFFFFFFFFFFF800
00029DEFFFFFDA3000
ENDCHAR
STARTCHAR uni0202
ENCODING 514
SWIDTH 578 0
DWIDTH 16 0
BBX 18 26 -1 0
BITMAP
0000006BDEDB610000
00002DFFFFFFFD3000
0001DFFFFFFFFFE100
0005FFFFDCDFFFF700
0007FFF70006FFF800
0005FFF28EA0FFF600
0000DFFDEFFDFFE100
00007FFFFFFFFF4000
002CFFFECBBEFFE400
02EFFF5001004FFF30
09FFFF16FFF70FFFC0
0EFFFE09FFFA0DFFF2
1FFFFD0AFFFB0BFFF4
1FFFFB0CFFFD0AFFF4
1FFFF904555508FFF4
1FFFF805555507FFF4
1FFFF61FFFFF25FFF4
1FFFF43FFFFF43FFF4
1FFFF34FFFFF52FFF4
1FFFF47FFFFF83FFF4
1FFFFFFFFFFFFFFFF4
0FFFFFFFFFFFFFFFF3
0BFFFFFFFFFFFFFFE0
03FFFFFFFFFFFFFF60
005FFFFFFFFFFFF800
00029DEFFFFFDA3000
ENDCHAR
STARTCHAR uni0203
ENCODING 515
SWIDTH 578 0
DWIDTH 16 0
BBX 18 26 -1 0
BITMAP
0000006BDEDB610000
00002DFFFFFFFD3000
0001DFFFFFFFFFE100
0005FFFFDCDFFFF700
0007FFF70006FFF800
0005FFF28EA0FFF600
0000DFFDEFFDFFE100
00007FFFFFFFFF4000
002CFFDBBBBCFFE400
02EFFF1111104FFF30
09FFFFEFFFF72FFFC0
0EFFFFFFFFF82FFFF2
1FFFFFFFFFF82FFFF4
1FFFFFFDDDD82FFFF4
1FFFF90000002FFFF4
1FFFF24AAAA52FFFF4
1FFFF07FFFF82FFFF4
1FFFF17FFFF82FFFF4
1FFFF31555522FFFF4
1FFFFD5333355FFFF4
1FFFFFFFFFFFFFFFF4
0FFFFFFFFFFFFFFFF3
0BFFFFFFFFFFFFFFE0
03FFFFFFFFFFFFFF60
005FFFFFFFFFFFF800
00029DEFFFFFDA3000
ENDCHAR
STARTCHAR uni0204
ENCODING 516
SWIDTH 578 0
DWIDTH 16 0
BBX 18 27 -1 0
BITMAP
00009A78A820000000
0005FFFFFFE2000000
000DFFFFFFFA000000
006FD1EE2CFF300000
00AFF86FA4FFB00000
001EFF3DF5BFF50000
0005FFC5FE4FFC0000
0000AFF9EFBDFF0000
00006FFFFFFFFF0000
002CFFFEEEEEEFE400
02EFFF8011111CFF30
09FFFF81FFFFFFFFC0
0EFFFF81FFFFFFFFF2
1FFFFF81FFFFFFFFF4
1FFFFF817777BFFFF4
1FFFFF8022229FFFF4
1FFFFF81FFFFFFFFF4
1FFFFF81FFFFFFFFF4
1FFFFF81FFFFFFFFF4
1FFFFF8055555BFFF4
1FFFFF9333333AFFF4
1FFFFFFFFFFFFFFFF4
0FFFFFFFFFFFFFFFF3
0BFFFFFFFFFFFFFFE0
03FFFFFFFFFFFFFF60
005FFFFFFFFFFFF800
00029DEFFFFFDA3000
ENDCHAR
STARTCHAR uni0205
ENCODING 517
SWIDTH 578 0
DWIDTH 16 0
BBX 18 27 -1 0
BITMAP
00009A78A820000000
0005FFFFFFE2000000
000DFFFFFFFA000000
006FD1EE2CFF300000
00AFF86FA4FFB00000
001EFF3DF5BFF50000
0005FFC5FE4FFC0000
0000AFF9EFBDFF0000
00006FFFFFFFFF0000
002CFFFEEEEFFFE400
02EFF70111105FFF30
09FFF35FFFF71FFFC0
0EFFF26FFFF80FFFF2
1FFFF24BBBB60FFFF4
1FFFF20000000FFFF4
1FFFF25DDDDDDFFFF4
1FFFF26FFFFFFFFFF4
1FFFF26FFFFFFFFFF4
1FFFF33DEEECEFFFF4
1FFFF80000008FFFF4
1FFFFFCA999ADFFFF4
1FFFFFFFFFFFFFFFF4
0FFFFFFFFFFFFFFFF3
0BFFFFFFFFFFFFFFE0
03FFFFFFFFFFFFFF60
005FFFFFFFFFFFF800
00029DEFFFFFDA3000
ENDCHAR
STARTCHAR uni0206
ENCODING 518
SWIDTH 578 0
DWIDTH 16 0
BBX 18 26 -1 0
BITMAP
0000006BDEDB610000
00002DFFFFFFFD3000
0001DFFFFFFFFFE100
0005FFFFDCDFFFF700
0007FFF70006FFF800
0005FFF28EA0FFF600
0000DFFDEFFDFFE100
00007FFFFFFFFF4000
002CFFFBBBBBBFE400
02EFFF8011111CFF30
09FFFF81FFFFFFFFC0
0EFFFF81FFFFFFFFF2
1FFFFF81FFFFFFFFF4
1FFFFF817777BFFFF4
1FFFFF8022229FFFF4
1FFFFF81FFFFFFFFF4
1FFFFF81FFFFFFFFF4
1FFFFF81FFFFFFFFF4
1FFFFF8055555BFFF4
1FFFFF9333333AFFF4
1FFFFFFFFFFFFFFFF4
0FFFFFFFFFFFFFFFF3
0BFFFFFFFFFFFFFFE0
03FFFFFFFFFFFFFF60
005FFFFFFFFFFFF800
00029DEFFFFFDA3000
ENDCHAR
STARTCHAR uni0207
ENCODING 519
SWIDTH 578 0
DWIDTH 16 0
BBX 18 26 -1 0
BITMAP
0000006BDEDB610000
00002DFFFFFFFD3000
0001DFFFFFFFFFE100
0005FFFFDCDFFFF700
0007FFF70006FFF800
0005FFF28EA0FFF600
0000DFFDEFFDFFE100
00007FFFFFFFFF4000
002CFFDBBBBCFFE400
02EFF70111105FFF30
09FFF35FFFF71FFFC0
0EFFF26FFFF80FFFF2
1FFFF24BBBB60FFFF4
1FFFF20000000FFFF4
1FFFF25DDDDDDFFFF4
1FFFF26FFFFFFFFFF4
1FFFF26FFFFFFFFFF4
1FFFF33DEEECEFFFF4
1FFFF80000008FFFF4
1FFFFFCA999ADFFFF4
1FFFFFFFFFFFFFFFF4
0FFFFFFFFFFFFFFFF3
0BFFFFFFFFFFFFFFE0
03FFFFFFFFFFFFFF60
005FFFFFFFFFFFF800
00029DEFFFFFDA3000
ENDCHAR
STARTCHAR uni0208
ENCODING 520
SWIDTH 578 0
DWIDTH 16 0
BBX 18 27 -1 0
BITMAP
00009A78A820000000
0005FFFFFFE2000000
000DFFFFFFFA000000
006FD1EE2CFF300000
00AFF86FA4FFB00000
001EFF3DF5BFF50000
0005FFC5FE4FFC0000
0000AFF9EFBDFF0000
00006FFFFFFFFF0000
002CFFEEEEEEEDE400
02EFFD11100114FF30
09FFFFFFF26FFFFFC0
0EFFFFFFF26FFFFFF2
1FFFFFFFF26FFFFFF4
1FFFFFFFF26FFFFFF4
1FFFFFFFF26FFFFFF4
1FFFFFFFF26FFFFFF4
1FFFFFFFF26FFFFFF4
1FFFFFFFF26FFFFFF4
1FFFFE55512557FFF4
1FFFFE33333335FFF4
1FFFFFFFFFFFFFFFF4
0FFFFFFFFFFFFFFFF3
0BFFFFFFFFFFFFFFE0
03FFFFFFFFFFFFFF60
005FFFFFFFFFFFF800
00029DEFFFFFDA3000
ENDCHAR
STARTCHAR uni0209
ENCODING 521
SWIDTH 578 0
DWIDTH 16 0
BBX 18 27 -1 0
BITMAP
00009A78A820000000
0005FFFFFFE2000000
000DFFFFFFFA000000
006FD1EE2CFF300000
00AFF86FA4FFB00000
001EFF3DF5BFF50000
0005FFC5FE4FFC0000
0000AFF9EFBDFF0000
00006FFFFFFFFF0000
002CFFEEEEEEEDE400
02EFFD11100114FF30
09FFFFFFF26FFFFFC0
0EFFFFFFF26FFFFFF2
1FFFFFFFF26FFFFFF4
1FFFFFFFF26FFFFFF4
1FFFFFFFF26FFFFFF4
1FFFFFFFF26FFFFFF4
1FFFFFFFF26FFFFFF4
1FFFFFFFF26FFFFFF4
1FFFFE55512557FFF4
1FFFFE33333335FFF4
1FFFFFFFFFFFFFFFF4
0FFFFFFFFFFFFFFFF3
0BFFFFFFFFFFFFFFE0
03FFFFFFFFFFFFFF60
005FFFFFFFFFFFF800
00029DEFFFFFDA3000
ENDCHAR
STARTCHAR uni020A
ENCODING 522
SWIDTH 578 0
DWIDTH 16 0
BBX 18 26 -1 0
BITMAP
0000006BDEDB610000
00002DFFFFFFFD3000
0001DFFFFFFFFFE100
0005FFFFDCDFFFF700
0007FFF70006FFF800
0005FFF28EA0FFF600
0000DFFDEFFDFFE100
00007FFFFFFFFF4000
002CFFBBBBBBBAE400
02EFFD11100114FF30
09FFFFFFF26FFFFFC0
0EFFFFFFF26FFFFFF2
1FFFFFFFF26FFFFFF4
1FFFFFFFF26FFFFFF4
1FFFFFFFF26FFFFFF4
1FFFFFFFF26FFFFFF4
1FFFFFFFF26FFFFFF4
1FFFFFFFF26FFFFFF4
1FFFFE55512557FFF4
1FFFFE33333335FFF4
1FFFFFFFFFFFFFFFF4
0FFFFFFFFFFFFFFFF3
0BFFFFFFFFFFFFFFE0
03FFFFFFFFFFFFFF60
005FFFFFFFFFFFF800
00029DEFFFFFDA3000
ENDCHAR
STARTCHAR uni020B
ENCODING 523
SWIDTH 578 0
DWIDTH 16 0
BBX 18 26 -1 0
BITMAP
0000006BDEDB610000
00002DFFFFFFFD3000
0001DFFFFFFFFFE100
0005FFFFDCDFFFF700
0007FFF70006FFF800
0005FFF28EA0FFF600
0000DFFDEFFDFFE100
00007FFFFFFFFF4000
002CFFBBBBBBBAE400
02EFFD11100114FF30
09FFFFFFF26FFFFFC0
0EFFFFFFF26FFFFFF2
1FFFFFFFF26FFFFFF4
1FFFFFFFF26FFFFFF4
1FFFFFFFF26FFFFFF4
1FFFFFFFF26FFFFFF4
1FFFFFFFF26FFFFFF4
1FFFFFFFF26FFFFFF4
1FFFFE55512557FFF4
1FFFFE33333335FFF4
1FFFFFFFFFFFFFFFF4
0FFFFFFFFFFFFFFFF3
0BFFFFFFFFFFFFFFE0
03FFFFFFFFFFFFFF60
005FFFFFFFFFFFF800
00029DEFFFFFDA3000
ENDCHAR
STARTCHAR uni020C
ENCODING 524
SWIDTH 578 0
DWIDTH 16 0
BBX 18 27 -1 0
BITMAP
00009A78A820000000
0005FFFFFFE2000000
000DFFFFFFFA000000
006FD1EE2CFF300000
00AFF86FA4FFB00000
001EFF3DF5BFF50000
0005FFC5FE4FFC0000
0000AFF9EFBDFF0000
00006FFFFFFFFF0000
002CFFFFEEEEFFE400
02EFFB00111005FF30
09FFF71FFFFF70FFC0
0EFFF72FFFFF80FFF2
1FFFF72FFFFF80FFF4
1FFFF72FFFFF80FFF4
1FFFF72FFFFF80FFF4
1FFFF72FFFFF80FFF4
1FFFF72FFFFF80FFF4
1FFFF71FFFFF80FFF4
1FFFF904555512FFF4
1FFFFF7433335CFFF4
1FFFFFFFFFFFFFFFF4
0FFFFFFFFFFFFFFFF3
0BFFFFFFFFFFFFFFE0
03FFFFFFFFFFFFFF60
005FFFFFFFFFFFF800
00029DEFFFFFDA3000
ENDCHAR
STARTCHAR uni020D
ENCODING 525
SWIDTH 578 0
DWIDTH 16 0
BBX 18 27 -1 0
BITMAP
00009A78A820000000
0005FFFFFFE2000000
000DFFFFFFFA000000
006FD1EE2CFF300000
00AFF86FA4FFB00000
001EFF3DF5BFF50000
0005FFC5FE4FFC0000
0000AFF9EFBDFF0000
00006FFFFFFFFF0000
002CFFFFEEEEFFE400
02EFFB00111005FF30
09FFF71FFFFF70FFC0
0EFFF72FFFFF80FFF2
1FFFF72FFFFF80FFF4
1FFFF72FFFFF80FFF4
1FFFF72FFFFF80FFF4
1FFFF72FFFFF80FFF4
1FFFF72FFFFF80FFF4
1FFFF71FFFFF80FFF4
1FFFF904555512FFF4
1FFFFF7433335CFFF4
1FFFFFFFFFFFFFFFF4
0FFFFFFFFFFFFFFFF3
0BFFFFFFFFFFFFFFE0
03FFFFFFFFFFFFFF60
005FFFFFFFFFFFF800
00029DEFFFFFDA3000
ENDCHAR
STARTCHAR uni020E
ENCODING 526
SWIDTH 578 0
DWIDTH 16 0
BBX 18 26 -1 0
BITMAP
0000006BDEDB610000
00002DFFFFFFFD3000
0001DFFFFFFFFFE100
0005FFFFDCDFFFF700
0007FFF70006FFF800
0005FFF28EA0FFF600
0000DFFDEFFDFFE100
00007FFFFFFFFF4000
002CFFFCBBBBDFE400
02EFFB00111005FF30
09FFF71FFFFF70FFC0
0EFFF72FFFFF80FFF2
1FFFF72FFFFF80FFF4
1FFFF72FFFFF80FFF4
1FFFF72FFFFF80FFF4
1FFFF72FFFFF80FFF4
1FFFF72FFFFF80FFF4
1FFFF71FFFFF80FFF4
1FFFF904555512FFF4
1FFFFF7433335CFFF4
1FFFFFFFFFFFFFFFF4
0FFFFFFFFFFFFFFFF3
0BFFFFFFFFFFFFFFE0
03FFFFFFFFFFFFFF60
005FFFFFFFFFFFF800
00029DEFFFFFDA3000
ENDCHAR
STARTCHAR uni020F
ENCODING 527
SWIDTH 578 0
DWIDTH 16 0
BBX 18 26 -1 0
BITMAP
0000006BDEDB610000
00002DFFFFFFFD3000
0001DFFFFFFFFFE100
0005FFFFDCDFFFF700
0007FFF70006FFF800
0005FFF28EA0FFF600
0000DFFDEFFDFFE100
00007FFFFFFFFF4000
002CFFFCBBBBDFE400
02EFFB00111005FF30
09FFF71FFFFF70FFC0
0EFFF72FFFFF80FFF2
1FFFF72FFFFF80FFF4
1FFFF72FFFFF80FFF4
1FFFF72FFFFF80FFF4
1FFFF72FFFFF80FFF4
1FFFF72FFFFF80FFF4
1FFFF71FFFFF80FFF4
1FFFF904555512FFF4
1FFFFF7433335CFFF4
1FFFFFFFFFFFFFFFF4
0FFFFFFFFFFFFFFFF3
0BFFFFFFFFFFFFFFE0
03FFFFFFFFFFFFFF60
005FFFFFFFFFFFF800
00029DEFFFFFDA3000
ENDCHAR
STARTCHAR uni0210
ENCODING 528
SWIDTH 578 0
DWIDTH 16 0
BBX 18 27 -1 0
BITMAP
00009A78A820000000
0005FFFFFFE2000000
000DFFFFFFFA000000
006FD1EE2CFF300000
00AFF86FA4FFB00000
001EFF3DF5BFF50000
0005FFC5FE4FFC0000
0000AFF9EFBDFF0000
00006FFFFFFFFF0000
002CFFEEEEEFFFE400
02EFFB0111103FFF30
09FFFB0CFFF80DFFC0
0EFFFB0CFFFC0CFFF2
1FFFFB0CFFFB0CFFF4
1FFFFB0ACCC53FFFF4
1FFFFB000003DFFFF4
1FFFFB09BBB50EFFF4
1FFFFB0CFFFD0AFFF4
1FFFFB0CFFFD0AFFF4
1FFFFB0CFFFD0AFFF4
1FFFFB3DFFFE3BFFF4
1FFFFFFFFFFFFFFFF4
0FFFFFFFFFFFFFFFF3
0BFFFFFFFFFFFFFFE0
03FFFFFFFFFFFFFF60
005FFFFFFFFFFFF800
00029DEFFFFFDA3000
ENDCHAR
STARTCHAR uni0211
ENCODING 529
SWIDTH 578 0
DWIDTH 16 0
BBX 18 27 -1 0
BITMAP
00009A78A820000000
0005FFFFFFE2000000
000DFFFFFFFA000000
006FD1EE2CFF300000
00AFF86FA4FFB00000
001EFF3DF5BFF50000
0005FFC5FE4FFC0000
0000AFF9EFBDFF0000
00006FFFFFFFFF0000
002CFFEEEEEFFFE400
02EFFB0111103FFF30
09FFFB0CFFF80DFFC0
0EFFFB0CFFFC0CFFF2
1FFFFB0CFFFB0CFFF4
1FFFFB0ACCC53FFFF4
1FFFFB000003DFFFF4
1FFFFB09BBB50EFFF4
1FFFFB0CFFFD0AFFF4
1FFFFB0CFFFD0AFFF4
1FFFFB0CFFFD0AFFF4
1FFFFB3DFFFE3BFFF4
1FFFFFFFFFFFFFFFF4
0FFFFFFFFFFFFFFFF3
0BFFFFFFFFFFFFFFE0
03FFFFFFFFFFFFFF60
005FFFFFFFFFFFF800
00029DEFFFFFDA3000
ENDCHAR
STARTCHAR uni0212
ENCODING 530
SWIDTH 578 0
DWIDTH 16 0
BBX 18 26 -1 0
BITMAP
0000006BDEDB610000
00002DFFFFFFFD3000
0001DFFFFFFFFFE100
0005FFFFDCDFFFF700
0007FFF70006FFF800
0005FFF28EA0FFF600
0000DFFDEFFDFFE100
00007FFFFFFFFF4000
002CFEBBBBBCFFE400
02EFFB0111103FFF30
09FFFB0CFFF80DFFC0
0EFFFB0CFFFC0CFFF2
1FFFFB0CFFFB0CFFF4
1FFFFB0ACCC53FFFF4
1FFFFB000003DFFFF4
1FFFFB09BBB50EFFF4
1FFFFB0CFFFD0AFFF4
1FFFFB0CFFFD0AFFF4
1FFFFB0CFFFD0AFFF4
1FFFFB3DFFFE3BFFF4
1FFFFFFFFFFFFFFFF4
0FFFFFFFFFFFFFFFF3
0BFFFFFFFFFFFFFFE0
03FFFFFFFFFFFFFF60
005FFFFFFFFFFFF800
00029DEFFFFFDA3000
ENDCHAR
STARTCHAR uni0213
ENCODING 531
SWIDTH 578 0
DWIDTH 16 0
BBX 18 26 -1 0
BITMAP
0000006BDEDB610000
00002DFFFFFFFD3000
0001DFFFFFFFFFE100
0005FFFFDCDFFFF700
0007FFF70006FFF800
0005FFF28EA0FFF600
0000DFFDEFFDFFE100
00007FFFFFFFFF4000
002CFEBBBBBCFFE400
02EFFB0111103FFF30
09FFFB0CFFF80DFFC0
0EFFFB0CFFFC0CFFF2
1FFFFB0CFFFB0CFFF4
1FFFFB0ACCC53FFFF4
1FFFFB000003DFFFF4
1FFFFB09BBB50EFFF4
1FFFFB0CFFFD0AFFF4
1FFFFB0CFFFD0AFFF4
1FFFFB0CFFFD0AFFF4
1FFFFB3DFFFE3BFFF4
1FFFFFFFFFFFFFFFF4
0FFFFFFFFFFFFFFFF3
0BFFFFFFFFFFFFFFE0
03FFFFFFFFFFFFFF60
005FFFFFFFFFFFF800
00029DEFFFFFDA3000
ENDCHAR
STARTCHAR uni0214
ENCODING 532
SWIDTH 578 0
DWIDTH 16 0
BBX 18 27 -1 0
BITMAP
00009A78A820000000
0005FFFFFFE2000000
000DFFFFFFFA000000
006FD1EE2CFF300000
00AFF86FA4FFB00000
001EFF3DF5BFF50000
0005FFC5FE4FFC0000
0000AFF9EFBDFF0000
00006FFFFFFFFF0000
002CFEFFFFFFFCE400
02EFF63FFFFF71FF30
09FFF63FFFFF71FFC0
0EFFF63FFFFF71FFF2
1FFFF63FFFFF71FFF4
1FFFF63FFFFF71FFF4
1FFFF63FFFFF71FFF4
1FFFF63FFFFF71FFF4
1FFFF63FFFFF71FFF4
1FFFF62FFFFF71FFF4
1FFFF804555513FFF4
1FFFFF6333335DFFF4
1FFFFFFFFFFFFFFFF4
0FFFFFFFFFFFFFFFF3
0BFFFFFFFFFFFFFFE0
03FFFFFFFFFFFFFF60
005FFFFFFFFFFFF800
00029DEFFFFFDA3000
ENDCHAR
STARTCHAR uni0215
ENCODING 533
SWIDTH 578 0
DWIDTH 16 0
BBX 18 27 -1 0
BITMAP
00009A78A820000000
0005FFFFFFE2000000
000DFFFFFFFA000000
006FD1EE2CFF300000
00AFF86FA4FFB00000
001EFF3DF5BFF50000
0005FFC5FE4FFC0000
0000AFF9EFBDFF0000
00006FFFFFFFFF0000
002CFEFFFFFFFCE400
02EFF63FFFFF71FF30
09FFF63FFFFF71FFC0
0EFFF63FFFFF71FFF2
1FFFF63FFFFF71FFF4
1FFFF63FFFFF71FFF4
1FFFF63FFFFF71FFF4
1FFFF63FFFFF71FFF4
1FFFF63FFFFF71FFF4
1FFFF62FFFFF71FFF4
1FFFF804555513FFF4
1FFFFF6333335DFFF4
1FFFFFFFFFFFFFFFF4
0FFFFFFFFFFFFFFFF3
0BFFFFFFFFFFFFFFE0
03FFFFFFFFFFFFFF60
005FFFFFFFFFFFF800
00029DEFFFFFDA3000
ENDCHAR
STARTCHAR uni0216
ENCODING 534
SWIDTH 578 0
DWIDTH 16 0
BBX 18 26 -1 0
BITMAP
0000006BDEDB610000
00002DFFFFFFFD3000
0001DFFFFFFFFFE100
0005FFFFDCDFFFF700
0007FFF70006FFF800
0005FFF28EA0FFF600
0000DFFDEFFDFFE100
00007FFFFFFFFF4000
002CFBCFFFFFE9E400
02EFF63FFFFF71FF30
09FFF63FFFFF71FFC0
0EFFF63FFFFF71FFF2
1FFFF63FFFFF71FFF4
1FFFF63FFFFF71FFF4
1FFFF63FFFFF71FFF4
1FFFF63FFFFF71FFF4
1FFFF63FFFFF71FFF4
1FFFF62FFFFF71FFF4
1FFFF804555513FFF4
1FFFFF6333335DFFF4
1FFFFFFFFFFFFFFFF4
0FFFFFFFFFFFFFFFF3
0BFFFFFFFFFFFFFFE0
03FFFFFFFFFFFFFF60
005FFFFFFFFFFFF800
00029DEFFFFFDA3000
ENDCHAR
STARTCHAR uni0217
ENCODING 535
SWIDTH 578 0
DWIDTH 16 0
BBX 18 26 -1 0
BITMAP
0000006BDEDB610000
00002DFFFFFFFD3000
0001DFFFFFFFFFE100
0005FFFFDCDFFFF700
0007FFF70006FFF800
0005FFF28EA0FFF600
0000DFFDEFFDFFE100
00007FFFFFFFFF4000
002CFBCFFFFFE9E400
02EFF63FFFFF71FF30
09FFF63FFFFF71FFC0
0EFFF63FFFFF71FFF2
1FFFF63FFFFF71FFF4
1FFFF63FFFFF71FFF4
1FFFF63FFFFF71FFF4
1FFFF63FFFFF71FFF4
1FFFF63FFFFF71FFF4
1FFFF62FFFFF71FFF4
1FFFF804555513FFF4
1FFFFF6333335DFFF4
1FFFFFFFFFFFFFFFF4
0FFFFFFFFFFFFFFFF3
0BFFFFFFFFFFFFFFE0
03FFFFFFFFFFFFFF60
005FFFFFFFFFFFF800
00029DEFFFFFDA3000
ENDCHAR
STARTCHAR uni0218
ENCODING 536
SWIDTH 578 0
DWIDTH 16 0
BBX 18 19 -1 0
BITMAP
000049ABBBBB950000
002CFFD988889DE400
02EFFE2011110CFF30
09FFFC0AFFFFEFFFC0
0EFFFC0CFFFFFFFFF2
1FFFFC0BFFFFFFFFF4
1FFFFE0255568FFFF4
1FFFFFB5333307FFF4
1FFFFFFFFFFF44FFF4
1FFFFFFFFFFF54FFF4
1FFFFFFFFFFF44FFF4
1FFFFF85555506FFF4
1FFFFF7333336EFFF4
1FFFFFFFEBCFFFFFF4
0FFFFFFFB04FFFFFF3
0BFFFFFFD44FFFFFE0
03FFFFFFF3BFFFFF60
005FFFFFFDFFFFF800
00029DEFFFFFDA3000
ENDCHAR
STARTCHAR uni0219
ENCODING 537
SWIDTH 578 0
DWIDTH 16 0
BBX 18 19 -1 0
BITMAP
000049ABBBBB950000
002CFFD988889DE400
02EFFE2011110CFF30
09FFFC0AFFFFEFFFC0
0EFFFC0CFFFFFFFFF2
1FFFFC0BFFFFFFFFF4
1FFFFE0255568FFFF4
1FFFFFB5333307FFF4
1FFFFFFFFFFF44FFF4
1FFFFFFFFFFF54FFF4
1FFFFFFFFFFF44FFF4
1FFFFF85555506FFF4
1FFFFF7333336EFFF4
1FFFFFFFEBCFFFFFF4
0FFFFFFFB04FFFFFF3
0BFFFFFFD44FFFFFE0
03FFFFFFF3BFFFFF60
005FFFFFFDFFFFF800
00029DEFFFFFDA3000
ENDCHAR
STARTCHAR uni021A
ENCODING 538
SWIDTH 578 0
DWIDTH 16 0
BBX 18 19 -1 0
BITMAP
000049ABBBBB950000
002CFE88888889E400
02EFFD11100114FF30
09FFFFFFF26FFFFFC0
0EFFFFFFF26FFFFFF2
1FFFFFFFF26FFFFFF4
1FFFFFFFF26FFFFFF4
1FFFFFFFF26FFFFFF4
1FFFFFFFF26FFFFFF4
1FFFFFFFF26FFFFFF4
1FFFFFFFF26FFFFFF4
1FFFFFFFF26FFFFFF4
1FFFFFFFF48FFFFFF4
1FFFFFFFFDDFFFFFF4
0FFFFFFFD01FFFFFF3
0BFFFFFFE41FFFFFE0
03FFFFFFF67FFFFF60
005FFFFFFDEFFFF800
00029DEFFFFFDA3000
ENDCHAR
STARTCHAR uni021B
ENCODING 539
SWIDTH 578 0
DWIDTH 16 0
BBX 18 19 -1 0
BITMAP
000049ABBBBB950000
002CFE88888889E400
02EFFD11100114FF30
09FFFFFFF26FFFFFC0
0EFFFFFFF26FFFFFF2
1FFFFFFFF26FFFFFF4
1FFFFFFFF26FFFFFF4
1FFFFFFFF26FFFFFF4
1FFFFFFFF26FFFFFF4
1FFFFFFFF26FFFFFF4
1FFFFFFFF26FFFFFF4
1FFFFFFFF26FFFFFF4
1FFFFFFFF48FFFFFF4
1FFFFFFFFDDFFFFFF4
0FFFFFFFD01FFFFFF3
0BFFFFFFE41FFFFFE0
03FFFFFFF67FFFFF60
005FFFFFFDEFFFF800
00029DEFFFFFDA3000
ENDCHAR
STARTCHAR circumflex
ENCODING 710
SWIDTH 355 0
DWIDTH 10 0
BBX 10 10 0 0
BITMAP
002BEEB200
00DFFFFC00
06FFCCFF50
0CFF32FFC0
4FFA66AFF3
9FF4BA5FF9
DFD1FF1EFD
FFDCFFBDFE
CFFFFFFFFB
2777777772
ENDCHAR
STARTCHAR caron
ENCODING 711
SWIDTH 355 0
DWIDTH 10 0
BBX 10 10 0 0
BITMAP
0022001200
3CFFBAFFD3
DFFFFFFFFC
FFC6FF6CFF
EFF1ED2FFE
AFF7987FFB
6FFD43DFF7
2FFF55FFF2
0BFFFFFFC0
0377777730
ENDCHAR
STARTCHAR breve
ENCODING 728
SWIDTH 428 0
DWIDTH 12 0
BBX 12 9 0 0
BITMAP
000012210000
006CFFFFC600
1CFFFFFFFFB1
9FFFFFFFFFF9
EFFEEFFEEFFE
FFF92FE38FFF
CFFD1001CFFC
5FFFECCEFFF4
06EFFFFFFE50
ENDCHAR
STARTCHAR dotaccent
ENCODING 729
SWIDTH 428 0
DWIDTH 12 0
BBX 12 9 0 0
BITMAP
000012210000
006CFFFFC600
1CFFFFFFFFB1
9FFFFFFFFFF9
EFFFFAAFFFFE
FFFFF12FFFFF
DFFFF9AFFFFD
8FFFFFFFFFF8
1BBBBBBBBBB1
ENDCHAR
STARTCHAR ring
ENCODING 730
SWIDTH 368 0
DWIDTH 10 0
BBX 12 9 -1 0
BITMAP
00017AA83000
005EFFFFF800
03FFFCCEFF70
0AFF3111CFE0
0EFD1FF58FF4
1FFD1FF58FF5
0EFF4011DFF4
0BFFFDDFFFE1
03FFFFFFFF70
ENDCHAR
STARTCHAR ogonek
ENCODING 731
SWIDTH 101 0
DWIDTH 3 0
BBX 3 6 0 -5
BITMAP
0010
3D50
E700
F400
AFD0
0340
ENDCHAR
STARTCHAR tilde
ENCODING 732
SWIDTH 428 0
DWIDTH 12 0
BBX 12 9 0 0
BITMAP
0029DFFD9200
05FFFFFFFE50
4FFFFFFFFFF3
BFFFFFFFFFFB
FFFFFFFFFFFF
FFF758E74FFF
DFC063105FFD
7FEAFFCAEFF7
0BFFFFFFFFB0
ENDCHAR
STARTCHAR hungarumlaut
ENCODING 733
SWIDTH 419 0
DWIDTH 12 0
BBX 12 10 0 0
BITMAP
00028A87A900
002EFFFFFF50
00AFFFFFFFC0
04FFC2EE1DF6
0CFF4AF68FF9
5FFB5FD3FFE1
DFF4EF5CFF50
FFDBFE9FFA00
DFFFFFFFE100
477777773000
ENDCHAR
STARTCHAR uni030F
ENCODING 783
SWIDTH 419 0
DWIDTH 12 0
BBX 12 10 0 0
BITMAP
01A969A71000
08FFFFFFC000
2FFFFFFFF700
9F93FC2EFE10
DFF4AF67FF80
4FFD3FE3EFE2
09FF99FB6FF9
01DFF8FF9FFC
004FFFFFFFFA
000577777772
ENDCHAR
STARTCHAR mu
ENCODING 956
SWIDTH 578 0
DWIDTH 16 0
BBX 18 19 -1 0
BITMAP
000049ABBBBB950000
002CFA9FFFFFB8E400
02EFF63FFFFF71FF30
09FFF63FFFFF71FFC0
0EFFF63FFFFF71FFF2
1FFFF63FFFFF71FFF4
1FFFF63FFFFF71FFF4
1FFFF63FFFFF71FFF4
1FFFF63FFFFF71FFF4
1FFFF63FFFFF71FFF4
1FFFF63FFFFF71FFF4
1FFFF615555513FFF4
1FFFF61333335DFFF4
1FFFF86FFFFFFFFFF4
0FFFFFFFFFFFFFFFF3
0BFFFFFFFFFFFFFFE0
03FFFFFFFFFFFFFF60
005FFFFFFFFFFFF800
00029DEFFFFFDA3000
ENDCHAR
STARTCHAR pi
ENCODING 960
SWIDTH 578 0
DWIDTH 16 0
BBX 18 19 -1 0
BITMAP
000049ABBBBB950000
002CFFFC878CFFE400
02EFFC3489834DFF30
09FFA2BC879DA2CFC0
0EFD2DE17754FB2FF2
1FF78FD2FFD2FF69F4
1FF2EFB3FFE0FFB4F4
1FF1FF928880DFE2F4
1FF1FF838881CFE2F4
1FF3DF68FFF4AFB5F4
1FF86F59FFF59F4AF4
1FFE2BADFFFBC93FF4
1FFFC29FFFFE72DFF4
1FFFFD5256516EFFF4
0FFFFFFEBABEFFFFF3
0BFFFFFFFFFFFFFFE0
03FFFFFFFFFFFFFF60
005FFFFFFFFFFFF800
00029DEFFFFFDA3000
ENDCHAR
STARTCHAR uni1E60
ENCODING 7776
SWIDTH 578 0
DWIDTH 16 0
BBX 18 26 -1 0
BITMAP
000000001221000000
0000007CFFFFC60000
00001CFFFFFFFFB000
0000AFFFFFFFFFF800
0001FFFFFABFFFFD00
0001FFFFF03FFFFE00
0000EFFFF9AFFFFC00
0000EFFFFFFFFFF700
002CFFFFFFFFFFF500
02EFFE2011110CFF30
09FFFC0AFFFFEFFFC0
0EFFFC0CFFFFFFFFF2
1FFFFC0BFFFFFFFFF4
1FFFFE0255568FFFF4
1FFFFFB5333307FFF4
1FFFFFFFFFFF44FFF4
1FFFFFFFFFFF54FFF4
1FFFFFFFFFFF44FFF4
1FFFFF85555506FFF4
1FFFFF7333336EFFF4
1FFFFFFFFFFFFFFFF4
0FFFFFFFFFFFFFFFF3
0BFFFFFFFFFFFFFFE0
03FFFFFFFFFFFFFF60
005FFFFFFFFFFFF800
00029DEFFFFFDA3000
ENDCHAR
STARTCHAR uni1E8E
ENCODING 7822
SWIDTH 578 0
DWIDTH 16 0
BBX 18 26 -1 0
BITMAP
000000001220000000
0000018DFFFFB40000
00003EFFFFFFFF8000
0000DFFFFFFFFFF500
0003FFFFEACFFFFB00
0004FFFFC06FFFFC00
0002FFFFE9BFFFFA00
0000FFFFFFFFFFF400
002CFFFFFFFFFFF400
02EFFE15FFFC08FF30
09FFFF60EFF60EFFC0
0EFFFFC08FE16FFFF2
1FFFFFF42F90CFFFF4
1FFFFFFA0B23FFFFF4
1FFFFFFF220AFFFFF4
1FFFFFFF801FFFFFF4
1FFFFFFFE07FFFFFF4
1FFFFFFFF08FFFFFF4
1FFFFFFFF08FFFFFF4
1FFFFFFFF3AFFFFFF4
1FFFFFFFFFFFFFFFF4
0FFFFFFFFFFFFFFFF3
0BFFFFFFFFFFFFFFE0
03FFFFFFFFFFFFFF60
005FFFFFFFFFFFF800
00029DEFFFFFDA3000
ENDCHAR
STARTCHAR uni1E8F
ENCODING 7823
SWIDTH 578 0
DWIDTH 16 0
BBX 18 26 -1 0
BITMAP
000000001220000000
0000018DFFFFB40000
00003EFFFFFFFF8000
0000DFFFFFFFFFF500
0003FFFFEACFFFFB00
0004FFFFC06FFFFC00
0002FFFFE9BFFFFA00
0000FFFFFFFFFFF400
002CFFFFFFFFFFF400
02EFFE15FFFC08FF30
09FFFF60EFF60EFFC0
0EFFFFC08FE16FFFF2
1FFFFFF42F90CFFFF4
1FFFFFFA0B23FFFFF4
1FFFFFFF220AFFFFF4
1FFFFFFF801FFFFFF4
1FFFFFFFE07FFFFFF4
1FFFFFFFF08FFFFFF4
1FFFFFFFF08FFFFFF4
1FFFFFFFF3AFFFFFF4
1FFFFFFFFFFFFFFFF4
0FFFFFFFFFFFFFFFF3
0BFFFFFFFFFFFFFFE0
03FFFFFFFFFFFFFF60
005FFFFFFFFFFFF800
00029DEFFFFFDA3000
ENDCHAR
STARTCHAR uni1EBC
ENCODING 7868
SWIDTH 578 0
DWIDTH 16 0
BBX 18 27 -1 0
BITMAP
0000003ADFEC710000
000008FFFFFFFE3000
00006FFFFFFFFFE100
0000EFFFFFFFFFF800
0003FFFFFFFFFFFC00
0003FFE66AF57FFC00
0001FF9072108FFA00
0000AFDBFFBAFFF400
00006FFFFFFFFF8000
002CFFB888888EE400
02EFFF8011111CFF30
09FFFF81FFFFFFFFC0
0EFFFF81FFFFFFFFF2
1FFFFF81FFFFFFFFF4
1FFFFF817777BFFFF4
1FFFFF8022229FFFF4
1FFFFF81FFFFFFFFF4
1FFFFF81FFFFFFFFF4
1FFFFF81FFFFFFFFF4
1FFFFF8055555BFFF4
1FFFFF9333333AFFF4
1FFFFFFFFFFFFFFFF4
0FFFFFFFFFFFFFFFF3
0BFFFFFFFFFFFFFFE0
03FFFFFFFFFFFFFF60
005FFFFFFFFFFFF800
00029DEFFFFFDA3000
ENDCHAR
STARTCHAR uni1EF8
ENCODING 7928
SWIDTH 578 0
DWIDTH 16 0
BBX 18 27 -1 0
BITMAP
0000004AEFEC710000
000009FFFFFFFD3000
00007FFFFFFFFFE100
0001EFFFFFFFFFF700
0004FFFFFFFFFFFB00
0004FFE56AF48FFB00
0002FF8172109FF900
0000BFDBFFBAFFF300
00006FFFFFFFFF8000
002CFD8CFFFF89E400
02EFFE15FFFC08FF30
09FFFF60EFF60EFFC0
0EFFFFC08FE16FFFF2
1FFFFFF42F90CFFFF4
1FFFFFFA0B23FFFFF4
1FFFFFFF220AFFFFF4
1FFFFFFF801FFFFFF4
1FFFFFFFE07FFFFFF4
1FFFFFFFF08FFFFFF4
1FFFFFFFF08FFFFFF4
1FFFFFFFF3AFFFFFF4
1FFFFFFFFFFFFFFFF4
0FFFFFFFFFFFFFFFF3
0BFFFFFFFFFFFFFFE0
03FFFFFFFFFFFFFF60
005FFFFFFFFFFFF800
00029DEFFFFFDA3000
ENDCHAR
STARTCHAR uni1EF9
ENCODING 7929
SWIDTH 578 0
DWIDTH 16 0
BBX 18 27 -1 0
BITMAP
0000004AEFEC710000
000009FFFFFFFD3000
00007FFFFFFFFFE100
0001EFFFFFFFFFF700
0004FFFFFFFFFFFB00
0004FFE56AF48FFB00
0002FF8172109FF900
0000BFDBFFBAFFF300
00006FFFFFFFFF8000
002CFD8CFFFF89E400
02EFFE15FFFC08FF30
09FFFF60EFF60EFFC0
0EFFFFC08FE16FFFF2
1FFFFFF42F90CFFFF4
1FFFFFFA0B23FFFFF4
1FFFFFFF220AFFFFF4
1FFFFFFF801FFFFFF4
1FFFFFFFE07FFFFFF4
1FFFFFFFF08FFFFFF4
1FFFFFFFF08FFFFFF4
1FFFFFFFF3AFFFFFF4
1FFFFFFFFFFFFFFFF4
0FFFFFFFFFFFFFFFF3
0BFFFFFFFFFFFFFFE0
03FFFFFFFFFFFFFF60
005FFFFFFFFFFFF800
00029DEFFFFFDA3000
ENDCHAR
STARTCHAR endash
ENCODING 8211
SWIDTH 428 0
DWIDTH 12 0
BBX 14 19 -1 0
BITMAP
000049AA940000
002CFFFFFFC200
02EFFFFFFFFE20
09FFFFFFFFFF90
0EFFFFFFFFFFE0
1FFF600006FFF0
1FFFB8888BFFF1
1FFFFFFFFFFFF1
1FFFFFFFFFFFF1
1FFFFFFFFFFFF1
1FFFFFFFFFFFF1
1FFFFFFFFFFFF1
1FFFFFFFFFFFF1
1FFFFFFFFFFFF1
0FFFFFFFFFFFF0
0BFFFFFFFFFFB0
03FFFFFFFFFF30
005FFFFFFFE500
00029DEED92000
ENDCHAR
STARTCHAR emdash
ENCODING 8212
SWIDTH 428 0
DWIDTH 12 0
BBX 14 19 -1 0
BITMAP
000049AA940000
002CFFFFFFC200
02EFFFFFFFFE10
09FFFFFFFFFF90
0EFFFFFFFFFFD0
00000000000000
08888888888880
1FFFFFFFFFFFF1
1FFFFFFFFFFFF1
1FFFFFFFFFFFF1
1FFFFFFFFFFFF1
1FFFFFFFFFFFF1
1FFFFFFFFFFFF1
1FFFFFFFFFFFF1
0FFFFFFFFFFFF0
0BFFFFFFFFFFB0
03FFFFFFFFFF30
005FFFFFFFE500
00029DEED92000
ENDCHAR
STARTCHAR quoteleft
ENCODING 8216
SWIDTH 428 0
DWIDTH 12 0
BBX 14 19 -1 0
BITMAP
000049AA940000
002CFFEBFFC200
02EFFF77FFFE20
09FFFF22DFFF90
0EFFFF10CFFFE0
1FFFFFFFFFFFF0
1FFFFFFFFFFFF1
1FFFFFFFFFFFF1
1FFFFFFFFFFFF1
1FFFFFFFFFFFF1
1FFFFFFFFFFFF1
1FFFFFFFFFFFF1
1FFFFFFFFFFFF1
1FFFFFFFFFFFF1
0FFFFFFFFFFFF0
0BFFFFFFFFFFB0
03FFFFFFFFFF30
005FFFFFFFE500
00029DEED92000
ENDCHAR
STARTCHAR quoteright
ENCODING 8217
SWIDTH 428 0
DWIDTH 12 0
BBX 14 19 -1 0
BITMAP
000049AA940000
002CFF88EFC200
02EFFF10CFFE20
09FFFFA0EFFF90
0EFFFFA7FFFFE0
1FFFFFFFFFFFF0
1FFFFFFFFFFFF1
1FFFFFFFFFFFF1
1FFFFFFFFFFFF1
1FFFFFFFFFFFF1
1FFFFFFFFFFFF1
1FFFFFFFFFFFF1
1FFFFFFFFFFFF1
1FFFFFFFFFFFF1
0FFFFFFFFFFFF0
0BFFFFFFFFFFB0
03FFFFFFFFFF30
005FFFFFFFE500
00029DEED92000
ENDCHAR
STARTCHAR quotesinglbase
ENCODING 8218
SWIDTH 428 0
DWIDTH 12 0
BBX 14 19 -1 0
BITMAP
000049AA940000
002CFFFFFFC200
02EFFFFFFFFE20
09FFFFFFFFFF90
0EFFFFFFFFFFE0
1FFFFFFFFFFFF0
1FFFFFFFFFFFF1
1FFFFFFFFFFFF1
1FFFFFFFFFFFF1
1FFFFFFFFFFFF1
1FFFFFFFFFFFF1
1FFFFF21DFFFF1
1FFFFF40DFFFF1
1FFFFFB3FFFFF1
0FFFFFDBFFFFF0
0BFFFFFFFFFFB0
03FFFFFFFFFF30
005FFFFFFFE500
00029DEED92000
ENDCHAR
STARTCHAR quotedblleft
ENCODING 8220
SWIDTH 428 0
DWIDTH 12 0
BBX 14 19 -1 0
BITMAP
000049AA940000
002CFBEFAFC200
02EFF1C94FFE20
09FFB0642BFF90
0EFFB0340AFFE0
1FFFFFFFFFFFF0
1FFFFFFFFFFFF1
1FFFFFFFFFFFF1
1FFFFFFFFFFFF1
1FFFFFFFFFFFF1
1FFFFFFFFFFFF1
1FFFFFFFFFFFF1
1FFFFFFFFFFFF1
1FFFFFFFFFFFF1
0FFFFFFFFFFFF0
0BFFFFFFFFFFB0
03FFFFFFFFFF30
005FFFFFFFE500
00029DEED92000
ENDCHAR
STARTCHAR quotedblright
ENCODING 8221
SWIDTH 428 0
DWIDTH 12 0
BBX 14 19 -1 0
BITMAP
000049AA940000
002CF88B8BC200
02EFF00706FE20
09FFF81D38FF90
0EFFF98F3EFFE0
1FFFFFFFFFFFF0
1FFFFFFFFFFFF1
1FFFFFFFFFFFF1
1FFFFFFFFFFFF1
1FFFFFFFFFFFF1
1FFFFFFFFFFFF1
1FFFFFFFFFFFF1
1FFFFFFFFFFFF1
1FFFFFFFFFFFF1
0FFFFFFFFFFFF0
0BFFFFFFFFFFB0
03FFFFFFFFFF30
005FFFFFFFE500
00029DEED92000
ENDCHAR
STARTCHAR quotedblbase
ENCODING 8222
SWIDTH 428 0
DWIDTH 12 0
BBX 14 19 -1 0
BITMAP
000049AA940000
002CFFFFFFC200
02EFFFFFFFFE20
09FFFFFFFFFF90
0EFFFFFFFFFFE0
1FFFFFFFFFFFF0
1FFFFFFFFFFFF1
1FFFFFFFFFFFF1
1FFFFFFFFFFFF1
1FFFFFFFFFFFF1
1FFFFFFFFFFFF1
1FFFF11717FFF1
1FFFF20816FFF1
1FFFFA4F2BFFF1
0FFFFCCF9FFFF0
0BFFFFFFFFFFB0
03FFFFFFFFFF30
005FFFFFFFE500
00029DEED92000
ENDCHAR
STARTCHAR dagger
ENCODING 8224
SWIDTH 578 0
DWIDTH 16 0
BBX 18 19 -1 0
BITMAP
000049ABBBBB950000
002CFFFFF8BFFFE400
02EFFFFFF26FFFFF30
09FFFFFCB15BDFFFC0
0EFFFFF400009FFFF2
1FFFFFFDC25CEFFFF4
1FFFFFFFF26FFFFFF4
1FFFFFFFF26FFFFFF4
1FFFFFFFF26FFFFFF4
1FFFFFFFF26FFFFFF4
1FFFFFFFF26FFFFFF4
1FFFFFFFF26FFFFFF4
1FFFFFFFF48FFFFFF4
1FFFFFFFFFFFFFFFF4
0FFFFFFFFFFFFFFFF3
0BFFFFFFFFFFFFFFE0
03FFFFFFFFFFFFFF60
005FFFFFFFFFFFF800
00029DEFFFFFDA3000
ENDCHAR
STARTCHAR daggerdbl
ENCODING 8225
SWIDTH 578 0
DWIDTH 16 0
BBX 18 19 -1 0
BITMAP
000049ABBBBB950000
002CFFFFF8BFFFE400
02EFFFFFF26FFFFF30
09FFFFFCB15BDFFFC0
0EFFFFF400009FFFF2
1FFFFFFDC25CEFFFF4
1FFFFFFFF26FFFFFF4
1FFFFFFFF26FFFFFF4
1FFFFFFFF26FFFFFF4
1FFFFFF96136BFFFF4
1FFFFFF62012AFFFF4
1FFFFFFFF26FFFFFF4
1FFFFFFFF48FFFFFF4
1FFFFFFFFFFFFFFFF4
0FFFFFFFFFFFFFFFF3
0BFFFFFFFFFFFFFFE0
03FFFFFFFFFFFFFF60
005FFFFFFFFFFFF800
00029DEFFFFFDA3000
ENDCHAR
STARTCHAR bullet
ENCODING 8226
SWIDTH 578 0
DWIDTH 16 0
BBX 18 19 -1 0
BITMAP
000049ABBBBB950000
002CFFFFFFFFFFE400
02EFFFFECBBDFFFF30
09FFFF7000005EFFC0
0EFFFA00000007FFF2
1FFFF700000004FFF4
1FFFF700000004FFF4
1FFFF700000004FFF4
1FFFF700000004FFF4
1FFFF700000004FFF4
1FFFFA00000007FFF4
1FFFFF6000004EFFF4
1FFFFFFEBBBDFFFFF4
1FFFFFFFFFFFFFFFF4
0FFFFFFFFFFFFFFFF3
0BFFFFFFFFFFFFFFE0
03FFFFFFFFFFFFFF60
005FFFFFFFFFFFF800
00029DEFFFFFDA3000
ENDCHAR
STARTCHAR ellipsis
ENCODING 8230
SWIDTH 578 0
DWIDTH 16 0
BBX 18 19 -1 0
BITMAP
000049ABBBBB950000
002CFFFFFFFFFFE400
02EFFFFFFFFFFFFF30
09FFFFFFFFFFFFFFC0
0EFFFFFFFFFFFFFFF2
1FFFFFFFFFFFFFFFF4
1FFFFFFFFFFFFFFFF4
1FFFFFFFFFFFFFFFF4
1FFFFFFFFFFFFFFFF4
1FFFFFFFFFFFFFFFF4
1FFFFFFFFFFFFFFFF4
1FFF91AF23F71CFFF4
1FFFA3AF45F83DFFF4
1FFFFFFFFFFFFFFFF4
0FFFFFFFFFFFFFFFF3
0BFFFFFFFFFFFFFFE0
03FFFFFFFFFFFFFF60
005FFFFFFFFFFFF800
00029DEFFFFFDA3000
ENDCHAR
STARTCHAR perthousand
ENCODING 8240
SWIDTH 640 0
DWIDTH 18 0
BBX 19 19 -1 0
BITMAP
000049ABBBBBBA840000
002CFFFFFFFFFFFFC200
02C536EF6AFFFFFFFD10
0932507D09FFFFFFFF80
0E18F3590EFFFFFFFFD0
1F2250743FFFFFFFFFF0
1FC437E08FFFFFFFFFF0
1FFFFFB0CDBCFFEBBEF0
1FFFFF62C1004F3002D0
1FFFFF2680D80B09C090
1FFFFC0B80C70B08B090
1FFFF81FD2004F4002D0
1FFFFFDFFECCFFFCCEF0
1FFFFFFFFFFFFFFFFFF0
0FFFFFFFFFFFFFFFFFE0
0BFFFFFFFFFFFFFFFFA0
03FFFFFFFFFFFFFFFF20
005FFFFFFFFFFFFFE500
00029DEFFFFFFEC82000
ENDCHAR
STARTCHAR guilsinglleft
ENCODING 8249
SWIDTH 578 0
DWIDTH 16 0
BBX 18 19 -1 0
BITMAP
000049ABBBBB950000
002CFFFFFFFFFFE400
02EFFFFFFFFDFFFF30
09FFFFFFFF73FFFFC0
0EFFFFFFFB0CFFFFF2
1FFFFFFFD18FFFFFF4
1FFFFFFF35FFFFFFF4
1FFFFFF72EFFFFFFF4
1FFFFFF53FFFFFFFF4
1FFFFFFE27FFFFFFF4
1FFFFFFFC0BFFFFFF4
1FFFFFFFF91DFFFFF4
1FFFFFFFFF54FFFFF4
1FFFFFFFFFEBFFFFF4
0FFFFFFFFFFFFFFFF3
0BFFFFFFFFFFFFFFE0
03FFFFFFFFFFFFFF60
005FFFFFFFFFFFF800
00029DEFFFFFDA3000
ENDCHAR
STARTCHAR guilsinglright
ENCODING 8250
SWIDTH 578 0
DWIDTH 16 0
BBX 18 19 -1 0
BITMAP
000049ABBBBB950000
002CFFFFFFFFFFE400
02EFFFFEDFFFFFFF30
09FFFFF83FFFFFFFC0
0EFFFFFE27FFFFFFF2
1FFFFFFFB0BFFFFFF4
1FFFFFFFF72EFFFFF4
1FFFFFFFFF36FFFFF4
1FFFFFFFFF44FFFFF4
1FFFFFFFF91DFFFFF4
1FFFFFFFD1AFFFFFF4
1FFFFFFF35FFFFFFF4
1FFFFFF82EFFFFFFF4
1FFFFFFDCFFFFFFFF4
0FFFFFFFFFFFFFFFF3
0BFFFFFFFFFFFFFFE0
03FFFFFFFFFFFFFF60
005FFFFFFFFFFFF800
00029DEFFFFFDA3000
ENDCHAR
STARTCHAR fraction
ENCODING 8260
SWIDTH 428 0
DWIDTH 12 0
BBX 14 19 -1 0
BITMAP
000049AA940000
002CFFF9AFC200
02EFFFF07FFE20
09FFFFD0AFFF90
0EFFFFA0CFFFE0
1FFFFF80FFFFF0
1FFFFF52FFFFF1
1FFFFF35FFFFF1
1FFFFF17FFFFF1
1FFFFD0AFFFFF1
1FFFFA0CFFFFF1
1FFFF80FFFFFF1
1FFFF74FFFFFF1
1FFFFFFFFFFFF1
0FFFFFFFFFFFF0
0BFFFFFFFFFFB0
03FFFFFFFFFF30
005FFFFFFFE500
00029DEED92000
ENDCHAR
STARTCHAR Euro
ENCODING 8364
SWIDTH 578 0
DWIDTH 16 0
BBX 18 19 -1 0
BITMAP
000049ABBBBB950000
002CFFA88888CFD400
02EFF90011108FFE30
09FFF43FFFFFEFFFC0
0EFFF44FFFFFFFFFF2
1FFC100111FFFFFFF4
1FFEA23AAAFFFFFFF4
1FFEA23AAAFFFFFFF4
1FFC100111FFFFFFF4
1FFFF44FFFFFFFFFF4
1FFFF44FFFFFFFFFF4
1FFFF6055554AFFFF4
1FFFFE633334AFFFF4
1FFFFFFFFFFFFFFFF4
0FFFFFFFFFFFFFFFF3
0BFFFFFFFFFFFFFFE0
03FFFFFFFFFFFFFF60
005FFFFFFFFFFFF800
00029DEFFFFFDA3000
ENDCHAR
STARTCHAR trademark
ENCODING 8482
SWIDTH 578 0
DWIDTH 16 0
BBX 18 19 -1 0
BITMAP
000049ABBBBB950000
002CFFFFFFFFFFE400
02EFFFFFFFFFFFFF30
09FFFFFFFFFFFFFFC0
0EFFFFFFFFFFFFFFF2
1FFFFFFFFFFFFFFFF4
1FFFD00075F92FFFF4
1FFFFD1E70812FFFF4
1FFFFE1F83032FFFF4
1FFFFE1F87182FFFF4
1FFFFFDFEEEFDFFFF4
1FFFFFFFFFFFFFFFF4
1FFFFFFFFFFFFFFFF4
1FFFFFFFFFFFFFFFF4
0FFFFFFFFFFFFFFFF3
0BFFFFFFFFFFFFFFE0
03FFFFFFFFFFFFFF60
005FFFFFFFFFFFF800
00029DEFFFFFDA3000
ENDCHAR
STARTCHAR product
ENCODING 8719
SWIDTH 578 0
DWIDTH 16 0
BBX 18 19 -1 0
BITMAP
000049ABBBBB950000
002CFFFC878CFFE400
02EFFC3489834DFF30
09FFA2BFFFFFA2CFC0
0EFD2DF52224DB2FF2
1FF78FF49DD57F69F4
1FF2EFF4BFF87FB4F4
1FF1FFF4BFF77FE2F4
1FF1FFF42331AFE2F4
1FF3DFF49CCDFFB5F4
1FF86FF4BFFFFF4AF4
1FFE2BF4BFFFF93FF4
1FFFC29EFFFE72DFF4
1FFFFD5256516EFFF4
0FFFFFFEBABEFFFFF3
0BFFFFFFFFFFFFFFE0
03FFFFFFFFFFFFFF60
005FFFFFFFFFFFF800
00029DEFFFFFDA3000
ENDCHAR
STARTCHAR minus
ENCODING 8722
SWIDTH 428 0
DWIDTH 12 0
BBX 14 19 -1 0
BITMAP
000049AA940000
002CFFFFFFC200
02EFFFFFFFFE20
09FFFFFFFFFF90
0EFFFFFFFFFFE0
1FFF600006FFF0
1FFFB8888BFFF1
1FFFFFFFFFFFF1
1FFFFFFFFFFFF1
1FFFFFFFFFFFF1
1FFFFFFFFFFFF1
1FFFFFFFFFFFF1
1FFFFFFFFFFFF1
1FFFFFFFFFFFF1
0FFFFFFFFFFFF0
0BFFFFFFFFFFB0
03FFFFFFFFFF30
005FFFFFFFE500
00029DEED92000
ENDCHAR
STARTCHAR notequal
ENCODING 8800
SWIDTH 578 0
DWIDTH 16 0
BBX 18 19 -1 0
BITMAP
000049ABBBBB950000
002CFFFFFFFFFFE400
02EFFFFFFFACFFFF30
09FFFFFFFB0BFFFFC0
0EFFF74442046FFFF2
1FFFF74420445FFFF4
1FFFFFEE43EEEFFFF4
1FFFF40000002FFFF4
1FFFFA8228889FFFF4
1FFFFFD19FFFFFFFF4
1FFFFFFFFFFFFFFFF4
1FFFFFFFFFFFFFFFF4
1FFFFFFFFFFFFFFFF4
1FFFFFFFFFFFFFFFF4
0FFFFFFFFFFFFFFFF3
0BFFFFFFFFFFFFFFE0
03FFFFFFFFFFFFFF60
005FFFFFFFFFFFF800
00029DEFFFFFDA3000
ENDCHAR
STARTCHAR uni2706
ENCODING 9990
SWIDTH 578 0
DWIDTH 16 0
BBX 18 19 -1 0
BITMAP
000049ABBBBB950000
002CFFFFD6DFFFE400
02EFFFFFDC5AFFFF30
09FFFFFFD4A5EFFFC0
0EFFFFEC8B3B9FFFF2
1FFFFE62D57B6FFFF4
1FFFFB246EDD8FFFF4
1FFFFB06CFFFFFFFF4
1FFFFD03FFFFFFFFF4
1FFFFF30DFFFFFFFF4
1FFFFFA03EFFFFFFF4
1FFFFFF50292EFFFF4
1FFFFFFF60336FFFF4
1FFFFFFFFB468FFFF4
0FFFFFFFFFFFFFFFF3
0BFFFFFFFFFFFFFFE0
03FFFFFFFFFFFFFF60
005FFFFFFFFFFFF800
00029DEFFFFFDA3000
ENDCHAR
STARTCHAR uni2708
ENCODING 9992
SWIDTH 578 0
DWIDTH 16 0
BBX 18 19 -1 0
BITMAP
000048888888850000
002950040013049400
02900005DBD2000830
081000003E20000090
090010001D00010072
18003C501D017B0054
180003ED6E7EB10054
1800002DFFFA000054
18000001CF80000054
180000005F00000054
180000004E00000054
180000003D00000054
180000000900000054
180000000000000054
080000003610000063
09000000EF90000090
03700000EF80000560
005810002400007700
000289888888983000
ENDCHAR
STARTCHAR uniF6D6
ENCODING 63190
SWIDTH 419 0
DWIDTH 12 0
BBX 12 10 0 0
BITMAP
01A969A71000
08FFFFFFC000
2FFFFFFFF700
9F93FC2EFE10
DFF4AF67FF80
4FFD3FE3EFE2
09FF99FB6FF9
01DFF8FF9FFC
004FFFFFFFFA
000577777772
ENDCHAR
STARTCHAR uFFFF2
ENCODING 1048562
SWIDTH 578 0
DWIDTH 16 0
BBX 18 19 -1 0
BITMAP
000048888888850000
002950000200049400
029000001B00000830
081000003E00000090
090000004F00000072
180000005F10000054
18000004EFD2000054
1800006FEFFD300054
180007E82D2AE40054
180037101D00290054
180000001D00000054
180000008F50000054
1800000896B5000054
180000000000000054
080000003610000063
09000000EF90000090
03700000EF80000560
005810002400007700
000289888888983000
ENDCHAR
STARTCHAR uFFFF3
ENCODING 1048563
SWIDTH 578 0
DWIDTH 16 0
BBX 18 19 -1 0
BITMAP
000048888888850000
002950000200049400
029000000C40000830
081000000DE4000090
090000440D9E400072
1800008F4D5BC00054
18000009EECD200054
180000009FD2000054
18000000AFE2000054
1800000AEEDD200054
1800009D2D5BD10054
180000320DBF500054
180000000DE4000054
180000000C30000054
080000000200000063
090000000000000090
037000000000000560
005810000000007700
000289888888983000
ENDCHAR
STARTCHAR uFFFF4
ENCODING 1048564
SWIDTH 578 0
DWIDTH 16 0
BBX 18 19 -1 0
BITMAP
000049ABBBBB950000
002CFFFFFFFFFFE400
02EFFFFFFAFFFFFF30
09FFFFFFF0FFFFFFC0
0EFFFFB5F0F5CFFFF2
1FFFFD1CF0FB2DFFF4
1FFFF68FF0FF77FFF4
1FFFF3CFF0FFB4FFF4
1FFFF3CFFEFFB3FFF4
1FFFF66FFFFF67FFF4
1FFFFE18FFF82EFFF4
1FFFFFC31313DFFFF4
1FFFFFFFCACFFFFFF4
1FFFFFFFFFFFFFFFF4
0FFFFFFFFFFFFFFFF3
0BFFFFFFFFFFFFFFE0
03FFFFFFFFFFFFFF60
005FFFFFFFFFFFF800
00029DEFFFFFDA3000
ENDCHAR
STARTCHAR uFFFF5
ENCODING 1048565
SWIDTH 578 0
DWIDTH 16 0
BBX 18 19 -1 0
BITMAP
000049ABBBBB950000
002CFFFBFFECFFE400
02EFFFFA242DFFFF30
09FFFFFFC1DFFFFFC0
0EFFEFFFE2FFFEFFF2
1FFFC3AFE2FE84FFF4
1FFFFC1291814EFFF4
1FFFFFD20005FFFFF4
1FFFFFFE307FFFFFF4
1FFFFFFFA0FFFFFFF4
1FFFFFFFB1FFFFFFF4
1FFFFFFFC2FFFFFFF4
1FFFFFFFF6FFFFFFF4
1FFFFFFFFFFFFFFFF4
0FFFFFFFC9EFFFFFF3
0BFFFFFF106FFFFFE0
03FFFFFF107FFFFF60
005FFFFFDBFFFFF800
00029DEFFFFFDA3000
ENDCHAR
STARTCHAR uFFFF6
ENCODING 1048566
SWIDTH 578 0
DWIDTH 16 0
BBX 18 19 -1 0
BITMAP
000049ABBBBB950000
002CFFFFFDFFFFE400
02EFFFFFE4FFFFFF30
09FFFFFFC1FFFFFFC0
0EFFFFFFB0FFFFFFF2
1FFFFFFFA0EFFFFFF4
1FFFFFFB102DFFFFF4
1FFFFF901002CFFFF4
1FFFF818B4C51BFFF4
1FFFC8EFC4FFC6FFF4
1FFFFFFFC4FFFFFFF4
1FFFFFFF51BFFFFFF4
1FFFFFF6694AFFFFF4
1FFFFFFFFFFFFFFFF4
0FFFFFFFC9EFFFFFF3
0BFFFFFF106FFFFFE0
03FFFFFF107FFFFF60
005FFFFFDBFFFFF800
00029DEFFFFFDA3000
ENDCHAR
STARTCHAR uFFFF8
ENCODING 1048568
SWIDTH 578 0
DWIDTH 16 0
BBX 18 19 -1 0
BITMAP
000049ABBBBB950000
002CFFFFFFFFFFE400
02EFFFFFB9EFFFFF30
09FFFFF7353DFFFFC0
0EFFFFF67689FFFFF2
1FFFFFD42319FFFFF4
1FFFFF403A00CFFFF4
1FFFFD6E40AC6FFFF4
1FFFF67F60DF1EFFF4
1FFFF40300230CFFF4
1FFFF50000000EFFF4
1FFFFB0000003FFFF4
1FFFFF600001BFFFF4
1FFFFFFA436DFFFFF4
0FFFFFFFBAFFFFFFF3
0BFFFFFD008FFFFFE0
03FFFFFE109FFFFF60
005FFFFFDBFFFFF800
00029DEFFFFFDA3000
ENDCHAR
STARTCHAR uFFFF9
ENCODING 1048569
SWIDTH 578 0
DWIDTH 16 0
BBX 18 19 -1 0
BITMAP
000048888888850000
002950000000049400
029000000500000830
081000000F00000090
0900004A0F0A300072
180002E30F04D20054
180009700F00880054
18000C300F004B0054
18000C3001004C0054
180009900000980054
180001E70007D10054
1800003CECEC200054
180000003530000054
180000000000000054
080000000000000063
090000000000000090
037000000000000560
005810000000007700
000289888888983000
ENDCHAR
STARTCHAR uFFFFB
ENCODING 1048571
SWIDTH 578 0
DWIDTH 16 0
BBX 18 19 -1 0
BITMAP
000049ABBBBB950000
002CFFFFACFFFFE400
02EFFFFF91CFFFFF30
09FFFFEF911CFFFFC0
0EFFFC1C9491CFFFF2
1FFFFF516362EFFFF4
1FFFFFF5002EFFFFF4
1FFFFFFE10BFFFFFF4
1FFFFFF5002DFFFFF4
1FFFFF427342DFFFF4
1FFFFC3D9480AFFFF4
1FFFFFFF901BFFFFF4
1FFFFFFF91CFFFFFF4
1FFFFFFFACFFFFFFF4
0FFFFFFFFFFFFFFFF3
0BFFFFFFFFFFFFFFE0
03FFFFFFFFFFFFFF60
005FFFFFFFFFFFF800
00029DEFFFFFDA3000
ENDCHAR
STARTCHAR uFFFFC
ENCODING 1048572
SWIDTH 578 0
DWIDTH 16 0
BBX 18 19 -1 0
BITMAP
000049ABBBBB950000
002CFFFFFFFFFFE400
02EFFE941015BFFF30
09FFA115898403CFC0
0EF907EB878CD41DF2
1FFDBB2156414DAEF4
1FFFE19EBACE64FFF4
1FFFFF912412CFFFF4
1FFFFF8AFEF7AFFFF4
1FFFFFFF709FFFFFF4
1FFFFFFF608FFFFFF4
1FFFFFFFFCFFFFFFF4
1FFFFFFFFFFFFFFFF4
1FFFFFFFFFFFFFFFF4
0FFFFFFFFFFFFFFFF3
0BFFFFFFFFFFFFFFE0
03FFFFFFFFFFFFFF60
005FFFFFFFFFFFF800
00029DEFFFFFDA3000
ENDCHAR
STARTCHAR uFFFFD
ENCODING 1048573
SWIDTH 578 0
DWIDTH 16 0
BBX 18 19 -1 0
BITMAP
000049ABBBBB950000
002CFFFFFFFFFFE400
02EFFFFB658EFFFF30
09FFFF700001DFFFC0
0EFFFB0000003FFFF2
1FFFF60000000EFFF4
1FFFF40200110CFFF4
1FFFF67F60CE1EFFF4
1FFFFC6F50CE5FFFF4
1FFFFF412900BFFFF4
1FFFFFC33407FFFFF4
1FFFFFF7658AFFFFF4
1FFFFFF6573DFFFFF4
1FFFFFFFA8EFFFFFF4
0FFFFFFFBAFFFFFFF3
0BFFFFFD008FFFFFE0
03FFFFFE109FFFFF60
005FFFFFDBFFFFF800
00029DEFFFFFDA3000
ENDCHAR
ENDFONT
